<svg xmlns="http://www.w3.org/2000/svg" width="100%" height="100%" viewBox="0 0 80 40" fill="none">
  <rect x="0" y="34" width="80" height="2" fill="currentColor" opacity="0.4"/>
  <rect x="10" y="18" width="60" height="16" rx="1" stroke="currentColor" stroke-width="1.5" fill="none"/>
  <path d="M8 18 Q40 10 72 18" stroke="currentColor" stroke-width="1.5" fill="none"/>
  <rect x="36" y="4" width="8" height="14" rx="1" stroke="currentColor" stroke-width="1.5" fill="none"/>
  <rect x="33" y="4" width="14" height="4" rx="1" stroke="currentColor" stroke-width="1.5" fill="none"/>
  <rect x="16" y="22" width="6" height="5" rx="0.5" stroke="currentColor" stroke-width="1"/>
  <rect x="26" y="22" width="6" height="5" rx="0.5" stroke="currentColor" stroke-width="1"/>
  <rect x="36" y="22" width="8" height="5" rx="0.5" stroke="currentColor" stroke-width="1"/>
  <rect x="48" y="22" width="6" height="5" rx="0.5" stroke="currentColor" stroke-width="1"/>
  <rect x="58" y="22" width="6" height="5" rx="0.5" stroke="currentColor" stroke-width="1"/>
  <path d="M16 34 L16 38" stroke="currentColor" stroke-width="1.5"/>
  <path d="M64 34 L64 38" stroke="currentColor" stroke-width="1.5"/>
  <line x1="40" y1="4" x2="40" y2="1" stroke="currentColor" stroke-width="1.5"/>
  <circle cx="40" cy="1" r="1" fill="currentColor"/>
</svg>
