<?xml version="1.0" encoding="UTF-8"?>
<svg version="1.1" xmlns="http://www.w3.org/2000/svg" width="100%" height="100%" viewBox="0 0 174 174">
<path d="M0 0 C1.18508652 -0.00525696 2.37017303 -0.01051392 3.59117126 -0.01593018 C6.81234945 -0.02680051 10.03315207 -0.02435286 13.25432396 -0.01479292 C16.64355565 -0.00713682 20.03276428 -0.0142583 23.42199707 -0.01895142 C29.11096627 -0.0243918 34.79981819 -0.01726273 40.48876953 -0.00292969 C47.04288842 0.0133936 53.59672722 0.00810387 60.15083933 -0.0084089 C65.80297934 -0.02207301 71.45503559 -0.02391951 77.10718679 -0.0160929 C80.47206295 -0.01144329 83.83680796 -0.01071595 87.20167542 -0.02070236 C90.95625492 -0.0283575 94.71030357 -0.01665487 98.46484375 0 C99.56332138 -0.00607269 100.66179901 -0.01214539 101.79356384 -0.0184021 C112.08520563 0.06577778 121.23126963 1.91915619 128.73242188 9.38818359 C133.10696297 14.96357911 135.84130933 19.48749071 135.89305115 26.6794281 C135.90811958 28.32560371 135.90811958 28.32560371 135.92349243 30.0050354 C135.92932343 31.20969452 135.93515442 32.41435364 135.94116211 33.65551758 C135.95094589 34.92415146 135.96072968 36.19278534 135.97080994 37.49986267 C136.00218437 41.71130319 136.02247024 45.92276332 136.04101562 50.13427734 C136.04431295 50.85211435 136.04761027 51.56995135 136.05100751 52.30954099 C136.08180388 59.08794928 136.10849614 65.86636216 136.12542629 72.64482021 C136.1472871 81.29451489 136.18915434 89.94358521 136.25886387 98.59303039 C136.30627871 104.68494402 136.33038353 110.77669033 136.33762318 116.86878258 C136.34255598 120.50124268 136.35740537 124.13299906 136.39736748 127.76525688 C136.44148812 131.82931373 136.43729867 135.89200966 136.42944336 139.95629883 C136.45944427 141.73596039 136.45944427 141.73596039 136.49005127 143.55157471 C136.41255654 152.52836294 134.23592785 160.91666674 127.67850399 167.42751217 C125.74581531 168.99039395 123.92779412 170.21911894 121.73242188 171.38818359 C120.79206589 171.89860703 119.8517099 172.40903046 118.88285828 172.93492126 C113.49575256 175.20422569 107.8568403 174.83059904 102.1027832 174.82397461 C100.84331879 174.83405045 99.58385437 174.84412628 98.28622437 174.85450745 C94.84581601 174.88089965 91.40563182 174.88803647 87.965132 174.88995481 C85.80996481 174.8920943 83.65485374 174.8985124 81.49970055 174.90644646 C73.96452626 174.93416872 66.4295107 174.94645646 58.89428711 174.9440918 C51.89757457 174.94229233 44.90155807 174.97389942 37.90502149 175.02132279 C31.87668438 175.06071057 25.84857319 175.0766367 19.82010859 175.07472557 C16.22912024 175.07396503 12.63875048 175.08226875 9.04789162 175.11425972 C5.03446513 175.14904134 1.02257027 175.13496637 -2.9909668 175.11694336 C-4.74717598 175.14223114 -4.74717598 175.14223114 -6.53886414 175.16802979 C-15.6893201 175.06416824 -23.99916254 172.73656348 -30.57118511 166.04142094 C-38.25281236 156.69666764 -38.41770244 147.33407725 -38.4128418 135.72070312 C-38.41620041 134.56370911 -38.41955902 133.40671509 -38.42301941 132.21466064 C-38.43249761 128.40009479 -38.43447088 124.58557298 -38.43554688 120.77099609 C-38.43794844 118.7845448 -38.44035187 116.7980935 -38.44300729 114.81164253 C-38.45113219 108.56941209 -38.4535933 102.32719606 -38.45288086 96.08496094 C-38.45228031 89.66443401 -38.46283207 83.24399116 -38.47862452 76.82348549 C-38.49173693 71.29373379 -38.49706322 65.76400944 -38.49642545 60.23424232 C-38.49617158 56.9392298 -38.49989363 53.64430854 -38.5096035 50.34930801 C-38.51942916 46.67095254 -38.51651511 42.99281226 -38.51049805 39.31445312 C-38.51611755 38.2357193 -38.52173706 37.15698547 -38.52752686 36.04556274 C-38.48434556 25.62772489 -37.13848589 17.49585475 -30.26757812 9.38818359 C-21.74466256 0.99329466 -11.47857208 -0.06345677 0 0 Z M43.91992188 42.57568359 C42.45704152 44.80850098 42.08736233 46.76162426 41.73242188 49.38818359 C40.90742187 49.59443359 40.08242187 49.80068359 39.23242188 50.01318359 C32.49212092 52.66115897 27.0542211 56.86761475 23.73242188 63.38818359 C20.56391229 71.13818676 20.30608574 79.04393475 20.19848633 87.30664062 C20.03733346 94.06190572 18.58628137 98.17259542 14.16992188 103.45068359 C11.92180285 106.15995524 10.62083321 108.01222052 9.73242188 111.38818359 C10.10816738 114.19198558 10.10816738 114.19198558 11.73242188 116.38818359 C14.07495969 116.48311081 16.38788292 116.51378151 18.73071289 116.50170898 C19.46237671 116.50185501 20.19404053 116.50200104 20.94787598 116.50215149 C23.37738971 116.50145226 25.80682771 116.49365944 28.23632812 116.48583984 C29.91641701 116.4839757 31.59650644 116.48255178 33.27659607 116.48155212 C37.70715831 116.47772667 42.13768797 116.46789615 46.5682373 116.45684814 C51.08585164 116.44663462 55.60347121 116.44205463 60.12109375 116.43701172 C68.9915508 116.4262739 77.86198363 116.40919715 86.73242188 116.38818359 C87.82938249 114.52117656 87.82938249 114.52117656 88.73242188 112.38818359 C88.02947626 109.89755314 88.02947626 109.89755314 86.60742188 107.45068359 C86.13433594 106.56767578 85.66125 105.68466797 85.17382812 104.77490234 C83.73550518 102.25768332 83.73550518 102.25768332 81.54492188 99.76318359 C76.69043421 93.40213079 77.38851058 84.52980027 77.34179688 76.89794922 C77.11758055 68.80747693 74.64952054 61.14956914 68.73242188 55.38818359 C64.86423024 52.81985506 60.88620468 50.465075 56.73242188 48.38818359 C56.42304687 47.58380859 56.11367187 46.77943359 55.79492188 45.95068359 C54.88694899 43.089544 54.88694899 43.089544 51.73242188 41.38818359 C47.60065923 40.94294819 47.60065923 40.94294819 43.91992188 42.57568359 Z M-9.26757812 50.38818359 C-17.26074839 59.33176129 -18.63735125 72.21062957 -18.55273438 83.64599609 C-17.89624675 92.26127206 -14.96266677 100.17786889 -10.26757812 107.38818359 C-8.28757812 106.89318359 -8.28757812 106.89318359 -6.26757812 106.38818359 C-6.87959981 102.81805708 -7.85228627 99.71828208 -9.26757812 96.38818359 C-14.03589839 85.16860649 -13.19348817 73.64583367 -9.43554688 62.22802734 C-8.26757812 59.38818359 -8.26757812 59.38818359 -6.61132812 56.66162109 C-5.01074118 54.48955503 -5.01074118 54.48955503 -5.58007812 52.07568359 C-5.80695312 51.51880859 -6.03382812 50.96193359 -6.26757812 50.38818359 C-7.25757813 50.38818359 -8.24757813 50.38818359 -9.26757812 50.38818359 Z M105.73242188 50.38818359 C104.6195624 53.18374023 104.71033449 54.32290907 105.69335938 57.22802734 C106.16 58.25025391 106.62664062 59.27248047 107.10742188 60.32568359 C112.27405591 71.74134707 111.79841821 82.6019648 107.90039062 94.41552734 C106.73242188 97.38818359 106.73242188 97.38818359 105.07617188 100.61865234 C103.49121254 103.23871519 103.49121254 103.23871519 104.04492188 105.76318359 C104.27179688 106.29943359 104.49867188 106.83568359 104.73242188 107.38818359 C106.65981472 107.20880664 106.65981472 107.20880664 108.73242188 106.38818359 C116.07204293 96.65746785 118.01360694 82.18634936 116.73242188 70.38818359 C115.13724551 63.14035661 112.78390434 56.61010309 108.73242188 50.38818359 C107.74242187 50.38818359 106.75242188 50.38818359 105.73242188 50.38818359 Z M-0.78710938 61.63818359 C-5.16210988 66.80968815 -5.81099711 74.00305945 -5.62695312 80.53662109 C-4.84839843 86.71428333 -3.0828505 93.19379161 1.73242188 97.38818359 C2.72242188 96.72818359 3.71242188 96.06818359 4.73242188 95.38818359 C4.44367187 94.52193359 4.15492187 93.65568359 3.85742188 92.76318359 C3.48617187 91.64943359 3.11492188 90.53568359 2.73242188 89.38818359 C2.36117187 88.48068359 1.98992188 87.57318359 1.60742188 86.63818359 C-0.01097093 80.62701032 -0.0945036 74.8738766 2.29492188 69.07568359 C3.7238795 65.41009665 3.98219968 64.02390084 2.73242188 60.38818359 C0.66191212 60.17642038 0.66191212 60.17642038 -0.78710938 61.63818359 Z M94.73242188 60.38818359 C93.8189083 62.89890957 93.62823865 64.08505752 94.50976562 66.64990234 C95.08404297 67.85066406 95.08404297 67.85066406 95.66992188 69.07568359 C98.91431158 76.75857865 98.4098987 82.66626333 95.38867188 90.34521484 C94.52853361 92.66527665 94.52853361 92.66527665 94.73242188 96.38818359 C97.17061573 96.27461506 97.17061573 96.27461506 99.73242188 95.38818359 C104.22475417 88.29570481 104.87019482 79.71572853 103.15429688 71.68115234 C101.96286853 67.35271852 100.83451225 63.74303689 97.73242188 60.38818359 C96.74242187 60.38818359 95.75242188 60.38818359 94.73242188 60.38818359 Z M37.73242188 122.38818359 C38.85659393 129.19248496 38.85659393 129.19248496 43.73242188 133.38818359 C47.88424052 134.78066598 50.90488469 134.66923396 55.04492188 133.26318359 C58.00582238 131.19743905 59.28729813 129.67985433 60.73242188 126.38818359 C60.73242188 125.06818359 60.73242188 123.74818359 60.73242188 122.38818359 C53.14242187 122.38818359 45.55242187 122.38818359 37.73242188 122.38818359 Z " fill="currentColor" transform="translate(38.267578125,-0.38818359375)"/>
</svg>
