<?xml version="1.0" encoding="UTF-8"?>
<svg version="1.1" xmlns="http://www.w3.org/2000/svg" width="100%" height="100%" viewBox="0 0 232 229">
<path d="M0 0 C0.68239884 -0.00297112 1.36479768 -0.00594224 2.06787527 -0.0090034 C4.35380552 -0.01767273 6.63968328 -0.01919717 8.92562866 -0.02069092 C10.56514599 -0.02532045 12.20466224 -0.0303453 13.84417725 -0.03573608 C18.2990148 -0.04885162 22.75383728 -0.05530374 27.20869112 -0.05974674 C29.99414427 -0.06267967 32.77959332 -0.06678496 35.5650444 -0.07125092 C44.28636138 -0.08492547 53.00766897 -0.09459155 61.72899592 -0.09845281 C71.78422519 -0.10292942 81.83931824 -0.12045906 91.8945061 -0.1494534 C99.67387468 -0.17110357 107.45320505 -0.18115892 115.23260343 -0.18249393 C119.87525189 -0.18353984 124.5177723 -0.18940173 129.16038895 -0.20731354 C133.53199296 -0.22385128 137.90337347 -0.22592218 142.27499771 -0.21717453 C143.87368877 -0.21640712 145.47239212 -0.22070757 147.07105255 -0.23063278 C162.11329211 -0.31849427 172.6374152 2.13177105 183.95834351 12.32794189 C190.26060726 18.87936492 193.32453139 27.93117843 193.35551453 36.84307861 C193.35919121 37.52800101 193.3628679 38.21292341 193.36665601 38.91860104 C193.37768958 41.21911805 193.38153619 43.51958988 193.38534546 45.82012939 C193.39161059 47.46772912 193.39825743 49.11532743 193.40525818 50.76292419 C193.42630312 56.18042008 193.43666408 61.59791625 193.44662476 67.01544189 C193.45067279 68.88213109 193.45478972 70.74882014 193.45897484 72.61550903 C193.47803104 81.38968858 193.49225861 90.16385972 193.50058681 98.93805599 C193.51034753 109.05388553 193.53663475 119.16949556 193.5770877 129.2852478 C193.6073022 137.11047039 193.62206092 144.93563027 193.62536782 152.76091003 C193.62771312 157.43103777 193.63660495 162.10093114 193.66182899 166.77099609 C193.68520682 171.17054222 193.68930417 175.56970132 193.67906761 179.96929359 C193.67857442 181.57724613 193.68483053 183.18521835 193.69862366 184.7931118 C193.80296036 197.68558683 192.0420582 207.84485809 183.41146851 217.91387939 C174.91688961 226.49882616 165.47225946 229.42549917 153.57828021 229.55050862 C151.27339019 229.55842976 148.96879886 229.55163261 146.66390991 229.54449463 C144.99571782 229.55020448 143.32752963 229.55717111 141.65934753 229.56529236 C137.1488984 229.58317202 132.63864436 229.58206507 128.12817049 229.57634997 C124.35352802 229.57325028 120.57892259 229.57935931 116.80428541 229.58538872 C107.89434347 229.59941559 98.98449746 229.59788827 90.07455444 229.58648682 C80.90351403 229.57501009 71.73276622 229.58907797 62.56176436 229.61588329 C54.66846181 229.63808451 46.7752508 229.64466764 38.88191926 229.63880688 C34.17613806 229.63544634 29.47054433 229.63779194 24.76478958 229.65505791 C20.3372219 229.67059541 15.91008548 229.66649657 11.48253441 229.64775276 C9.86491538 229.64408549 8.24726391 229.64712057 6.62967491 229.65763855 C-7.436234 229.74206085 -18.1884197 227.31191358 -28.85415649 217.57794189 C-35.94685295 210.33578249 -38.90382856 201.33213785 -38.93882751 191.39347839 C-38.9425042 190.71586867 -38.94618089 190.03825895 -38.94996899 189.34011561 C-38.96097868 187.0703436 -38.96484509 184.80061743 -38.96865845 182.53082275 C-38.97492529 180.9027797 -38.98157229 179.27473807 -38.98857117 177.646698 C-39.00959274 172.29957064 -39.01997376 166.95244307 -39.02993774 161.60528564 C-39.03398642 159.76181079 -39.03810337 157.91833608 -39.04228783 156.07486153 C-39.0613376 147.41067625 -39.07556745 138.74649946 -39.0838998 130.08229727 C-39.09366303 120.0960877 -39.11995956 110.11010033 -39.16040069 100.12396902 C-39.19061606 92.39638999 -39.20537392 84.66887444 -39.20868081 76.94123751 C-39.21102567 72.33036819 -39.219912 67.71973629 -39.24514198 63.10893059 C-39.26852192 58.76600327 -39.27261634 54.42346801 -39.2623806 50.08049393 C-39.26188748 48.49350361 -39.26814123 46.90649334 -39.28193665 45.31956291 C-39.39842733 31.11520222 -36.89163861 20.65938861 -26.97915649 10.23419189 C-19.39590333 3.01787034 -10.32384501 0.02512649 0 0 Z M-12.79165649 29.14044189 C-18.77996792 38.05531888 -19.57955816 45.8561559 -19.16665649 56.39044189 C-19.13646496 57.73282878 -19.10910561 59.07528246 -19.08462524 60.41778564 C-19.01464012 63.66042994 -18.91650411 66.89952576 -18.79165649 70.14044189 C-16.84562375 70.73114203 -16.84562375 70.73114203 -14.79165649 71.14044189 C-13.0986186 69.447404 -13.64257135 67.27813022 -13.61587524 64.96075439 C-13.59202759 63.88567627 -13.56817993 62.81059814 -13.54360962 61.70294189 C-13.50137665 59.45051687 -13.46973668 57.19786262 -13.44985962 54.94512939 C-13.2134705 45.66548195 -11.95828204 36.93855951 -5.16665649 30.14044189 C2.43816091 23.49867997 13.16506369 23.70495139 22.66928101 23.7522583 C23.98116394 23.74700134 25.29304688 23.74174438 26.64468384 23.73632812 C30.21498331 23.72275126 33.78502023 23.72791287 37.35532379 23.73746538 C41.10890866 23.74511234 44.8624725 23.73800249 48.61605835 23.73330688 C54.917043 23.72786389 61.21792183 23.73500252 67.51889038 23.74932861 C74.7819104 23.76565237 82.04467768 23.76036282 89.30769157 23.7438494 C95.5670429 23.73019283 101.82631858 23.72833516 108.08568001 23.7361654 C111.81384543 23.7408191 115.54189244 23.7415308 119.27005005 23.73155594 C123.42931855 23.72120299 127.58815799 23.73559142 131.74740601 23.7522583 C132.96744324 23.74618561 134.18748047 23.74011292 135.44448853 23.7338562 C145.17949615 23.80586704 154.2413365 24.84488845 161.37142944 31.99639893 C167.67540359 39.35438683 167.84488878 48.51372445 167.95834351 57.76544189 C167.98799194 58.96040283 168.01764038 60.15536377 168.04818726 61.38653564 C168.11822007 64.30456947 168.17124528 67.22183524 168.20834351 70.14044189 C170.15437625 70.73114203 170.15437625 70.73114203 172.20834351 71.14044189 C174.7907138 68.5580716 173.43842594 61.61462274 173.44857788 58.11431885 C173.4581872 56.11053499 173.48933791 54.10689173 173.52084351 52.10333252 C173.56794491 40.42807093 171.74518298 33.95973343 163.62240601 25.34747314 C157.67280825 19.90811597 151.24327548 18.02563365 143.32781982 17.99327087 C142.12513458 17.98611557 140.92244934 17.97896027 139.68331909 17.97158813 C137.7086969 17.96755478 137.7086969 17.96755478 135.69418335 17.96343994 C134.29111565 17.957172 132.8880496 17.95052491 131.48498535 17.94352722 C126.87976225 17.92251935 122.27453896 17.91212619 117.66928101 17.90216064 C116.08085742 17.89811152 114.49243401 17.89399455 112.90401077 17.88981056 C105.43851427 17.87076411 97.97302761 17.85653334 90.5075115 17.84819859 C81.90567824 17.83843539 73.30410293 17.81213772 64.70236051 17.7716977 C58.04400241 17.74147476 51.38571799 17.72672378 44.72729266 17.72341758 C40.75527719 17.72107366 36.78353746 17.71219982 32.81159592 17.68695641 C29.07028193 17.66356279 25.32942301 17.65948724 21.58805466 17.66971779 C19.57417637 17.67044403 17.5603206 17.65143146 15.54653931 17.63165283 C4.23897174 17.69603247 -5.27300695 20.23651109 -12.79165649 29.14044189 Z M26.20834351 61.14044189 C26.20834351 96.45044189 26.20834351 131.76044189 26.20834351 168.14044189 C34.76771851 168.20231689 43.32709351 168.26419189 52.14584351 168.32794189 C56.14246094 168.36890991 56.14246094 168.36890991 60.21981812 168.41070557 C89.77603751 168.6234421 89.77603751 168.6234421 115.20834351 154.82794189 C127.74556094 140.64442318 129.25073317 123.28325263 128.20834351 105.14044189 C126.88573727 92.52390279 122.16788003 80.37109745 112.20834351 72.14044189 C86.31671207 55.64782735 56.23037183 61.14044189 26.20834351 61.14044189 Z M-24.79165649 113.14044189 C-25.12165649 114.13044189 -25.45165649 115.12044189 -25.79165649 116.14044189 C-25.46165649 116.80044189 -25.13165649 117.46044189 -24.79165649 118.14044189 C-13.57165649 118.14044189 -2.35165649 118.14044189 9.20834351 118.14044189 C9.53834351 116.82044189 9.86834351 115.50044189 10.20834351 114.14044189 C9.0624625 112.76727101 9.0624625 112.76727101 5.97372437 113.0269165 C4.54020224 113.02707558 3.10667438 113.03276782 1.67318726 113.04278564 C0.91993668 113.04420059 0.1666861 113.04561554 -0.60939026 113.04707336 C-3.02435209 113.05268814 -5.4392225 113.06524307 -7.85415649 113.07794189 C-9.4876187 113.082955 -11.12108235 113.08751823 -12.75454712 113.09161377 C-16.76695234 113.10266236 -20.7792889 113.11993683 -24.79165649 113.14044189 Z M145.20834351 113.14044189 C144.87834351 114.13044189 144.54834351 115.12044189 144.20834351 116.14044189 C144.53834351 116.80044189 144.86834351 117.46044189 145.20834351 118.14044189 C156.42834351 118.14044189 167.64834351 118.14044189 179.20834351 118.14044189 C179.53834351 116.82044189 179.86834351 115.50044189 180.20834351 114.14044189 C179.0624625 112.76727101 179.0624625 112.76727101 175.97372437 113.0269165 C174.54020224 113.02707558 173.10667438 113.03276782 171.67318726 113.04278564 C170.91993668 113.04420059 170.1666861 113.04561554 169.39060974 113.04707336 C166.97564791 113.05268814 164.5607775 113.06524307 162.14584351 113.07794189 C160.5123813 113.082955 158.87891765 113.08751823 157.24545288 113.09161377 C153.23304766 113.10266236 149.2207111 113.11993683 145.20834351 113.14044189 Z M-16.79165649 158.14044189 C-17.78165649 158.63544189 -17.78165649 158.63544189 -18.79165649 159.14044189 C-18.89156189 163.10553328 -18.96360483 167.07012352 -19.01138306 171.03619385 C-19.0410643 173.03800241 -19.09192707 175.03946109 -19.14321899 177.04083252 C-19.25567468 188.20205927 -17.20639878 195.24347416 -9.58462524 203.41778564 C-3.73487202 209.03813678 2.3624957 211.38239149 10.40530396 211.40786743 C11.62756683 211.4163974 12.84982971 211.42492737 14.10913086 211.43371582 C15.4504701 211.4330169 16.79180924 211.4320939 18.13314819 211.43096924 C19.55621695 211.43695854 20.97928247 211.44376501 22.40234375 211.45132446 C26.2579263 211.46895306 30.11342 211.47367857 33.96903896 211.47495604 C36.38163355 211.47638023 38.79420573 211.48065496 41.20679474 211.48595047 C49.63440884 211.50444194 58.06195979 211.51262239 66.48959351 211.51104736 C74.32741263 211.50984692 82.16495596 211.53093225 90.00270534 211.56253469 C96.74603968 211.58874884 103.48928425 211.59941248 110.23266912 211.59813654 C114.25382139 211.59762832 118.27472855 211.6032334 122.29582977 211.62449265 C126.08151165 211.64396146 129.86671682 211.6439412 133.65241623 211.62945938 C135.69011515 211.62639577 137.72781455 211.64298792 139.76544189 211.66033936 C148.93014891 211.59801273 155.7660469 210.04502045 163.45834351 205.01544189 C169.84597242 198.33746621 173.34496371 191.51942988 173.30599976 182.28497314 C173.30458481 181.62333664 173.30316986 180.96170013 173.30171204 180.28001404 C173.29612347 178.17094362 173.28357315 176.06198012 173.27084351 173.95294189 C173.26582702 172.5213028 173.26126438 171.08966205 173.25717163 169.65802002 C173.24615781 166.15212601 173.22890105 162.64629439 173.20834351 159.14044189 C172.21834351 158.81044189 171.22834351 158.48044189 170.20834351 158.14044189 C169.54834351 158.47044189 168.88834351 158.80044189 168.20834351 159.14044189 C168.19376099 159.88092773 168.17917847 160.62141357 168.16415405 161.38433838 C168.08907128 164.78269603 167.9926107 168.1801353 167.89584351 171.57794189 C167.86200562 173.32494385 167.86200562 173.32494385 167.82748413 175.10723877 C167.55605369 183.8670392 166.90892657 192.7925211 160.20834351 199.14044189 C153.943212 203.20930959 148.97635937 205.2560722 141.47967529 205.28761292 C139.72613235 205.29834587 139.72613235 205.29834587 137.93716431 205.30929565 C136.65815247 205.31198456 135.37914062 205.31467346 134.06137085 205.31744385 C132.69771147 205.32371203 131.33405378 205.33035914 129.97039795 205.33735657 C125.49503765 205.35836189 121.01967716 205.36875747 116.54428101 205.37872314 C115.00043343 205.38277239 113.45658602 205.38688936 111.9127388 205.39107323 C104.6565453 205.41011925 97.40036191 205.42435002 90.14414823 205.4326852 C81.78455376 205.44244774 73.42522476 205.46874383 65.06572378 205.50918609 C58.59420059 205.53941343 52.12275321 205.55416043 45.65116084 205.55746621 C41.79092467 205.55980967 37.93097228 205.56867728 34.07081223 205.59392738 C30.43455371 205.61732873 26.79876339 205.62139353 23.16244888 205.611166 C21.20582295 205.6104401 19.24922014 205.62944733 17.29269409 205.64923096 C8.88695051 205.60001466 1.64112279 204.50647104 -5.19400024 199.31622314 C-5.70060181 198.70134033 -6.20720337 198.08645752 -6.72915649 197.45294189 C-7.25380493 196.85094971 -7.77845337 196.24895752 -8.31900024 195.62872314 C-12.92425279 187.84743436 -13.29992706 179.95235928 -13.47915649 171.07794189 C-13.51331665 169.92616455 -13.54747681 168.77438721 -13.58267212 167.58770752 C-13.66445471 164.77204979 -13.73383024 161.95667618 -13.79165649 159.14044189 C-14.78165649 158.81044189 -15.77165649 158.48044189 -16.79165649 158.14044189 Z " fill="currentColor" transform="translate(38.791656494140625,-0.14044189453125)"/>
<path d="M0 0 C3.00099588 -0.10890711 5.99796378 -0.18773555 9 -0.25 C9.83917969 -0.28351563 10.67835937 -0.31703125 11.54296875 -0.3515625 C17.56601 -0.44494298 21.96771914 0.61048228 27 4 C32.82442416 9.82442416 33.27017341 16.14330611 33.32226562 24.0234375 C33.31904297 25.12945312 33.31582031 26.23546875 33.3125 27.375 C33.32861328 28.47328125 33.34472656 29.5715625 33.36132812 30.703125 C33.36566553 37.93791457 32.99777028 44.06874683 28.45703125 50.0234375 C20.22121053 56.79206925 11.31817314 56.6020101 1 56 C0 55 0 55 -0.12025452 52.79173279 C-0.11803391 51.81688431 -0.11581329 50.84203583 -0.11352539 49.83764648 C-0.11344986 48.73658066 -0.11337433 47.63551483 -0.11329651 46.50108337 C-0.10813522 45.3031868 -0.10297394 44.10529022 -0.09765625 42.87109375 C-0.0962413 41.65172623 -0.09482635 40.4323587 -0.09336853 39.17604065 C-0.08774967 35.2631693 -0.07519396 31.35035419 -0.0625 27.4375 C-0.05748743 24.79231853 -0.0529241 22.14713617 -0.04882812 19.50195312 C-0.03777411 13.00128274 -0.02101764 6.50064539 0 0 Z " fill="currentColor" transform="translate(99,87)"/>
</svg>
