<?xml version="1.0" encoding="UTF-8"?>
<svg version="1.1" xmlns="http://www.w3.org/2000/svg" width="100%" height="100%" viewBox="0 0 232 229">
<path d="M0 0 C0.68184213 -0.00367669 1.36368426 -0.00735338 2.06618828 -0.01114148 C4.34433976 -0.02212883 6.62244555 -0.02601374 8.90061951 -0.02983093 C10.53703962 -0.03609944 12.17345833 -0.04274658 13.80987549 -0.04974365 C19.17922482 -0.07074447 24.5485743 -0.08114391 29.91795349 -0.09111023 C31.77038525 -0.0951596 33.62281687 -0.09927657 35.47524834 -0.10346031 C44.18161321 -0.12250507 52.88796966 -0.1367363 61.59435135 -0.14507228 C71.62412083 -0.15483534 81.65366907 -0.18113353 91.68336064 -0.22157317 C99.44834243 -0.25180034 107.21326105 -0.26654749 114.97830051 -0.26985329 C119.60986628 -0.27219668 124.2411955 -0.28106377 128.87269783 -0.30631447 C133.23533957 -0.32971536 137.59759106 -0.33378053 141.96027946 -0.32355309 C143.55330077 -0.32306049 145.14634207 -0.32929871 146.73930359 -0.34310913 C161.05167548 -0.46015632 172.3985545 1.85520258 183.00389099 11.95967102 C190.18631881 19.49135009 193.21653249 28.55476318 193.24198914 38.82493591 C193.24496026 39.49508409 193.24793138 40.16523227 193.25099254 40.85568798 C193.25966056 43.10015985 193.26118619 45.34457827 193.26268005 47.58906555 C193.26730968 49.19902663 193.27233454 50.80898661 193.27772522 52.41894531 C193.29083991 56.79320691 193.29729272 61.16745317 193.30173588 65.54173136 C193.30466897 68.27693163 193.30877429 71.01212773 193.31324005 73.7473259 C193.32691444 82.31166569 193.33658058 90.87599593 193.34044194 99.44034588 C193.34491839 109.31389461 193.36244733 119.18730461 193.39144254 129.06081116 C193.41309442 136.70005357 193.42314814 144.33925706 193.42448306 151.97852981 C193.42552886 156.53734223 193.43138829 161.09602422 193.44930267 165.65480423 C193.46584338 169.947615 193.4679099 174.24019817 193.45916367 178.53302956 C193.45839641 180.10269469 193.46269464 181.67237237 193.47262192 183.2420063 C193.56153031 198.18431751 191.03772238 208.65673556 180.91404724 219.89717102 C173.88523943 226.64357138 164.68777016 229.26173312 155.20272827 229.29434204 C154.50878434 229.29801873 153.81484041 229.30169542 153.09986788 229.30548352 C150.77481792 229.31649536 148.4498127 229.32035998 146.1247406 229.32417297 C144.45728921 229.33043965 142.78983922 229.33708663 141.12239075 229.34408569 C135.64540069 229.36510903 130.16841041 229.37548836 124.69139099 229.38545227 C122.80334013 229.38950086 120.91528941 229.39361781 119.02723885 229.39780235 C110.1537506 229.4168524 101.28027064 229.43108228 92.40676588 229.43941432 C82.17831652 229.4491781 71.95008407 229.47547594 61.7217111 229.51591522 C53.80729714 229.54612717 45.89294516 229.56088812 37.97847468 229.56419533 C33.25582504 229.56654055 28.53340717 229.57543167 23.81081963 229.60065651 C19.36283571 229.62403046 14.9152346 229.62813321 10.46720505 229.61789513 C8.84151367 229.61740187 7.21580286 229.62365984 5.59016991 229.63745117 C-6.7160371 229.73594606 -17.06871404 228.37937124 -26.82814026 220.19404602 C-35.7477683 211.3753949 -39.1764299 202.011408 -39.30858147 189.61767745 C-39.31643718 187.3404616 -39.30964398 185.06354574 -39.30250549 182.78633118 C-39.3082155 181.13784321 -39.3151822 179.4893592 -39.32330322 177.84088135 C-39.3411811 173.38414881 -39.34007628 168.92761375 -39.33436084 164.47085619 C-39.33126087 160.74094946 -39.33737047 157.01108021 -39.34339958 153.28117883 C-39.35742587 144.47671195 -39.35589962 135.67234213 -39.34449768 126.86787415 C-39.33302107 117.80589556 -39.34708876 108.74421308 -39.37389416 99.68227351 C-39.39609658 91.88238819 -39.40267823 84.08259552 -39.39681774 76.28268087 C-39.39345749 71.63279016 -39.39580092 66.98308918 -39.41306877 62.33322525 C-39.42860822 57.95818545 -39.42450534 53.58358204 -39.40576363 49.20855904 C-39.40209688 47.6102907 -39.40512988 46.01198952 -39.41564941 44.4137516 C-39.48472852 33.04343643 -38.83293192 22.31380212 -30.46095276 13.70967102 C-29.71974182 12.92721008 -28.97853088 12.14474915 -28.21485901 11.33857727 C-24.54332155 7.86516662 -21.05931947 4.97008008 -16.39845276 2.95967102 C-15.66626526 2.63611633 -14.93407776 2.31256165 -14.17970276 1.97920227 C-9.45351462 0.25543845 -5.00850124 0.01756283 0 0 Z M-9.14845276 25.20967102 C-9.93735901 25.90189758 -10.72626526 26.59412415 -11.53907776 27.30732727 C-18.95236768 36.23027723 -19.56427517 44.55918419 -19.21095276 55.77217102 C-19.18581332 57.17187032 -19.16301019 58.57161362 -19.14259338 59.97138977 C-19.08409213 63.36446222 -19.00215745 66.75522997 -18.89845276 70.14717102 C-16.95242002 70.73787116 -16.95242002 70.73787116 -14.89845276 71.14717102 C-13.16119469 69.40991296 -13.72772385 67.0083786 -13.68751526 64.64326477 C-13.65915588 63.5095343 -13.63079651 62.37580383 -13.60157776 61.2077179 C-13.55008717 58.81984183 -13.50564783 56.43180177 -13.46876526 54.0436554 C-13.2000537 44.11812213 -11.70315061 37.27326997 -4.79689026 29.84248352 C0.68464134 24.94745324 7.67746543 24.02822788 14.7986145 24.00672913 C16.50373451 23.99816391 16.50373451 23.99816391 18.24330139 23.98942566 C19.481315 23.9883078 20.71932861 23.98718994 21.99485779 23.98603821 C23.96158699 23.97859085 23.96158699 23.97859085 25.9680481 23.97099304 C29.55921753 23.9579048 33.15036829 23.95143085 36.74155784 23.94698238 C38.98880814 23.94404531 41.23605341 23.93993927 43.48330116 23.93547821 C50.52485208 23.92181145 57.56639142 23.9121413 64.60795468 23.90827632 C72.71676066 23.90380025 80.82539768 23.88626997 88.93415231 23.85727572 C95.21461568 23.8356041 101.49503172 23.82556909 107.77553207 23.8242352 C111.5205634 23.8231909 115.26543575 23.81736383 119.01042747 23.79941559 C123.19414259 23.77975419 127.37750768 23.78424562 131.56126404 23.79072571 C133.40310272 23.77690353 133.40310272 23.77690353 135.28215027 23.76280212 C144.70790909 23.80841509 153.527007 24.66788994 160.63279724 31.40498352 C165.73663923 37.45900886 167.12778427 44.13378867 167.41795349 51.88545227 C167.48079529 53.4855011 167.48079529 53.4855011 167.54490662 55.11787415 C167.58422302 56.22066711 167.62353943 57.32346008 167.66404724 58.45967102 C167.70723083 59.58179993 167.75041443 60.70392883 167.79490662 61.86006165 C167.90069511 64.62231671 168.00278396 67.38465732 168.10154724 70.14717102 C170.04757998 70.73787116 170.04757998 70.73787116 172.10154724 71.14717102 C174.82899593 68.41972233 173.38641512 60.37369036 173.41404724 56.70967102 C173.44305115 55.46250305 173.47205505 54.21533508 173.50193787 52.93037415 C173.5756779 42.13596771 171.61088128 33.89983484 164.10154724 25.90498352 C157.82818834 20.39128917 151.46783058 18.03018905 143.21429443 18.00672913 C141.40809883 17.99816391 141.40809883 17.99816391 139.56541443 17.98942566 C138.24742859 17.9883078 136.92944275 17.98718994 135.57151794 17.98603821 C134.16682811 17.98140784 132.76213952 17.97638289 131.35745239 17.97099304 C127.54315749 17.95788599 123.72888018 17.95142711 119.91456628 17.94698238 C117.52913379 17.94404824 115.14370607 17.93994273 112.75827599 17.93547821 C105.2879731 17.92180624 97.81768116 17.91213875 90.34736663 17.90827632 C81.7370804 17.90379955 73.12695323 17.88626817 64.51671535 17.85727572 C57.85327626 17.83562114 51.18988178 17.82556999 44.5264079 17.8242352 C40.55056621 17.82318965 36.5748741 17.81733561 32.5990696 17.79941559 C28.85535087 17.78286995 25.1118931 17.78081063 21.36815071 17.7895546 C19.35052204 17.79068537 17.33290178 17.77701732 15.31532288 17.76280212 C5.88489584 17.80591345 -1.95929325 18.65134836 -9.14845276 25.20967102 Z M34.41404724 72.64717102 C28.235645 80.27500886 23.14462025 90.32738368 22.10154724 100.14717102 C21.97006287 101.37822571 21.83857849 102.6092804 21.70310974 103.87763977 C20.08176 121.97460869 21.94489027 140.14683357 33.10154724 155.14717102 C43.12789893 166.32964279 56.64931833 171.25144229 71.38230896 172.31123352 C88.68516703 173.16622342 105.51753822 171.08548827 119.47654724 159.89717102 C126.46885653 153.26828737 130.70479742 144.65487153 132.10154724 135.14717102 C132.10154724 131.84717102 132.10154724 128.54717102 132.10154724 125.14717102 C121.54154724 125.14717102 110.98154724 125.14717102 100.10154724 125.14717102 C98.78154724 129.43717102 97.46154724 133.72717102 96.10154724 138.14717102 C91.20851378 143.81864162 85.73976671 144.82233 78.60154724 145.45967102 C72.95673407 144.95566984 68.77162766 143.44612245 64.28904724 139.95967102 C58.28317599 132.23783655 58.61174945 124.11851997 58.66404724 114.70967102 C58.63407654 112.80218079 58.63407654 112.80218079 58.60350037 110.8561554 C58.60797693 102.22087138 59.52975854 95.50028849 65.10154724 88.70967102 C70.00989559 84.87502387 75.25868408 83.68602744 81.44529724 84.42842102 C85.77230179 85.29382193 89.69915378 86.23083377 93.10154724 89.14717102 C96.4869553 94.27263147 97.58237983 99.07050137 99.10154724 105.14717102 C109.99154724 105.14717102 120.88154724 105.14717102 132.10154724 105.14717102 C132.10154724 90.95905211 129.11403272 80.92932875 119.51560974 70.40888977 C108.57448539 60.08153581 93.47344251 57.16512458 78.91404724 56.83467102 C62.94971882 57.33765671 45.91971082 60.65463081 34.41404724 72.64717102 Z M-24.89845276 113.14717102 C-25.22845276 114.46717102 -25.55845276 115.78717102 -25.89845276 117.14717102 C-24.75257175 118.5203419 -24.75257175 118.5203419 -21.66383362 118.26069641 C-20.2303115 118.26053733 -18.79678363 118.25484509 -17.36329651 118.24482727 C-16.61004593 118.24341232 -15.85679535 118.24199738 -15.08071899 118.24053955 C-12.66575716 118.23492478 -10.25088675 118.22236985 -7.83595276 118.20967102 C-6.20249055 118.20465792 -4.5690269 118.20009468 -2.93556213 118.19599915 C1.07684309 118.18495056 5.08917965 118.16767608 9.10154724 118.14717102 C9.43154724 117.15717102 9.76154724 116.16717102 10.10154724 115.14717102 C9.60654724 114.15717102 9.60654724 114.15717102 9.10154724 113.14717102 C-2.11845276 113.14717102 -13.33845276 113.14717102 -24.89845276 113.14717102 Z M145.10154724 113.14717102 C144.77154724 114.46717102 144.44154724 115.78717102 144.10154724 117.14717102 C145.24742825 118.5203419 145.24742825 118.5203419 148.33616638 118.26069641 C149.7696885 118.26053733 151.20321637 118.25484509 152.63670349 118.24482727 C153.38995407 118.24341232 154.14320465 118.24199738 154.91928101 118.24053955 C157.33424284 118.23492478 159.74911325 118.22236985 162.16404724 118.20967102 C163.79750945 118.20465792 165.4309731 118.20009468 167.06443787 118.19599915 C171.07684309 118.18495056 175.08917965 118.16767608 179.10154724 118.14717102 C179.10154724 116.49717102 179.10154724 114.84717102 179.10154724 113.14717102 C167.88154724 113.14717102 156.66154724 113.14717102 145.10154724 113.14717102 Z M-17.89845276 158.14717102 C-20.53755781 160.78627607 -19.21749978 167.91607738 -19.24855042 171.49067688 C-19.26496242 172.870733 -19.29205319 174.2507095 -19.33058167 175.63032532 C-19.58366269 184.74674382 -18.93252473 191.43076077 -13.89845276 199.14717102 C-13.34157776 200.05467102 -12.78470276 200.96217102 -12.21095276 201.89717102 C-5.74945929 208.18402953 1.15436126 211.25846238 10.06472778 211.29434204 C11.89616585 211.305075 11.89616585 211.305075 13.76460266 211.31602478 C15.11479161 211.31886484 16.46498084 211.32157659 17.81517029 211.32417297 C19.23956466 211.33044073 20.66395741 211.33708781 22.08834839 211.34408569 C26.76330941 211.36509318 31.43827064 211.3754857 36.11326599 211.38545227 C37.72523834 211.38950121 39.33721051 211.39361817 40.94918251 211.39780235 C48.52413387 211.41684758 56.09907553 211.43107942 63.67404622 211.43941432 C72.40549883 211.44918143 81.13669757 211.47548987 89.86806077 211.51591522 C96.62491621 211.54612051 103.38169906 211.56088741 110.13862067 211.56419533 C114.17040616 211.56654098 118.20192024 211.57543773 122.23363304 211.60065651 C126.02993403 211.62401953 129.8257865 211.62813779 133.62214088 211.61789513 C135.01001609 211.61740163 136.39791399 211.62366693 137.78572083 211.63745117 C149.24871301 211.74487078 156.93923759 209.82219197 165.37889099 201.93623352 C173.78681178 193.20419787 173.37692907 184.16760969 173.22654724 172.70967102 C173.2175238 171.4057843 173.20850037 170.10189758 173.19920349 168.75849915 C173.17573121 165.5545327 173.14289451 162.35094838 173.10154724 159.14717102 C171.1555145 158.55647088 171.1555145 158.55647088 169.10154724 158.14717102 C167.43525886 159.8134594 167.93353889 161.85403852 167.89060974 164.14326477 C167.86225037 165.17773743 167.83389099 166.21221008 167.80467224 167.2780304 C167.75342316 169.44714759 167.70892098 171.61643691 167.67185974 173.7858429 C167.38828352 183.37426399 166.29115578 192.29112705 159.24473476 199.30928707 C151.76182898 205.72623019 142.6476196 205.72098649 133.2575531 205.64888 C131.8913823 205.65267123 130.52521536 205.65817785 129.15905762 205.66525269 C125.47717857 205.67911888 121.79577146 205.66810112 118.11391902 205.65154147 C114.24509181 205.63760426 110.3762896 205.64416075 106.50744629 205.64767456 C100.01391572 205.65036955 93.52057074 205.63696146 87.02708435 205.61372375 C79.53795898 205.58710722 72.04914349 205.58537312 64.55998701 205.59711212 C57.33046405 205.60791984 50.10105232 205.60168013 42.87153816 205.58755684 C39.80596322 205.58182407 36.74047039 205.58185822 33.67489433 205.58662224 C30.06072448 205.59142169 26.44689068 205.5811688 22.83278465 205.55966759 C20.88681515 205.55151965 18.94080144 205.55791837 16.99482727 205.56486511 C8.59517656 205.49411478 1.87467849 204.63886147 -5.21095276 199.95967102 C-10.68187178 194.23429065 -12.9570963 187.79130312 -13.21485901 179.94795227 C-13.27770081 178.13520813 -13.27770081 178.13520813 -13.34181213 176.2858429 C-13.38112854 175.02320618 -13.42044495 173.76056946 -13.46095276 172.45967102 C-13.50413635 171.18543274 -13.54731995 169.91119446 -13.59181213 168.5983429 C-13.69800136 165.44806251 -13.80004809 162.29770263 -13.89845276 159.14717102 C-15.8444855 158.55647088 -15.8444855 158.55647088 -17.89845276 158.14717102 Z " fill="currentColor" transform="translate(38.89845275878906,-0.1471710205078125)"/>
</svg>
