<?xml version="1.0" encoding="UTF-8"?>
<svg version="1.1" xmlns="http://www.w3.org/2000/svg" width="100%" height="100%" viewBox="0 0 292 175">
<path d="M0 0 C1.27331854 -0.00576172 1.27331854 -0.00576172 2.57236069 -0.01163983 C3.96392568 -0.01034011 3.96392568 -0.01034011 5.3836031 -0.00901413 C6.37297393 -0.01198525 7.36234476 -0.01495637 8.38169652 -0.01801753 C11.70642197 -0.02670892 15.03111144 -0.02821316 18.35584736 -0.02970505 C20.73589372 -0.03433293 23.11593933 -0.03935755 25.49598408 -0.04475021 C31.96928425 -0.05787963 38.44257753 -0.06435708 44.91588855 -0.06876087 C48.95966615 -0.07152508 53.00344138 -0.07576279 57.04721737 -0.08026505 C68.24812355 -0.09245721 79.44902782 -0.10275623 90.64994049 -0.10614014 C91.36666548 -0.1063597 92.08339047 -0.10657927 92.8218344 -0.10680549 C93.54025523 -0.10702377 94.25867606 -0.10724204 94.99886721 -0.10746694 C96.4546119 -0.1079104 97.91035658 -0.10835696 99.36610126 -0.10880661 C100.08819785 -0.10902804 100.81029444 -0.10924947 101.55427275 -0.10947761 C113.2491468 -0.11342379 124.94395848 -0.13087254 136.63880845 -0.15416613 C148.65214286 -0.17790044 160.66544599 -0.19034295 172.67880422 -0.19150805 C179.42124028 -0.19242371 186.16359509 -0.19814836 192.90600872 -0.21632767 C199.24991295 -0.23280425 205.59366306 -0.23496572 211.93758106 -0.22618866 C214.26395359 -0.22541805 216.59033439 -0.22976407 218.91668606 -0.23964691 C222.0970851 -0.25236376 225.27693807 -0.24649061 228.45733356 -0.23606491 C229.37388995 -0.24412132 230.29044633 -0.25217772 231.23477715 -0.26047826 C239.97209354 -0.19367658 248.31291513 1.90623642 254.73792744 8.13142776 C261.80468275 16.94044764 263.03703089 24.43593665 263.02845478 35.51155472 C263.035172 36.75618484 263.04188923 38.00081497 263.04881001 39.28316116 C263.06452457 42.68626909 263.07116338 46.08913291 263.07244158 49.49226022 C263.07386653 51.62209182 263.07814265 53.75189811 263.08343601 55.8817234 C263.10192124 63.32264064 263.1101086 70.76348638 263.10853291 78.20442581 C263.1073322 85.12319584 263.12842425 92.04165357 263.16002023 98.96034461 C263.18623623 104.91471193 263.19689797 110.86897757 263.19562209 116.82340211 C263.19511397 120.37337151 263.2007129 123.92306324 263.22197819 127.47297478 C263.24507432 131.43647783 263.2358071 135.39955799 263.22376728 139.36311722 C263.23500629 140.52757874 263.24624531 141.69204025 263.2578249 142.89178848 C263.18165452 152.7808612 260.55271675 160.05920315 253.79652119 167.33845901 C245.58917256 174.48679491 236.48099485 175.28073247 226.06847858 175.27859879 C225.10063893 175.28227547 224.13279927 175.28595216 223.13563114 175.28974026 C219.89555457 175.30074504 216.65551011 175.30461551 213.41541767 175.30842972 C211.0908266 175.3146968 208.76623652 175.32134382 206.44164753 175.32834244 C198.80994581 175.3493566 191.17824395 175.35974257 183.54652119 175.36970901 C180.9161964 175.3737576 178.28587172 175.37787455 175.65554714 175.3820591 C164.71192022 175.39892397 153.76829536 175.41355835 142.82465744 175.42080784 C139.98804886 175.42271751 137.15144028 175.42463788 134.31483173 175.42659378 C133.60986846 175.42707752 132.90490519 175.42756126 132.1785794 175.42805966 C120.76780719 175.43635365 109.35714001 175.46168232 97.94641363 175.49417446 C86.21324006 175.52731057 74.48011977 175.54526247 62.74689919 175.54845208 C56.16641467 175.55079932 49.58609631 175.55971775 43.00565624 175.58491325 C36.81106025 175.60824867 30.61673917 175.61240502 24.42211056 175.60215187 C22.15546344 175.60165773 19.88880252 175.60794192 17.62219715 175.62170792 C-11.80999942 175.79038097 -11.80999942 175.79038097 -21.60972881 166.19783401 C-26.63473914 159.91360124 -29.37138577 152.98567457 -29.40924358 144.97894669 C-29.41997654 143.41688995 -29.41997654 143.41688995 -29.43092632 141.82327652 C-29.43361523 140.6860968 -29.43630413 139.54891708 -29.43907452 138.37727737 C-29.44564571 137.17516617 -29.45221691 135.97305496 -29.45898724 134.73451614 C-29.47871824 130.75093205 -29.49038885 126.76738823 -29.50035381 122.78377151 C-29.50440373 121.40834471 -29.50852072 120.03291809 -29.5127039 118.65749168 C-29.53174974 112.19098784 -29.54597924 105.72449533 -29.55431587 99.25796884 C-29.56407134 91.81526766 -29.59034881 84.37286521 -29.63081676 76.93026918 C-29.66108143 71.16445678 -29.67579469 65.39872949 -29.67909688 59.63283926 C-29.68143656 56.19565368 -29.69025361 52.75878743 -29.71555805 49.3216877 C-29.739989 45.47799903 -29.73897631 41.63508294 -29.73204327 37.79133987 C-29.74485332 36.66832977 -29.75766338 35.54531967 -29.77086163 34.38827896 C-29.70480125 24.2933528 -27.42750737 15.32109677 -20.32847881 7.85408401 C-14.54086051 3.02924531 -7.55112896 0.01286244 0 0 Z M-9.76207256 22.94392776 C-14.46854825 29.36060537 -14.5484196 37.0108832 -14.38707256 44.63142776 C-14.37804913 45.45384964 -14.36902569 46.27627151 -14.35972881 47.12361526 C-14.33644122 49.12634859 -14.30058215 51.1289293 -14.26207256 53.13142776 C-12.94207256 53.46142776 -11.62207256 53.79142776 -10.26207256 54.13142776 C-10.22468975 52.93646683 -10.18730694 51.74150589 -10.14879131 50.51033401 C-9.31589312 28.7933694 -9.31589312 28.7933694 -2.26207256 22.13142776 C3.31582633 19.19912369 7.7889531 18.69939802 14.0297823 18.74374771 C14.94483447 18.73836217 15.85988665 18.73297664 16.80266768 18.7274279 C19.85796735 18.71316103 22.912833 18.72024898 25.96815205 18.72737503 C28.16307644 18.72167082 30.35799787 18.71470637 32.55291462 18.7065773 C38.5074356 18.68863681 44.46180928 18.68981596 50.41634917 18.69551969 C55.38909897 18.69861013 60.36182041 18.6925207 65.33456618 18.68648094 C77.73683991 18.67163163 90.13904155 18.67525169 102.54131401 18.68734425 C113.30229717 18.69727626 124.06310838 18.68433499 134.82406502 18.66041005 C145.88490596 18.63600445 156.94566294 18.62681422 168.00652987 18.63306278 C174.21179293 18.63643363 180.41691391 18.63400856 186.6221571 18.61681175 C192.45728396 18.60134635 198.29208244 18.60529402 204.12719631 18.6241169 C206.26692994 18.6278038 208.40668788 18.6246914 210.54639912 18.61423111 C213.47100722 18.60102684 216.39452733 18.61256416 219.31908894 18.63022232 C220.58433121 18.61581481 220.58433121 18.61581481 221.87513393 18.60111624 C227.60646142 18.67214727 231.9352558 19.9445377 236.73792744 23.13142776 C242.68043345 29.23031552 243.08721306 35.3160978 243.36292744 43.44392776 C243.40159931 44.37527542 243.44027119 45.30662308 243.48011494 46.26619339 C243.57399057 48.55441183 243.65967253 50.84263072 243.73792744 53.13142776 C245.05792744 53.13142776 246.37792744 53.13142776 247.73792744 53.13142776 C247.85571844 49.81923545 247.92569898 46.50759285 247.98792744 43.19392776 C248.03820087 41.80464066 248.03820087 41.80464066 248.08948994 40.38728714 C248.19666457 32.75109446 246.75509824 26.72444031 241.77308369 20.79158401 C241.12210712 20.26435745 240.47113056 19.73713089 239.80042744 19.19392776 C239.152029 18.64865433 238.50363056 18.10338089 237.83558369 17.54158401 C232.51030427 13.96164757 227.80661737 13.83984224 221.58614826 13.8572731 C220.19987398 13.84941808 220.19987398 13.84941808 218.78559417 13.84140438 C215.68738613 13.8263973 212.58934316 13.82569906 209.49110126 13.82503128 C207.27016133 13.81741019 205.04922404 13.80898278 202.82828999 13.7998085 C196.79297806 13.77784958 190.7577168 13.76906251 184.72236943 13.76398206 C180.95077713 13.76033963 177.17919813 13.75410011 173.40761089 13.74698067 C162.95641684 13.72752412 152.50523075 13.71101184 142.05401802 13.70810413 C141.38556149 13.70791656 140.71710496 13.70772899 140.02839218 13.70753574 C138.67337684 13.7071695 137.3183615 13.7068058 135.96334616 13.70644463 C135.29075242 13.70626182 134.61815867 13.70607901 133.9251833 13.70589066 C132.91505488 13.70561983 132.91505488 13.70561983 131.88451984 13.70534354 C120.97924122 13.70180391 110.07416032 13.67479379 99.16895024 13.63739277 C87.96127455 13.59926341 76.75369358 13.5803869 65.54594153 13.57964462 C59.25781502 13.57885194 52.96994353 13.57011699 46.68187618 13.54164696 C40.76466089 13.51545576 34.84791185 13.51326746 28.93066502 13.5293026 C26.76273614 13.53111631 24.59478041 13.52443346 22.42690945 13.50848389 C4.47952886 13.09390581 4.47952886 13.09390581 -9.76207256 22.94392776 Z M69.23011494 62.70955276 C63.66205112 69.77303944 63.39603001 77.34006501 63.42542744 86.00642776 C63.40931416 86.94873245 63.39320087 87.89103714 63.37659931 88.86189651 C63.37144512 96.31486282 64.49849221 102.69762709 68.61292744 109.00642776 C74.83303689 115.22653722 81.29446044 115.42510476 89.65687275 115.45051956 C96.77532515 115.32485212 100.89674431 113.89582216 106.05042744 108.88142776 C112.7401738 97.97961888 112.97354831 85.01444496 110.49183369 72.74470901 C108.86136756 67.09298965 106.23051113 63.29564304 101.61292744 59.69392776 C92.39961232 54.68669129 76.78681721 54.80046541 69.23011494 62.70955276 Z M127.92542744 63.63142776 C121.29570281 72.5905151 121.72190404 85.95999594 123.20667744 96.44002151 C124.53163567 102.7572331 126.4039812 108.17505029 131.73792744 112.13142776 C136.77348374 114.73200739 140.97692978 115.65492737 146.67542744 115.56892776 C147.37836933 115.56135452 148.08131123 115.55378128 148.80555439 115.54597855 C156.2687551 115.30872167 160.25940733 113.49979142 165.55042744 108.44392776 C170.19498894 101.41073464 171.22786632 94.43256957 171.11292744 86.13142776 C171.124529 85.29353714 171.13613056 84.45564651 171.14808369 83.59236526 C171.11282417 75.99981624 169.46416382 68.25803049 164.73792744 62.13142776 C153.79832572 53.92672648 138.02753603 54.65177568 127.92542744 63.63142776 Z M186.73792744 65.13142776 C182.75916873 71.95215698 182.53351501 78.17712791 182.48792744 85.88142776 C182.46730244 86.73736526 182.44667744 87.59330276 182.42542744 88.47517776 C182.38112802 95.78458171 183.46469513 103.33412612 188.48792744 109.00642776 C188.93652119 109.54009964 189.38511494 110.07377151 189.84730244 110.62361526 C194.97518459 114.71320723 200.25434732 115.66507475 206.67542744 115.56892776 C207.37764423 115.56207962 208.07986103 115.55523148 208.80335712 115.54817581 C215.80944024 115.33096446 220.03941716 113.82993804 225.05042744 108.81892776 C231.8709993 97.95653554 232.24900143 85.02145028 229.61292744 72.69392776 C228.13835421 67.52603092 226.11915144 63.38113731 221.73792744 60.13142776 C216.39755721 57.33283671 212.15656297 56.6607296 206.17542744 56.75642776 C205.08198017 56.73902542 205.08198017 56.73902542 203.96644306 56.72127151 C196.49194768 56.76163783 191.64072043 59.43358726 186.73792744 65.13142776 Z M8.73792744 58.13142776 C7.32673722 60.9538082 7.40806144 63.52270634 7.20277119 66.67049026 C7.11575947 67.97244339 7.02874775 69.27439651 6.93909931 70.61580276 C6.85111632 71.99600521 6.76322691 73.37621363 6.67542744 74.75642776 C6.58402343 76.14447452 6.49223135 77.53249579 6.40003681 78.92049026 C6.17550605 82.32390394 5.95497568 85.72753003 5.73792744 89.13142776 C7.31878792 89.49647379 8.90276651 89.84803282 10.48792744 90.19392776 C11.36964619 90.39115433 12.25136494 90.58838089 13.15980244 90.79158401 C17.34945829 91.34385683 19.22975907 90.47020668 22.73792744 88.13142776 C29.6800762 87.47027074 29.6800762 87.47027074 33.23792744 89.69392776 C35.32185561 93.08031105 35.29594841 95.22528094 34.73792744 99.13142776 C33.23792744 101.56892776 33.23792744 101.56892776 30.73792744 103.13142776 C27.95702729 103.68418865 25.51631294 103.70764324 22.73792744 103.13142776 C19.76934587 100.92402096 18.90926953 99.64545404 17.73792744 96.13142776 C13.11792744 96.13142776 8.49792744 96.13142776 3.73792744 96.13142776 C3.73792744 102.68313651 4.6165388 105.29909959 8.73792744 110.13142776 C16.52582634 116.19834008 26.32221086 116.01475291 35.73792744 115.13142776 C42.1997186 113.59499644 46.0685283 110.57992952 49.73792744 105.13142776 C52.26160943 100.68494044 52.26985713 96.11612377 51.73792744 91.13142776 C49.99405736 85.07917278 46.85234973 81.5952865 41.73792744 78.13142776 C36.22577871 76.29404486 29.1359972 76.08773491 23.55042744 77.80330276 C21.7822559 78.66024281 21.7822559 78.66024281 19.73792744 80.13142776 C20.06792744 77.16142776 20.39792744 74.19142776 20.73792744 71.13142776 C29.64792744 71.13142776 38.55792744 71.13142776 47.73792744 71.13142776 C47.73792744 66.84142776 47.73792744 62.55142776 47.73792744 58.13142776 C34.86792744 58.13142776 21.99792744 58.13142776 8.73792744 58.13142776 Z M-18.26207256 86.13142776 C-18.26207256 87.45142776 -18.26207256 88.77142776 -18.26207256 90.13142776 C-13.97207256 90.13142776 -9.68207256 90.13142776 -5.26207256 90.13142776 C-5.26207256 88.81142776 -5.26207256 87.49142776 -5.26207256 86.13142776 C-9.55207256 86.13142776 -13.84207256 86.13142776 -18.26207256 86.13142776 Z M238.73792744 86.13142776 C239.06792744 87.45142776 239.39792744 88.77142776 239.73792744 90.13142776 C243.69792744 90.13142776 247.65792744 90.13142776 251.73792744 90.13142776 C251.73792744 88.81142776 251.73792744 87.49142776 251.73792744 86.13142776 C247.44792744 86.13142776 243.15792744 86.13142776 238.73792744 86.13142776 Z M-13.26207256 121.13142776 C-15.59851837 123.46787358 -14.51176254 129.84056855 -14.51304913 133.1226387 C-14.40107577 141.6767245 -12.77264017 148.36130185 -7.26207256 155.13142776 C-0.41374596 160.61008905 6.54425359 161.43004859 14.99181843 161.39212418 C15.90278705 161.39594972 16.81375568 161.39977527 17.75232941 161.40371674 C20.79373065 161.41400553 23.83494164 161.41006243 26.87635517 161.40608597 C29.06142571 161.41043469 31.24649472 161.41561838 33.43156147 161.42157364 C39.35919821 161.43495693 45.28677117 161.43554309 51.21442008 161.43301034 C56.16479634 161.43194027 61.11515972 161.43682488 66.06553322 161.44161576 C78.41203493 161.45334245 90.75850132 161.45248716 103.10500545 161.44605895 C113.15105386 161.44121126 123.19702174 161.44978663 133.24305439 161.46760941 C144.92056954 161.48825249 156.59802859 161.49870805 168.27556282 161.49503392 C174.45285852 161.49322107 180.63007091 161.49585763 186.80735302 161.50974846 C192.61616289 161.52232218 198.42479069 161.52038685 204.23359776 161.50733757 C206.3636573 161.50497134 208.49372965 161.50770812 210.62377453 161.51596069 C213.53507828 161.52642563 216.44577084 161.5183293 219.3570528 161.50564957 C220.61645865 161.51671099 220.61645865 161.51671099 221.90130705 161.52799588 C229.63355821 161.45731833 236.38229714 159.4434114 242.0748415 153.98469925 C247.92904291 147.46102882 248.27611682 139.94304607 247.98792744 131.56892776 C247.96988056 130.56023636 247.95183369 129.55154495 247.93323994 128.51228714 C247.88657993 126.05097171 247.82114314 123.59173205 247.73792744 121.13142776 C246.41792744 121.13142776 245.09792744 121.13142776 243.73792744 121.13142776 C243.72390888 122.02281448 243.72390888 122.02281448 243.70960712 122.93220901 C243.65539751 125.66607422 243.57185465 128.39831976 243.48792744 131.13142776 C243.47374775 132.06599808 243.45956806 133.00056839 243.44495869 133.96345901 C243.18429739 141.41837203 241.73322814 147.13612706 236.36292744 152.50642776 C230.57518415 156.08931647 225.28593806 156.42195235 218.6802187 156.39212418 C217.7782716 156.39594972 216.87632451 156.39977527 215.94704568 156.40371674 C212.93017715 156.41402073 209.91349985 156.41005951 206.89661884 156.40608597 C204.73139997 156.41043389 202.56618264 156.4156173 200.4009676 156.42157364 C194.5228567 156.43496652 188.6448101 156.43554195 182.76668692 156.43301034 C177.85861136 156.43194079 172.95054882 156.43682363 168.04247606 156.44161576 C156.46275985 156.45271204 144.88307608 156.45314772 133.30335712 156.44710159 C121.35979431 156.44106135 109.41634929 156.4533739 97.47280657 156.47467166 C87.21616223 156.49228844 76.95955539 156.49828888 66.70289648 156.49503392 C60.5781235 156.49322098 54.45343454 156.49585836 48.32867527 156.50974846 C42.56830392 156.52232326 36.80811615 156.52038583 31.04774761 156.50733757 C28.93542704 156.50497147 26.82309355 156.50770767 24.71078777 156.51596069 C21.82351364 156.52642683 18.93685564 156.51832831 16.04960346 156.50564957 C15.21709934 156.51302385 14.38459522 156.52039814 13.52686369 156.52799588 C6.81950791 156.46618869 1.39179512 155.13657224 -4.07457256 151.00642776 C-10.65762277 142.35441892 -9.93625634 131.54631174 -10.26207256 121.13142776 C-11.25207256 121.13142776 -12.24207256 121.13142776 -13.26207256 121.13142776 Z " fill="currentColor" transform="translate(29.262072563171387,-0.13142776489257813)"/>
<path d="M0 0 C3.81829621 3.68663082 4.03454039 8.10377999 4.16796875 13.1796875 C4.17984536 14.74476015 4.18621501 16.30988282 4.1875 17.875 C4.19974609 18.65230469 4.21199219 19.42960937 4.22460938 20.23046875 C4.23714551 25.20313706 3.72206346 29.31813996 2 34 C-0.1875 36.0625 -0.1875 36.0625 -3 37 C-9.16781293 36.05914718 -9.16781293 36.05914718 -11.375 33.25 C-13.95761834 23.95257398 -14.98036655 11.05378714 -11 2 C-7.41354177 -1.38721055 -4.61963843 -1.50640384 0 0 Z " fill="currentColor" transform="translate(121,68)"/>
<path d="M0 0 C1.93084565 1.58605179 2.88290172 2.76580344 4 5 C4.27037128 9.09858275 4.23163672 13.20601043 4.25 17.3125 C4.270625 18.45396484 4.29125 19.59542969 4.3125 20.77148438 C4.31765625 21.87427734 4.3228125 22.97707031 4.328125 24.11328125 C4.3374707 25.12173096 4.34681641 26.13018066 4.35644531 27.16918945 C3.93885564 30.48559513 2.98855543 32.33230432 1 35 C-1.875 36.5 -1.875 36.5 -5 37 C-8.22792731 35.75284627 -9.5996505 34.82187091 -11.12182617 31.69702148 C-12.58598849 27.2003295 -12.32792139 22.75368542 -12.3125 18.0625 C-12.32861328 17.08603516 -12.34472656 16.10957031 -12.36132812 15.10351562 C-12.36502034 9.65750227 -12.11660504 5.67871758 -9 1 C-5.87920959 -1.39260598 -3.66563335 -1.22187778 0 0 Z " fill="currentColor" transform="translate(180,68)"/>
<path d="M0 0 C4.81818365 4.98432791 4.21458972 10.76106679 4.25 17.25 C4.270625 18.17941406 4.29125 19.10882813 4.3125 20.06640625 C4.34505163 25.8199073 3.86294136 29.95961028 1 35 C-1.875 36.625 -1.875 36.625 -5 37 C-7.86347917 35.8285767 -9.45189024 34.85811797 -11.12402344 32.24023438 C-12.2071326 29.47027628 -12.2589257 27.25382468 -12.265625 24.28125 C-12.26820313 23.18425781 -12.27078125 22.08726563 -12.2734375 20.95703125 C-12.26570312 19.81621094 -12.25796875 18.67539063 -12.25 17.5 C-12.25773438 16.35917969 -12.26546875 15.21835938 -12.2734375 14.04296875 C-12.27085937 12.94597656 -12.26828125 11.84898438 -12.265625 10.71875 C-12.26224121 9.21731445 -12.26224121 9.21731445 -12.25878906 7.68554688 C-11.99395205 4.93723824 -11.46821085 3.31712275 -10 1 C-6.62069707 -1.5344772 -3.94734591 -1.17580516 0 0 Z " fill="currentColor" transform="translate(240,68)"/>
</svg>
