<?xml version="1.0" encoding="UTF-8"?>
<svg version="1.1" xmlns="http://www.w3.org/2000/svg" width="100%" height="100%" viewBox="0 0 233 229">
<path d="M0 0 C0.68763453 -0.00453111 1.37526907 -0.00906223 2.08374101 -0.01373065 C4.36956197 -0.02631004 6.65514269 -0.02475849 8.94099426 -0.02310181 C10.5875631 -0.02909121 12.23412915 -0.03589771 13.88069153 -0.04345703 C18.34169937 -0.06108497 22.80263042 -0.06581113 27.26366973 -0.0670886 C30.05535852 -0.06851289 32.84702796 -0.0727878 35.63871193 -0.07808304 C45.39134072 -0.09657464 55.14391493 -0.10475498 64.89656067 -0.10317993 C73.96528194 -0.10197965 83.03376478 -0.12306193 92.10242575 -0.15466726 C99.90567358 -0.18088631 107.70884383 -0.19154483 115.51213533 -0.19026911 C120.16489541 -0.18976102 124.81744361 -0.19535922 129.47015953 -0.21662521 C133.85090254 -0.23610204 138.23123367 -0.23606808 142.61199188 -0.22159195 C144.21145803 -0.21951422 145.81095059 -0.22414236 147.41037178 -0.23631287 C160.9870087 -0.33285395 172.71159693 1.41727856 182.82307434 11.26742554 C190.7560153 19.96349057 193.92767197 29.37361659 193.97024536 41.05162048 C193.97392205 41.70911016 193.97759874 42.36659984 193.98138684 43.04401344 C193.99234619 45.23380801 193.99625426 47.42355501 194.00007629 49.6133728 C194.0063469 51.1892054 194.01299423 52.76503654 194.01998901 54.34086609 C194.04096421 59.50517765 194.05138663 64.66948927 194.06135559 69.83383179 C194.06540587 71.61721245 194.06952287 73.40059296 194.07370567 75.18397331 C194.09274453 83.56623758 194.10697719 91.94849313 194.11531764 100.33077484 C194.12507951 109.98018481 194.15137705 119.62936476 194.19181854 129.27869374 C194.22206476 136.75411717 194.23679463 144.22947498 194.24009866 151.70495838 C194.24243979 156.16160527 194.25127717 160.61800607 194.27655983 165.07458687 C194.29999452 169.27309421 194.30401262 173.4711961 194.29379845 177.66975212 C194.29330666 179.20107759 194.29952019 180.73242408 194.31335449 182.26368713 C194.44237288 197.40521235 191.83600439 208.98389943 181.13166809 220.00961304 C173.95252769 226.70570223 165.57847033 229.38140603 155.92425537 229.41459656 C155.23031144 229.41827325 154.53636751 229.42194993 153.82139498 229.42573804 C151.49634502 229.43674987 149.1713398 229.4406145 146.8462677 229.44442749 C145.17881631 229.45069417 143.51136632 229.45734115 141.84391785 229.46434021 C136.36692779 229.48536355 130.88993751 229.49574287 125.41291809 229.50570679 C123.52486723 229.50975537 121.63681651 229.51387233 119.74876595 229.51805687 C110.8752777 229.53710692 102.00179774 229.55133679 93.12829298 229.55966884 C82.89984362 229.56943261 72.67161117 229.59573045 62.4432382 229.63616973 C54.52882424 229.66638169 46.61447226 229.68114264 38.70000178 229.68444985 C33.97735214 229.68679507 29.25493427 229.69568619 24.53234673 229.72091103 C20.0843628 229.74428498 15.6367617 229.74838773 11.18873215 229.73814964 C9.56304077 229.73765639 7.93732996 229.74391435 6.31169701 229.75770569 C-6.5375319 229.86054674 -17.36208 228.2625698 -27.17692566 219.26742554 C-37.00098384 209.58012919 -39.34567178 198.61561604 -39.45348108 185.12485099 C-39.4592929 182.99215605 -39.4555719 180.85959563 -39.45158386 178.72689819 C-39.45593891 177.17840837 -39.46112469 175.62992069 -39.46707153 174.08143616 C-39.48038751 169.90157927 -39.4810485 165.72181321 -39.47850823 161.54193926 C-39.47743348 158.04073379 -39.48233474 154.53954632 -39.48711365 151.03834474 C-39.49818325 142.77224321 -39.49866063 134.50618713 -39.49259949 126.24008179 C-39.48656135 117.73880208 -39.49887249 109.23768795 -39.52016956 100.73643649 C-39.53783524 93.412955 -39.54377911 86.08952598 -39.54053181 78.76602399 C-39.53872672 74.40286524 -39.54127732 70.03982461 -39.55524635 65.67668533 C-39.56790127 61.57090801 -39.56580888 57.4653872 -39.55283546 53.35961342 C-39.55048672 51.8617411 -39.55314255 50.36385029 -39.56145859 48.86599922 C-39.63324612 34.91913869 -38.15120076 21.86907632 -28.29020691 11.23226929 C-20.24010061 3.78315324 -11.02676275 0.0301891 0 0 Z M-12.17692566 28.26742554 C-18.64831982 37.6991383 -19.46741955 46.00862728 -19.30192566 57.20492554 C-19.29290222 58.36572632 -19.28387878 59.5265271 -19.27458191 60.72250366 C-19.25113728 63.57102662 -19.21832087 66.41911632 -19.17692566 69.26742554 C-17.85692566 69.92742554 -16.53692566 70.58742554 -15.17692566 71.26742554 C-12.91958437 69.43528314 -12.91958437 69.43528314 -12.93742371 66.72055054 C-12.93782654 65.66351929 -12.93822937 64.60648804 -12.93864441 63.51742554 C-12.92253113 62.35082397 -12.90641785 61.18422241 -12.88981628 59.98226929 C-12.87310314 57.53700836 -12.8675966 55.09164094 -12.87419128 52.64633179 C-12.74270304 44.90124978 -11.84163106 38.64186083 -7.17692566 32.26742554 C1.85258299 24.2956622 11.44720053 23.9703418 22.99690247 24.00863647 C24.30195236 24.00513184 25.60700226 24.0016272 26.95159912 23.99801636 C30.51150461 23.98894412 34.07129341 23.99241515 37.63120079 23.99877453 C41.36837946 24.0038614 45.10554857 23.99913564 48.84272766 23.9960022 C55.11695639 23.99237036 61.39113794 23.99714108 67.6653595 24.00668335 C74.9044722 24.0175664 82.14347221 24.01404027 89.38258219 24.00303054 C95.6138246 23.99393534 101.84503321 23.99268329 108.07628012 23.99790788 C111.79097431 24.00101532 115.50561566 24.00147078 119.2203064 23.9948349 C123.3633535 23.9879499 127.50620834 23.99751058 131.64924622 24.00863647 C132.87026535 24.00458801 134.09128448 24.00053955 135.3493042 23.99636841 C144.60839812 24.04236143 152.02830107 25.02094353 159.82307434 30.26742554 C167.27413519 37.9254603 167.27284513 45.91819241 167.38557434 56.07992554 C167.41989154 58.52407274 167.46242733 60.96812298 167.51448059 63.41195679 C167.53297058 65.02614502 167.53297058 65.02614502 167.55183411 66.67294312 C167.56466112 69.42884575 167.56466112 69.42884575 169.82307434 71.26742554 C170.81307434 71.26742554 171.80307434 71.26742554 172.82307434 71.26742554 C174.94182372 67.02992678 174.09723579 61.48422606 174.13557434 56.82992554 C174.16457825 55.69103882 174.19358215 54.5521521 174.22346497 53.37875366 C174.30179284 42.82859191 172.260423 33.79609213 164.82307434 25.99008179 C158.47887247 20.52564229 152.19093209 18.15389635 143.90458679 18.12025452 C142.0879377 18.10952156 142.0879377 18.10952156 140.23458862 18.09857178 C138.89543178 18.0957317 137.55627465 18.09301995 136.21711731 18.09042358 C134.80419753 18.0841557 133.39127939 18.07750861 131.97836304 18.07051086 C127.34067424 18.04950237 122.70298525 18.0391098 118.06526184 18.02914429 C116.46569425 18.02509519 114.86612684 18.02097822 113.2665596 18.0167942 C105.74873735 17.99774765 98.23092488 17.98351688 90.71308315 17.97518224 C82.05069016 17.96541888 73.38855331 17.93912082 64.72625053 17.89868134 C58.0211837 17.86845946 51.31619003 17.85370752 44.61105645 17.85040122 C40.61109612 17.84805719 36.6114096 17.83918185 32.61152267 17.81394005 C28.84394479 17.7905483 25.0768188 17.78647016 21.30918694 17.79670143 C19.28099555 17.79742776 17.25282653 17.77841389 15.22473145 17.75863647 C4.56921815 17.81888797 -4.93859204 19.92118371 -12.17692566 28.26742554 Z M24.82307434 61.26742554 C24.82307434 96.57742554 24.82307434 131.88742554 24.82307434 168.26742554 C43.10713684 168.32930054 43.10713684 168.32930054 61.76057434 168.39242554 C65.59416565 168.41063354 69.42775696 168.42884155 73.3775177 168.44760132 C76.84615147 168.4542946 76.84615147 168.4542946 80.31478882 168.45831299 C81.84690516 168.4613626 83.37901703 168.46835153 84.91110229 168.47857666 C103.65049117 168.62061052 103.65049117 168.62061052 119.61604309 159.59555054 C125.39415955 153.14688723 127.82307434 146.91631019 127.82307434 138.26742554 C127.0986745 129.92550866 125.1687768 124.46443011 119.01057434 118.57992554 C115.63945867 116.13421417 112.6934646 114.73817384 108.82307434 113.26742554 C111.08358522 111.52857102 113.28071978 110.00452284 115.76057434 108.57992554 C120.49577739 105.00436405 123.76389981 100.1747804 124.82307434 94.26742554 C125.49963329 85.04280451 124.59152602 78.54113309 118.76057434 71.14242554 C112.93479462 64.79934614 106.23018389 62.26231084 97.82307434 61.26742554 C95.32555416 61.18430178 92.82612406 61.1495693 90.32722473 61.15390015 C89.60279143 61.15377961 88.87835814 61.15365908 88.13197231 61.15353489 C85.81152601 61.15427499 83.49116233 61.16186158 81.17073059 61.16976929 C79.72830748 61.17124151 78.28588384 61.17226049 76.84346008 61.17282104 C71.52415663 61.17804144 66.20486466 61.1920027 60.88557434 61.20492554 C48.98494934 61.22555054 37.08432434 61.24617554 24.82307434 61.26742554 Z M-24.17692566 113.26742554 C-24.7676258 115.21345828 -24.7676258 115.21345828 -25.17692566 117.26742554 C-24.04184758 118.62954374 -24.04184758 118.62954374 -21.03410339 118.38095093 C-19.64289868 118.38079186 -18.25168805 118.3751006 -16.86051941 118.36508179 C-15.76393761 118.36295937 -15.76393761 118.36295937 -14.64520264 118.36079407 C-12.30156934 118.35517962 -9.95803027 118.34262475 -7.61442566 118.32992554 C-6.02914058 118.32491239 -4.443854 118.32034917 -2.85856628 118.31625366 C1.03535044 118.3052055 4.9291964 118.28793125 8.82307434 118.26742554 C9.41377448 116.32139279 9.41377448 116.32139279 9.82307434 114.26742554 C8.68799626 112.90530733 8.68799626 112.90530733 5.68025208 113.15390015 C4.28904737 113.15405921 2.89783673 113.15975047 1.50666809 113.16976929 C0.77561356 113.17118423 0.04455902 113.17259918 -0.70864868 113.17405701 C-3.05228198 113.17967145 -5.39582105 113.19222632 -7.73942566 113.20492554 C-9.32471074 113.20993868 -10.90999732 113.21450191 -12.49528503 113.21859741 C-16.38920176 113.22964557 -20.28304771 113.24691982 -24.17692566 113.26742554 Z M145.82307434 113.26742554 C145.2323742 115.21345828 145.2323742 115.21345828 144.82307434 117.26742554 C145.95815242 118.62954374 145.95815242 118.62954374 148.96589661 118.38095093 C150.35710132 118.38079186 151.74831195 118.3751006 153.13948059 118.36508179 C154.23606239 118.36295937 154.23606239 118.36295937 155.35479736 118.36079407 C157.69843066 118.35517962 160.04196973 118.34262475 162.38557434 118.32992554 C163.97085942 118.32491239 165.556146 118.32034917 167.14143372 118.31625366 C171.03535044 118.3052055 174.9291964 118.28793125 178.82307434 118.26742554 C179.41377448 116.32139279 179.41377448 116.32139279 179.82307434 114.26742554 C178.68799626 112.90530733 178.68799626 112.90530733 175.68025208 113.15390015 C174.28904737 113.15405921 172.89783673 113.15975047 171.50666809 113.16976929 C170.77561356 113.17118423 170.04455902 113.17259918 169.29135132 113.17405701 C166.94771802 113.17967145 164.60417895 113.19222632 162.26057434 113.20492554 C160.67528926 113.20993868 159.09000268 113.21450191 157.50471497 113.21859741 C153.61079824 113.22964557 149.71695229 113.24691982 145.82307434 113.26742554 Z M-17.17692566 158.26742554 C-20.27581396 161.36631384 -19.47129958 164.60717712 -19.49919128 168.84164429 C-19.49596863 169.9721521 -19.49274597 171.10265991 -19.48942566 172.26742554 C-19.50553894 173.36699585 -19.52165222 174.46656616 -19.53825378 175.59945679 C-19.54453699 186.19294834 -17.86924643 195.52526252 -10.17692566 203.26742554 C-3.92541312 208.22894343 1.81583519 211.50296407 9.92428589 211.54830933 C11.15069794 211.55972961 12.37710999 211.5711499 13.64068604 211.58291626 C14.99192769 211.58540669 16.34316981 211.58765694 17.69441223 211.58969116 C19.12394214 211.59895474 20.55346714 211.60900504 21.98298645 211.61978149 C25.86146977 211.64597183 29.73988392 211.65890904 33.61844182 211.66780281 C36.045955 211.67367608 38.47344954 211.68188808 40.90095329 211.69081116 C48.5084798 211.71815132 56.11596338 211.73748707 63.7235356 211.74521494 C72.48170622 211.75416217 81.23925035 211.78919555 89.99723059 211.84721613 C96.78133971 211.8905865 103.56527351 211.91063087 110.34951967 211.91329718 C114.39437163 211.91538438 118.43863433 211.92700522 122.48333931 211.9629364 C126.29461535 211.99613513 130.1048669 212.00009745 133.91623688 211.98265839 C135.30609082 211.98112987 136.69600253 211.98964038 138.08571434 212.00957489 C148.4863543 212.14987423 156.98796559 210.26827559 165.05508518 203.35453033 C171.49198643 196.89354284 174.02510736 188.46573726 174.21369934 179.50570679 C174.18753593 177.19678543 174.14046371 174.88801155 174.07307434 172.57992554 C174.05502747 171.38947632 174.03698059 170.1990271 174.01838684 168.97250366 C173.97175924 166.06993522 173.90633715 163.16913443 173.82307434 160.26742554 C171.84307434 159.27742554 171.84307434 159.27742554 169.82307434 158.26742554 C167.14341378 160.94708609 167.57061267 162.31122998 167.54963684 166.05258179 C167.52901184 167.22369507 167.50838684 168.39480835 167.48713684 169.60140991 C167.46138235 172.05967592 167.44298337 174.51803156 167.43244934 176.97640991 C167.27627397 184.91966256 166.61804143 191.7774915 161.33259583 198.03085327 C153.33705776 205.62379627 143.67182697 205.7064263 133.18440247 205.65560913 C131.82823262 205.65968185 130.47206609 205.66502764 129.11590576 205.67153931 C125.45677635 205.68513566 121.79790264 205.67994634 118.13876915 205.67040205 C114.29529038 205.66276536 110.45183236 205.66986213 106.60835266 205.67456055 C100.15596111 205.68000649 93.70367284 205.6728571 87.251297 205.65853882 C79.8093483 205.6422145 72.36764625 205.64750383 64.92570353 205.66401803 C58.51692051 205.67766613 52.10821141 205.67953637 45.69941854 205.67170203 C41.88016821 205.66704372 38.06103351 205.66634958 34.24179077 205.67631149 C30.64981195 205.6850275 27.0581487 205.67887562 23.46620369 205.66162872 C21.5321406 205.65582053 19.59805057 205.66463973 17.66400146 205.67401123 C8.38976438 205.60689433 0.27262776 204.6395978 -6.68693542 198.03036499 C-12.81419126 190.78066577 -12.82065142 182.29137339 -12.92692566 173.20492554 C-12.97139832 171.33417358 -12.97139832 171.33417358 -13.01676941 169.42562866 C-13.08694866 166.37283127 -13.13990376 163.32077468 -13.17692566 160.26742554 C-14.49692566 159.60742554 -15.81692566 158.94742554 -17.17692566 158.26742554 Z " fill="currentColor" transform="translate(39.17692565917969,-0.267425537109375)"/>
<path d="M0 0 C4.20031967 -0.0919778 8.39713073 -0.1715554 12.59765625 -0.21972656 C14.02551121 -0.23980982 15.45328425 -0.26708252 16.88085938 -0.30175781 C18.93640368 -0.35042669 20.99085855 -0.37299967 23.046875 -0.390625 C24.28276367 -0.41157227 25.51865234 -0.43251953 26.79199219 -0.45410156 C30.57972804 0.08206196 31.72209677 0.99050995 34 4 C34.53125 6.18359375 34.53125 6.18359375 34.5 8.4375 C34.5103125 9.17871094 34.520625 9.91992188 34.53125 10.68359375 C33.76906969 14.00692409 32.41380263 15.60190329 30 18 C26.79199219 18.56762695 26.79199219 18.56762695 23.046875 18.48828125 C22.05654266 18.47766914 22.05654266 18.47766914 21.04620361 18.46684265 C18.94629508 18.43894727 16.84909621 18.37623287 14.75 18.3125 C13.3229553 18.28741017 11.89586862 18.26459817 10.46875 18.24414062 C6.97729431 18.19339272 3.49166283 18.09557471 0 18 C0 12.06 0 6.12 0 0 Z " fill="currentColor" transform="translate(98,125)"/>
<path d="M0 0 C4.06290008 -0.08095816 8.12418567 -0.14048645 12.1875 -0.1875 C13.91323242 -0.22520508 13.91323242 -0.22520508 15.67382812 -0.26367188 C17.34155273 -0.27817383 17.34155273 -0.27817383 19.04296875 -0.29296875 C20.06414795 -0.3086792 21.08532715 -0.32438965 22.13745117 -0.34057617 C26.08450477 0.12903063 28.85611691 1.59614348 31.375 4.6875 C32.31955108 8.18233901 32.31924321 11.60576622 31 15 C28.36078282 17.56353857 26.72039879 18.88927016 23.0456543 19.45410156 C21.4510437 19.42268066 21.4510437 19.42268066 19.82421875 19.390625 C18.66728516 19.37773438 17.51035156 19.36484375 16.31835938 19.3515625 C15.12017578 19.31804687 13.92199219 19.28453125 12.6875 19.25 C10.8612207 19.22292969 10.8612207 19.22292969 8.99804688 19.1953125 C5.99836045 19.1482586 2.99907948 19.07651797 0 19 C0 12.73 0 6.46 0 0 Z " fill="currentColor" transform="translate(98,84)"/>
</svg>
