<?xml version="1.0" encoding="UTF-8"?>
<svg version="1.1" xmlns="http://www.w3.org/2000/svg" width="100%" height="100%" viewBox="0 0 233 229">
<path d="M0 0 C0.70140547 -0.00438225 1.40281094 -0.00876451 2.12547112 -0.01327956 C4.47582141 -0.02663391 6.82613423 -0.03283891 9.17651367 -0.03897095 C10.862047 -0.04687478 12.54757864 -0.05514391 14.23310852 -0.06375122 C19.77021678 -0.08994631 25.30733248 -0.10527981 30.84448242 -0.11953735 C32.75356043 -0.12489872 34.66263839 -0.13027623 36.57171631 -0.13566971 C44.51712388 -0.15729782 52.46252944 -0.17603174 60.40795898 -0.1872921 C71.77701374 -0.20351246 83.14572573 -0.23664455 94.5146513 -0.29369295 C102.51740102 -0.33247356 110.5200594 -0.35193459 118.52290058 -0.35721266 C123.29761909 -0.36085598 128.07197179 -0.37276783 132.84658813 -0.4053154 C137.34469822 -0.43553799 141.8422239 -0.44165767 146.34041405 -0.42993164 C147.98343276 -0.42971206 149.6264797 -0.43792023 151.26940346 -0.45558548 C164.86555408 -0.59371262 175.76197405 1.81721198 185.83666992 11.56796265 C195.77168792 23.27077744 196.33503248 36.76948793 196.29077148 51.43490601 C196.29348658 52.95546129 196.2970504 54.47601526 196.3013916 55.99656677 C196.31045706 60.09992132 196.30699541 64.20317454 196.30063343 68.30653071 C196.2955421 72.61751866 196.30027363 76.92849838 196.30340576 81.23948669 C196.3070367 88.47781926 196.30226965 95.71611091 196.29272461 102.95443726 C196.28184586 111.30006344 196.28536495 119.64559184 196.29637742 127.99121565 C196.30548012 135.17964857 196.30672091 142.36805222 196.30150008 149.55648905 C196.29839621 153.8396617 196.29792713 158.12278854 196.30457306 162.40595818 C196.31038929 166.43535963 196.30627212 170.46463618 196.29478455 174.49402428 C196.29216051 175.96490014 196.292864 177.43578669 196.29730988 178.90665817 C196.3379634 193.73390672 195.37761562 206.70748568 184.84448242 217.96640015 C173.51568958 228.61772365 160.84834258 229.45484635 146.04418945 229.42855835 C144.42378506 229.43291046 142.80338271 229.43809527 141.1829834 229.44404602 C136.79860465 229.45739384 132.41431233 229.45801938 128.02991724 229.45548272 C124.36210691 229.4544101 120.69431387 229.45930383 117.02650726 229.46408814 C108.36930214 229.47516883 99.71214041 229.47562889 91.05493164 229.46957397 C82.14126184 229.46353529 73.22774993 229.47584584 64.31410706 229.49714404 C56.64505293 229.51479071 48.97604892 229.52075656 41.30697525 229.5175063 C36.73370115 229.51569812 32.16053969 229.51828297 27.58728409 229.53222084 C23.28455709 229.54484449 18.98207527 229.54281242 14.67935181 229.52980995 C13.10646352 229.52745444 11.53355774 229.53014184 9.96068954 229.53843307 C-3.7664208 229.60553812 -15.38421584 227.76910169 -25.97583008 218.37265015 C-33.68661495 210.227925 -37.08085092 200.45517848 -37.10845947 189.3938446 C-37.11143059 188.72692555 -37.11440172 188.0600065 -37.11746287 187.37287778 C-37.126112 185.14533137 -37.12765491 182.91783895 -37.12915039 180.6902771 C-37.1337813 179.09002061 -37.13880633 177.48976522 -37.14419556 175.88951111 C-37.15729645 171.54629947 -37.16376016 167.20310327 -37.16820621 162.85987496 C-37.17114105 160.14359789 -37.17524666 157.427325 -37.17971039 154.71105003 C-37.19338007 146.20437875 -37.20304896 137.69771707 -37.20691228 129.19103557 C-37.21138999 119.3865471 -37.2289268 109.58219825 -37.25791287 99.77775222 C-37.2795647 92.18944462 -37.28961845 84.60117621 -37.2909534 77.01283807 C-37.29199904 72.4853393 -37.29785531 67.95797187 -37.31577301 63.43050575 C-37.33231404 59.16804994 -37.33438009 54.90582336 -37.325634 50.64334679 C-37.32486681 49.08496866 -37.32916412 47.52657789 -37.33909225 45.9682312 C-37.42833966 31.07812831 -34.91447265 20.5382367 -24.71801758 9.40390015 C-17.69657981 2.67958335 -9.50457385 0.04215107 0 0 Z M-11.96801758 30.15390015 C-15.69438235 36.22060377 -17.09929359 41.32338531 -17.06567383 48.45077515 C-17.06245117 49.65604858 -17.05922852 50.86132202 -17.0559082 52.1031189 C-17.0475293 53.35737671 -17.03915039 54.61163452 -17.03051758 55.90390015 C-17.02600586 57.17362671 -17.02149414 58.44335327 -17.0168457 59.7515564 C-17.00506314 62.88571851 -16.98861174 66.01978556 -16.96801758 69.15390015 C-15.31801758 69.48390015 -13.66801758 69.81390015 -11.96801758 70.15390015 C-10.6247408 67.46734659 -10.82369853 65.33902058 -10.79223633 62.33358765 C-10.76838867 61.15796265 -10.74454102 59.98233765 -10.7199707 58.77108765 C-10.67740854 56.29990242 -10.6459399 53.82849822 -10.6262207 51.35702515 C-10.4315371 43.0444879 -9.51742159 37.27810642 -4.03833008 30.91171265 C-3.07540039 30.10347046 -3.07540039 30.10347046 -2.09301758 29.27890015 C-1.4562207 28.72460327 -0.81942383 28.1703064 -0.16333008 27.59921265 C4.32172349 24.64641937 8.78537936 23.90371698 14.0770874 23.88647461 C15.8599968 23.87367966 15.8599968 23.87367966 17.67892456 23.86062622 C18.96944733 23.86153259 20.25997009 23.86243896 21.58959961 23.8633728 C22.9732601 23.85738318 24.35691726 23.85057663 25.74057007 23.84301758 C29.48871854 23.82539218 33.2367756 23.8206636 36.98496151 23.81938601 C39.33055247 23.81796162 41.6761204 23.81368653 44.02170563 23.80839157 C52.21590136 23.78990109 60.41003214 23.78171952 68.60424805 23.78329468 C76.22394418 23.78449506 83.8433566 23.76341067 91.46298099 23.73180735 C98.01948073 23.70558954 104.57588814 23.69492972 111.13243985 23.6962055 C115.04181226 23.69671362 118.95093252 23.69111432 122.86025238 23.6698494 C126.54087928 23.65037435 130.22101594 23.65040496 133.90166092 23.66488266 C135.882107 23.66794483 137.86255362 23.65135841 139.84292603 23.63400269 C147.85326768 23.69000684 155.69368912 24.30777601 161.93989182 29.84536171 C169.30518959 37.65099986 169.53060203 45.80011682 169.71948242 56.09140015 C169.75364258 57.34759155 169.78780273 58.60378296 169.82299805 59.89804077 C169.90511356 62.98323801 169.97438541 66.06816399 170.03198242 69.15390015 C171.688129 69.53608782 173.35655267 69.86785116 175.03198242 70.15390015 C177.51692814 67.66895442 176.21752044 60.9892615 176.21948242 57.65390015 C176.23172852 56.58913452 176.24397461 55.5243689 176.2565918 54.42733765 C176.27656927 43.58623007 174.97812353 35.69915288 168.03198242 27.15390015 C160.55834336 19.68026109 152.98007121 17.70660136 142.63101196 17.60067749 C141.2816753 17.60685781 139.93234053 17.61346366 138.58300781 17.62045288 C137.13978701 17.61338358 135.69657363 17.60463433 134.25337219 17.59434509 C130.35654094 17.57195423 126.46011782 17.57476646 122.56324697 17.58366656 C119.30047429 17.58879792 116.03777687 17.58146654 112.77501196 17.57419449 C105.07324757 17.55722817 97.37168148 17.56072819 89.66992188 17.57748413 C81.74504194 17.5944034 73.82071294 17.57856648 65.89589316 17.54626125 C59.07179144 17.51950498 52.24786059 17.51230554 45.42371172 17.52077633 C41.35674744 17.52568789 37.29011445 17.52358668 33.22319221 17.50298882 C29.39712914 17.48453616 25.57185404 17.49070559 21.74583244 17.51518822 C20.34871685 17.52016594 18.9515402 17.51678594 17.55447388 17.50403976 C5.31575561 17.40128565 -4.25572403 20.1853505 -11.96801758 30.15390015 Z M59.03198242 61.15390015 C58.5862085 62.39623413 58.14043457 63.63856812 57.68115234 64.91854858 C55.52909665 70.91432527 53.37464865 76.9092409 51.21948242 82.90390015 C50.62564255 84.55594452 50.62564255 84.55594452 50.01980591 86.24136353 C45.26022718 99.47702708 40.47645312 112.70343145 35.64135742 125.91171265 C34.98814262 127.69629883 34.98814262 127.69629883 34.32173157 129.51693726 C32.20611694 135.29402955 30.08705377 141.06983675 27.96435547 146.84432983 C27.1939061 148.94490736 26.42347851 151.04549287 25.65307617 153.14608765 C25.29973206 154.10427399 24.94638794 155.06246033 24.58233643 156.04968262 C24.25948669 156.93082733 23.93663696 157.81197205 23.60400391 158.71981812 C23.32298325 159.48389984 23.04196259 160.24798157 22.75242615 161.03521729 C22.07034833 163.04107358 21.5458312 165.09850504 21.03198242 167.15390015 C32.58198242 167.15390015 44.13198242 167.15390015 56.03198242 167.15390015 C58.7928891 159.76831588 58.7928891 159.76831588 60.03198242 152.15390015 C78.34698242 152.64890015 78.34698242 152.64890015 97.03198242 153.15390015 C98.35198242 157.44390015 99.67198242 161.73390015 101.03198242 166.15390015 C102.18866743 167.5381108 102.18866743 167.5381108 105.35839844 167.26742554 C106.83423799 167.26726644 108.31008311 167.26157329 109.78588867 167.2515564 C110.5613353 167.25014145 111.33678192 167.2487265 112.13572693 167.24726868 C114.62201737 167.2416536 117.10821903 167.22909861 119.59448242 167.21640015 C121.27612175 167.21138709 122.95776248 167.20682384 124.6394043 167.20272827 C128.77029808 167.19167928 132.90112518 167.17440459 137.03198242 167.15390015 C135.60901581 159.85573426 133.34799937 153.12998429 130.73510742 146.17733765 C130.30919312 145.02899445 129.88327881 143.88065125 129.44445801 142.69750977 C128.29839167 139.60949192 127.14747333 136.52333736 125.99449158 133.43789673 C124.080709 128.3103775 122.18087636 123.17765588 120.27896881 118.04572296 C119.80136543 116.75726346 119.32353602 115.46888772 118.84548187 114.1805954 C113.79399738 100.56682342 108.88213565 86.90485725 104.03295898 73.21786499 C103.7643103 72.46274628 103.49566162 71.70762756 103.21887207 70.92962646 C102.72455336 69.53992201 102.23260455 68.14937127 101.74353027 66.7578125 C100.80486424 63.71563321 100.80486424 63.71563321 99.03198242 61.15390015 C96.07492922 61.06521716 93.14133186 61.03869719 90.18432617 61.0562439 C89.29789932 61.05765884 88.41147247 61.05907379 87.4981842 61.06053162 C84.65524988 61.06614799 81.81239311 61.07870323 78.96948242 61.09140015 C77.04695751 61.09641304 75.12443138 61.10097631 73.2019043 61.10507202 C68.47856693 61.11612274 63.75528784 61.13339832 59.03198242 61.15390015 Z M-21.96801758 112.15390015 C-22.35020525 113.81004672 -22.6819686 115.47847039 -22.96801758 117.15390015 C-21.29605781 118.82585991 -19.25911129 118.28175183 -17.02711487 118.29284668 C-15.99432655 118.28981033 -15.99432655 118.28981033 -14.94067383 118.28671265 C-14.23655869 118.28766937 -13.53244354 118.2886261 -12.80699158 118.28961182 C-11.31484895 118.29029356 -9.82270337 118.28843967 -8.33056641 118.28427124 C-6.0436334 118.27893077 -3.7568975 118.28421225 -1.4699707 118.2906189 C-0.02270464 118.28995796 1.42456129 118.28867647 2.87182617 118.28671265 C3.90157814 118.28974899 3.90157814 118.28974899 4.95213318 118.29284668 C8.61535067 118.32043274 8.61535067 118.32043274 12.03198242 117.15390015 C12.03198242 115.83390015 12.03198242 114.51390015 12.03198242 113.15390015 C9.07387767 111.67484777 6.07726692 112.03199112 2.83666992 112.0562439 C2.12922638 112.05765884 1.42178284 112.05907379 0.69290161 112.06053162 C-1.56911426 112.06613414 -3.83103156 112.07868697 -6.09301758 112.09140015 C-7.62556823 112.09641483 -9.15812044 112.10097779 -10.69067383 112.10507202 C-14.44982646 112.11610438 -18.2089053 112.13337063 -21.96801758 112.15390015 Z M148.03198242 112.15390015 C147.64979475 113.81004672 147.3180314 115.47847039 147.03198242 117.15390015 C148.70394219 118.82585991 150.74088871 118.28175183 152.97288513 118.29284668 C154.00567345 118.28981033 154.00567345 118.28981033 155.05932617 118.28671265 C155.76344131 118.28766937 156.46755646 118.2886261 157.19300842 118.28961182 C158.68515105 118.29029356 160.17729663 118.28843967 161.66943359 118.28427124 C163.9563666 118.27893077 166.2431025 118.28421225 168.5300293 118.2906189 C169.97729536 118.28995796 171.42456129 118.28867647 172.87182617 118.28671265 C173.90157814 118.28974899 173.90157814 118.28974899 174.95213318 118.29284668 C178.61535067 118.32043274 178.61535067 118.32043274 182.03198242 117.15390015 C182.03198242 115.83390015 182.03198242 114.51390015 182.03198242 113.15390015 C179.07387767 111.67484777 176.07726692 112.03199112 172.83666992 112.0562439 C172.12922638 112.05765884 171.42178284 112.05907379 170.69290161 112.06053162 C168.43088574 112.06613414 166.16896844 112.07868697 163.90698242 112.09140015 C162.37443177 112.09641483 160.84187956 112.10097779 159.30932617 112.10507202 C155.55017354 112.11610438 151.7910947 112.13337063 148.03198242 112.15390015 Z M-15.96801758 158.15390015 C-18.63284923 160.8187318 -17.25240272 168.45269032 -17.28051758 172.02890015 C-17.30952148 173.2199939 -17.33852539 174.41108765 -17.3684082 175.63827515 C-17.4402778 185.74424602 -15.86130801 195.10131297 -8.66723633 202.6578064 C0.6448642 210.85673629 9.72265071 211.45162391 21.71899414 211.42855835 C23.10442376 211.4329107 24.48985098 211.43809559 25.87527466 211.44404602 C29.62330611 211.45739167 33.37123645 211.45801961 37.11928701 211.45548272 C40.25528236 211.4544099 43.3912575 211.45930436 46.5272485 211.46408814 C53.92972087 211.47516819 61.3321425 211.47562933 68.73461914 211.46957397 C76.35487767 211.46353602 83.97495147 211.47584406 91.59517848 211.49714404 C98.15253047 211.51479479 104.70982384 211.5207559 111.26719868 211.5175063 C115.17703282 211.51569869 119.0867352 211.51827715 122.9965477 211.53222084 C126.67548271 211.54485115 130.35413107 211.54280636 134.03306198 211.52980995 C136.01486721 211.52633948 137.99668141 211.53758395 139.97845459 211.54937744 C150.42075027 211.48818988 159.1489254 209.94839502 166.84838867 202.36483765 C175.5065291 193.00175468 176.20304145 183.76307215 176.15698242 171.40390015 C176.16084961 170.35073608 176.1647168 169.29757202 176.16870117 168.2124939 C176.16741211 167.20831421 176.16612305 166.20413452 176.16479492 165.16952515 C176.16310303 163.79715698 176.16310303 163.79715698 176.16137695 162.39706421 C176.17799408 160.11678766 176.17799408 160.11678766 175.03198242 158.15390015 C173.38198242 158.48390015 171.73198242 158.81390015 170.03198242 159.15390015 C170.01796387 160.31006836 170.01796387 160.31006836 170.00366211 161.48959351 C169.94956584 165.02414821 169.865994 168.55743496 169.78198242 172.09140015 C169.76780273 173.30376343 169.75362305 174.51612671 169.73901367 175.76522827 C169.51082686 184.18532177 168.59512058 190.91071972 163.06713867 197.4937439 C162.41616211 198.02097046 161.76518555 198.54819702 161.09448242 199.09140015 C160.44608398 199.63667358 159.79768555 200.18194702 159.12963867 200.7437439 C154.83142671 203.6332309 151.13457225 204.40532001 145.99324036 204.42805481 C144.7807663 204.43802994 143.56829224 204.44800507 142.31907654 204.45828247 C140.98355116 204.45917818 139.6480256 204.4598418 138.3125 204.46029663 C136.89942997 204.4679222 135.48636408 204.47635039 134.07330322 204.48551941 C130.24039742 204.50743648 126.40757138 204.51625993 122.57460999 204.52134585 C120.17659392 204.52499377 117.77859859 204.5312362 115.38059044 204.53834724 C107.00485699 204.56283537 98.62918538 204.57589154 90.25341797 204.57943726 C82.46271014 204.58306851 74.67239724 204.61293585 66.88181001 204.65484184 C60.18095779 204.68961424 53.48023596 204.70498692 46.77929419 204.70568329 C42.78265266 204.70647397 38.7864133 204.71511491 34.78986549 204.74368095 C31.02628365 204.76998029 27.26343393 204.77200175 23.49980164 204.75602531 C21.47399773 204.75336462 19.44820732 204.77531507 17.42253113 204.79821777 C9.54929818 204.73554608 3.60973329 203.6564969 -2.96801758 199.15390015 C-5.22192383 196.80233765 -5.22192383 196.80233765 -6.53051758 194.52890015 C-6.98555664 193.77350952 -7.4405957 193.0181189 -7.90942383 192.23983765 C-9.8604517 188.39537681 -10.12171843 185.28284462 -10.21411133 181.0249939 C-10.24698242 179.82552124 -10.27985352 178.62604858 -10.3137207 177.39022827 C-10.37501075 174.8538634 -10.43229055 172.31739851 -10.4855957 169.78085327 C-10.53683594 167.98357788 -10.53683594 167.98357788 -10.58911133 166.1499939 C-10.61416748 165.04840942 -10.63922363 163.94682495 -10.66503906 162.81185913 C-10.70613487 160.00080068 -10.70613487 160.00080068 -12.96801758 158.15390015 C-13.95801758 158.15390015 -14.94801758 158.15390015 -15.96801758 158.15390015 Z " fill="currentColor" transform="translate(36.968017578125,-0.153900146484375)"/>
<path d="M0 0 C2 1 2 1 3.14501953 4.17114258 C3.56606187 5.57643628 3.97802116 6.98447061 4.3828125 8.39453125 C4.60194305 9.13829514 4.82107361 9.88205902 5.04684448 10.64836121 C5.50944969 12.22516534 5.96817376 13.80311247 6.42333984 15.38208008 C7.11990992 17.79486892 7.83042186 20.2032155 8.54296875 22.61132812 C8.99042412 24.14298379 9.43706538 25.67487757 9.8828125 27.20703125 C10.09527618 27.92695755 10.30773987 28.64688385 10.52664185 29.3886261 C11.49407025 32.76984845 12 35.44806917 12 39 C4.41 39 -3.18 39 -11 39 C-8.85863278 30.16432705 -6.42638289 21.45664065 -3.8125 12.75 C-3.44447266 11.51636719 -3.07644531 10.28273438 -2.69726562 9.01171875 C-1.80053772 6.00709799 -0.90141389 3.00321756 0 0 Z " fill="currentColor" transform="translate(115,90)"/>
</svg>
