<?xml version="1.0" encoding="UTF-8"?>
<svg version="1.1" xmlns="http://www.w3.org/2000/svg" width="100%" height="100%" viewBox="0 0 162 155">
<path d="M0 0 C0.66 0 1.32 0 2 0 C2.19106827 0.60863892 2.38213654 1.21727783 2.57899475 1.84436035 C11.08980841 30.45602617 11.08980841 30.45602617 30.14941406 51.78527832 C46.23256115 58.19508733 64.89361227 58.29178006 82 58 C80.63156279 61.06805954 79.07872999 63.16621505 76.69946289 65.52758789 C75.69315575 66.53366844 75.69315575 66.53366844 74.66651917 67.56007385 C73.9425444 68.27372604 73.21856964 68.98737823 72.47265625 69.72265625 C71.72793564 70.46454697 70.98321503 71.20643768 70.21592712 71.97080994 C67.83610759 74.33944498 65.44943476 76.70103742 63.0625 79.0625 C61.45852607 80.65643999 59.85500506 82.25083588 58.25195312 83.84570312 C54.71817386 87.35982986 51.18006401 90.86952866 47.63807678 94.37538147 C47.09751144 94.91150558 46.55694611 95.4476297 46 96 C45.42391495 96.45647919 44.8478299 96.91295837 44.25428772 97.38327026 C42.75683515 98.974663 42.75683515 98.974663 42.98764038 101.39735413 C43.15720245 102.34396408 43.32676453 103.29057404 43.50146484 104.26586914 C43.6851059 105.34030777 43.86874695 106.4147464 44.05795288 107.52174377 C44.27343781 108.68116989 44.48892273 109.84059601 44.7109375 111.03515625 C45.02050888 112.8195536 45.02050888 112.8195536 45.33633423 114.63999939 C45.99990579 118.45051257 46.68626319 122.25646175 47.375 126.0625 C48.0529736 129.87262532 48.72613054 133.68349523 49.39224243 137.49571228 C49.80846628 139.87091298 50.23226946 142.24479969 50.66415405 144.61720276 C50.94907211 146.22413246 50.94907211 146.22413246 51.23974609 147.86352539 C51.41089935 148.80933975 51.58205261 149.75515411 51.75839233 150.72962952 C52 153 52 153 51 155 C38.38899188 148.82909619 25.98763533 142.3497875 13.6953125 135.56640625 C12.87579102 135.12055176 12.05626953 134.67469727 11.21191406 134.21533203 C9.37151108 133.20412607 7.55367727 132.15197624 5.7421875 131.08984375 C2.15316967 129.66343923 0.69791884 129.83855979 -3 131 C-6.40376744 132.61392809 -9.66384045 134.4512521 -12.9375 136.3125 C-14.88840045 137.39749365 -16.84025712 138.48076939 -18.79296875 139.5625 C-19.80407715 140.12453125 -20.81518555 140.6865625 -21.85693359 141.265625 C-27.12435332 144.17223909 -32.42989038 147.00374125 -37.75 149.8125 C-38.74378662 150.34593018 -39.73757324 150.87936035 -40.76147461 151.42895508 C-42.1402478 152.15441528 -42.1402478 152.15441528 -43.546875 152.89453125 C-44.35995117 153.32612549 -45.17302734 153.75771973 -46.01074219 154.20239258 C-46.9954248 154.59720825 -46.9954248 154.59720825 -48 155 C-48.66 154.67 -49.32 154.34 -50 154 C-49.8850267 153.3596431 -49.77005341 152.71928619 -49.65159607 152.05952454 C-48.45671602 145.39422056 -47.27459367 138.72674373 -46.09985352 132.05786133 C-45.65976492 129.56932496 -45.21642684 127.08136097 -44.76977539 124.59399414 C-44.12832109 121.01854641 -43.49858191 117.44120297 -42.87109375 113.86328125 C-42.66906845 112.75165115 -42.46704315 111.64002106 -42.25889587 110.4947052 C-42.07863358 109.45400375 -41.89837128 108.41330231 -41.71264648 107.34106445 C-41.55054184 106.4283931 -41.38843719 105.51572174 -41.22142029 104.57539368 C-40.84292985 100.17307861 -41.36826773 97.75274953 -44.22265625 94.3515625 C-45.62837891 93.00191406 -45.62837891 93.00191406 -47.0625 91.625 C-47.98160156 90.73039062 -48.90070312 89.83578125 -49.84765625 88.9140625 C-52.0968472 86.80141664 -54.40788857 84.77509155 -56.74609375 82.76171875 C-61.70646186 78.44743165 -66.35127104 73.83265851 -71 69.1875 C-71.87011719 68.32962891 -72.74023438 67.47175781 -73.63671875 66.58789062 C-74.45785156 65.76869141 -75.27898437 64.94949219 -76.125 64.10546875 C-76.87007813 63.36449951 -77.61515625 62.62353027 -78.3828125 61.86010742 C-80 60 -80 60 -80 58 C-79.33316193 57.94196701 -78.66632385 57.88393402 -77.97927856 57.82414246 C-70.98926199 57.19807041 -64.02044376 56.44746964 -57.05078125 55.62573242 C-54.45483496 55.33594862 -51.85521039 55.07725408 -49.25292969 54.85131836 C-35.19019246 54.11420384 -35.19019246 54.11420384 -22.93548584 48.17080688 C-19.53968127 43.7204757 -17.64795016 38.78120531 -15.88287354 33.50863647 C-14.51346442 29.61753596 -12.61831857 26.02895065 -10.7421875 22.36328125 C-10.08668148 21.01453039 -9.43556682 19.66363563 -8.7890625 18.31054688 C-8.47485352 17.6543335 -8.16064453 16.99812012 -7.83691406 16.32202148 C-7.3607666 15.32730835 -7.3607666 15.32730835 -6.875 14.3125 C-6.19823453 12.90544603 -5.52115146 11.49854477 -4.84375 10.09179688 C-3.22554149 6.72959781 -1.61150058 3.36542036 0 0 Z M-12 57 C-12.99 57.33 -13.98 57.66 -15 58 C-15 62.29 -15 66.58 -15 71 C-11.53058454 70.54177532 -8.32604951 70.10868317 -5 69 C-4.67 79.56 -4.34 90.12 -4 101 C-7.63 101 -11.26 101 -15 101 C-15 105.29 -15 109.58 -15 114 C-3.45 114 8.1 114 20 114 C20 109.71 20 105.42 20 101 C17.03 101 14.06 101 11 101 C11 85.49 11 69.98 11 54 C-3.8182421 52.94954854 -3.8182421 52.94954854 -12 57 Z " fill="currentColor" transform="translate(80,0)"/>
</svg>
