<?xml version="1.0" encoding="UTF-8"?>
<svg version="1.1" xmlns="http://www.w3.org/2000/svg" width="100%" height="100%" viewBox="0 0 163 156">
<path d="M0 0 C2.17453304 2.76053669 3.87889609 5.50523043 5.4519043 8.64501953 C5.912155 9.55921661 6.3724057 10.4734137 6.84660339 11.41531372 C7.57802299 12.88422562 7.57802299 12.88422562 8.32421875 14.3828125 C8.83048294 15.39342743 9.33674713 16.40404236 9.85835266 17.44528198 C10.92519592 19.57760946 11.9900255 21.71094544 13.05297852 23.84521484 C14.68624873 27.12248923 16.32803111 30.3953986 17.97070312 33.66796875 C19.00572168 35.7393269 20.04024414 37.81093304 21.07421875 39.8828125 C21.56790451 40.86613556 22.06159027 41.84945862 22.57023621 42.86257935 C23.02103043 43.77047211 23.47182465 44.67836487 23.9362793 45.61376953 C24.53559517 46.81478806 24.53559517 46.81478806 25.14701843 48.04006958 C26 50 26 50 26 52 C26.68537842 52.03665771 27.37075684 52.07331543 28.0769043 52.11108398 C39.07368715 52.8209218 49.91653042 54.46408052 60.8125 56.0625 C62.77663557 56.34739938 64.74082793 56.63190757 66.70507812 56.91601562 C71.47071825 57.60617213 76.23556031 58.30160652 81 59 C81 62.88309022 79.42128402 63.92998741 76.78369141 66.58184814 C76.17444824 67.17874451 75.56520508 67.77564087 74.9375 68.390625 C74.31278809 69.01346375 73.68807617 69.63630249 73.04443359 70.27801514 C71.71621399 71.59950111 70.38439617 72.91737872 69.04931641 74.23193359 C67.02914529 76.22129914 65.01950797 78.22080284 63.01171875 80.22265625 C56.84332882 86.35297919 50.66007906 92.39903114 44 98 C42.7919533 98.97289776 42.7919533 98.97289776 42.99584961 100.77001953 C43.8874496 110.89867494 45.7909989 120.87163913 47.5625 130.875 C48.21447702 134.55906675 48.86082293 138.24405919 49.50390625 141.9296875 C49.65388565 142.76619843 49.80386505 143.60270935 49.95838928 144.46456909 C50.63731946 148.3569756 51.19202833 152.03007758 51 156 C46.54688743 154.33305658 42.3886198 152.22215339 38.171875 150.04296875 C37.04921234 149.46570793 37.04921234 149.46570793 35.90386963 148.87678528 C34.32321325 148.06338999 32.74312603 147.24888783 31.16357422 146.43334961 C28.77324631 145.19949938 26.38092411 143.96958838 23.98828125 142.74023438 C22.44520358 141.94552396 20.90223285 141.15060584 19.359375 140.35546875 C18.61369263 139.97220428 17.86801025 139.58893982 17.09973145 139.19406128 C12.54691361 136.84159295 8.08419556 134.38973005 3.73535156 131.6730957 C1.43060632 130.77914767 0.34203732 131.27948577 -2 132 C-3.25340738 132.55484373 -4.4893709 133.15030703 -5.70776367 133.77832031 C-6.41918015 134.14250061 -7.13059662 134.50668091 -7.86357117 134.88189697 C-9.00424797 135.47402985 -9.00424797 135.47402985 -10.16796875 136.078125 C-10.96221756 136.48657654 -11.75646637 136.89502808 -12.57478333 137.31585693 C-14.25602178 138.1814377 -15.93623032 139.04902141 -17.61547852 139.91845703 C-20.15876319 141.23512287 -22.7050337 142.54585014 -25.25195312 143.85546875 C-26.89080562 144.70017049 -28.52948301 145.54521208 -30.16796875 146.390625 C-30.9182988 146.77728333 -31.66862885 147.16394165 -32.44169617 147.56231689 C-37.07254847 149.96180597 -41.62826242 152.46213015 -46.1464386 155.06829834 C-48 156 -48 156 -50 156 C-48.19336064 142.56036574 -46.0609633 129.20578273 -43.6262207 115.86450195 C-43.41570068 114.68460693 -43.20518066 113.50471191 -42.98828125 112.2890625 C-42.79790283 111.24443848 -42.60752441 110.19981445 -42.41137695 109.12353516 C-41.34065349 102.42278974 -41.34065349 102.42278974 -43.80078125 96.38867188 C-44.62964844 95.59009766 -45.45851562 94.79152344 -46.3125 93.96875 C-47.22386719 93.07542969 -48.13523438 92.18210937 -49.07421875 91.26171875 C-50.04923549 90.34088774 -51.02449731 89.42031618 -52 88.5 C-52.93457031 87.58863281 -53.86914062 86.67726563 -54.83203125 85.73828125 C-59.52198724 81.1926316 -64.31263433 76.79793102 -69.2578125 72.53271484 C-71.78390007 70.31035249 -74.13725732 67.95805855 -76.5 65.5625 C-77.78390625 64.26505859 -77.78390625 64.26505859 -79.09375 62.94140625 C-80.03734375 61.98041016 -80.03734375 61.98041016 -81 61 C-78.48304943 58.48304943 -77.63170086 58.74803664 -74.14916992 58.70507812 C-46.88615511 58.90813333 -46.88615511 58.90813333 -22.55999756 48.98321533 C-13.78163865 39.26683552 -9.28305646 26.09700361 -5.52490234 13.75024414 C-4.06988905 8.97977824 -2.12587013 4.50612185 0 0 Z M-22 66 C-18.83525695 69.25516428 -15.67247209 72.32008793 -12 75 C-11.34 75 -10.68 75 -10 75 C-9.236875 74.21625 -8.47375 73.4325 -7.6875 72.625 C-5.02854172 70.02787796 -3.56712799 68.87003122 0 68 C3.3125 68.375 3.3125 68.375 6 69 C7.2 74.28 7.2 74.28 6.47265625 76.8984375 C4.21608892 80.11868477 1.11035799 81.80898664 -2.1875 83.875 C-3.55520154 84.76544586 -4.92111482 85.65864492 -6.28515625 86.5546875 C-6.93371582 86.97975586 -7.58227539 87.40482422 -8.25048828 87.84277344 C-14.93857711 92.26665581 -19.72361047 97.06935261 -22 105 C-22 108.3 -22 111.6 -22 115 C-6.82 115 8.36 115 24 115 C24 110.71 24 106.42 24 102 C11.13 101.505 11.13 101.505 -2 101 C2.51152555 97.1329781 6.23044637 94.06708321 11.125 91 C16.58618025 87.42528502 20.8721198 84.38364059 23 78 C23.65830977 70.61829697 23.77726784 64.87971426 19 59 C4.92614519 48.57255302 -11.44361386 53.8513098 -22 66 Z " fill="currentColor" transform="translate(81,0)"/>
</svg>
