<?xml version="1.0" encoding="UTF-8"?>
<svg version="1.1" xmlns="http://www.w3.org/2000/svg" width="100%" height="100%" viewBox="0 0 164 164">
<path d="M0 0 C1.1475325 -0.00525696 2.295065 -0.01051392 3.47737122 -0.01593018 C7.24872685 -0.02907139 11.01965612 -0.02041255 14.79101562 -0.01025391 C17.42460206 -0.01227632 20.05818794 -0.01518915 22.69177246 -0.01895142 C28.20260182 -0.02439371 33.71331015 -0.01725767 39.22412109 -0.00292969 C45.57545277 0.01339399 51.92649543 0.00810439 58.27782011 -0.0084089 C64.41330482 -0.02371633 70.54866242 -0.0220287 76.68415833 -0.0132637 C79.28359518 -0.01126751 81.88303946 -0.01370047 84.48246765 -0.02070236 C88.12001876 -0.02835112 91.75702085 -0.01666379 95.39453125 0 C96.99389275 -0.00910904 96.99389275 -0.00910904 98.62556458 -0.0184021 C108.75264807 0.06721205 115.84279912 2.1702215 123.24804688 9.20068359 C128.48396691 15.076666 130.31007153 21.54217671 130.33770752 29.32597351 C130.34341766 30.2944371 130.34912781 31.2629007 130.35501099 32.26071167 C130.35668777 33.83720993 130.35668777 33.83720993 130.35839844 35.44555664 C130.36336334 36.56163803 130.36832825 37.67771942 130.3734436 38.82762146 C130.388043 42.51838804 130.39486397 46.20911163 130.40039062 49.89990234 C130.40614441 52.46954855 130.41190211 55.03919475 130.41766357 57.60884094 C130.42682585 62.30969966 130.43312837 67.01054126 130.43616033 71.71140736 C130.44063472 78.60901542 130.45815836 85.50642468 130.48716092 92.40397233 C130.51147396 98.39632494 130.51910911 104.38858429 130.52083588 110.38099098 C130.52385542 112.92099908 130.53186024 115.46100649 130.54502106 118.00098228 C130.562154 121.56208551 130.56018319 125.12270971 130.55371094 128.68383789 C130.56292572 129.72471558 130.5721405 130.76559326 130.58163452 131.8380127 C130.52713218 141.45383143 128.92932299 149.55182482 122.16601562 156.63037109 C116.33487884 161.83674322 111.03056588 164.49708815 103.18991089 164.53535461 C101.67617134 164.54608757 101.67617134 164.54608757 100.1318512 164.55703735 C99.03050339 164.55972626 97.92915558 164.56241516 96.79443359 164.56518555 C95.62973038 164.57175674 94.46502716 164.57832794 93.26502991 164.58509827 C89.40650366 164.60482516 85.54801634 164.61649327 81.68945312 164.62646484 C79.71126776 164.63257813 79.71126776 164.63257813 77.69311905 164.63881493 C71.43111487 164.65785852 65.16912239 164.67208926 58.90709484 164.6804269 C51.69813148 164.6901857 44.48947628 164.71647283 37.28062141 164.75692779 C31.69656402 164.78718006 26.11259449 164.8019045 20.52845681 164.80520791 C17.19909823 164.80754878 13.87032963 164.81838264 10.54101181 164.84166908 C6.81924857 164.86608006 3.09828404 164.86509112 -0.62353516 164.8581543 C-1.71273758 164.87096436 -2.80194 164.88377441 -3.92414856 164.89697266 C-13.58434119 164.8315989 -21.2848869 162.55288146 -28.23242188 155.65771484 C-33.47028259 148.08757286 -34.3894027 141.20642167 -34.33618164 132.14233398 C-34.34479721 130.94763992 -34.35341278 129.75294586 -34.36228943 128.52204895 C-34.38100306 125.26973978 -34.38187847 122.01807906 -34.37296796 118.76574636 C-34.36782826 116.03979927 -34.37517464 113.31394188 -34.38244003 110.58800405 C-34.39939288 104.15193142 -34.39592022 97.71609615 -34.37915039 91.2800293 C-34.36223306 84.66386682 -34.37806798 78.04836435 -34.41037327 71.43227392 C-34.43715454 65.72917399 -34.44432232 60.02627842 -34.43585819 54.32312196 C-34.43095371 50.92682928 -34.43300834 47.53093334 -34.45364571 44.13469124 C-34.47113547 40.34378593 -34.45650893 36.5542778 -34.43383789 32.76342773 C-34.44553009 31.65402832 -34.45722229 30.54462891 -34.4692688 29.40161133 C-34.35622161 20.0739364 -31.76013275 13.04635911 -25.05273438 6.45068359 C-18.00317324 0.2133545 -8.94582648 -0.05095026 0 0 Z M-3.80273438 57.38818359 C-5.98121343 57.65395804 -8.12500879 57.70230354 -10.31835938 57.75146484 C-14.09245096 58.71872416 -16.68998374 60.13017582 -18.80273438 63.38818359 C-19.64938415 67.57138231 -19.54923533 71.63565004 -19.42773438 75.88818359 C-19.43417969 77.01611328 -19.440625 78.14404297 -19.44726562 79.30615234 C-19.39187411 85.82853546 -19.39187411 85.82853546 -16.76367188 91.66943359 C-16.1165625 92.23662109 -15.46945313 92.80380859 -14.80273438 93.38818359 C-15.79273438 94.04818359 -16.78273438 94.70818359 -17.80273438 95.38818359 C-17.14273437 96.70818359 -16.48273437 98.02818359 -15.80273438 99.38818359 C-14.19940647 99.46940283 -12.59489411 99.52747493 -10.99023438 99.57568359 C-10.09691406 99.61048828 -9.20359375 99.64529297 -8.28320312 99.68115234 C-5.75486464 99.59531068 -5.75486464 99.59531068 -3.97851562 98.00146484 C-2.60640576 96.45151598 -2.60640576 96.45151598 -2.80273438 94.38818359 C4.4060438 93.0441741 4.4060438 93.0441741 8.07226562 94.63818359 C10.19726562 96.38818359 10.19726562 96.38818359 12.19726562 99.38818359 C14.10310759 99.18442181 14.10310759 99.18442181 16.19726562 98.38818359 C16.63039062 97.72818359 17.06351563 97.06818359 17.50976562 96.38818359 C19.19726562 94.38818359 19.19726562 94.38818359 22.63476562 93.51318359 C27.47100864 93.34349086 27.47100864 93.34349086 30.19726562 95.38818359 C30.83814621 96.40228554 30.83814621 96.40228554 31.49197388 97.43687439 C33.03439058 99.58984925 33.03439058 99.58984925 35.49850464 99.90284729 C36.40053619 99.90904587 37.30256775 99.91524445 38.23193359 99.92163086 C39.25664764 99.93746719 40.28136169 99.95330353 41.33712769 99.96961975 C42.44339508 99.96465988 43.54966248 99.95970001 44.68945312 99.95458984 C45.82754425 99.96078842 46.96563538 99.966987 48.13821411 99.97337341 C50.54737491 99.98048218 52.95658473 99.97727928 55.36572266 99.96459961 C59.05137809 99.95076201 62.73448214 99.98475941 66.41992188 100.02294922 C68.75976625 100.02390064 71.0996138 100.02204034 73.43945312 100.01708984 C74.54167206 100.03034805 75.64389099 100.04360626 76.7795105 100.05726624 C83.02301908 100.06073782 83.02301908 100.06073782 88.24462891 96.91137695 C88.88899902 96.07872314 89.53336914 95.24606934 90.19726562 94.38818359 C93.85760758 93.16806961 95.42147781 93.03555277 98.94726562 94.63818359 C101.19726562 96.38818359 101.19726562 96.38818359 103.19726562 99.38818359 C105.63419873 99.75234406 105.63419873 99.75234406 108.32226562 99.57568359 C109.68738281 99.53507812 109.68738281 99.53507812 111.08007812 99.49365234 C111.77875 99.45884766 112.47742188 99.42404297 113.19726562 99.38818359 C113.52726563 98.06818359 113.85726562 96.74818359 114.19726562 95.38818359 C112.87726563 95.05818359 111.55726563 94.72818359 110.19726562 94.38818359 C110.29007813 93.57478516 110.38289062 92.76138672 110.47851562 91.92333984 C111.14245297 81.38333448 108.09633064 74.46650678 103.04516602 65.40771484 C102.19726562 63.38818359 102.19726562 63.38818359 101.19726562 57.38818359 C92.94726562 57.38818359 84.69726562 57.38818359 76.19726562 57.38818359 C76.19726562 69.59818359 76.19726562 81.80818359 76.19726562 94.38818359 C71.90726562 94.05818359 67.61726563 93.72818359 63.19726562 93.38818359 C64.51726562 92.06818359 65.83726563 90.74818359 67.19726562 89.38818359 C68.61878847 85.12361505 68.42171856 81.04322675 68.44726562 76.57568359 C68.46789062 75.68558594 68.48851563 74.79548828 68.50976562 73.87841797 C68.54070381 68.66146724 68.28332836 64.81571054 65.19726562 60.38818359 C61.36571121 57.59421652 56.88501757 58.07342854 52.34570312 58.04443359 C51.49046051 58.02981079 50.6352179 58.01518799 49.75405884 58.00012207 C46.09986056 57.93789882 42.4454965 57.89814848 38.79101562 57.85644531 C36.12156193 57.82279275 33.45247252 57.77767468 30.78320312 57.73193359 C29.95299652 57.72665649 29.12278992 57.72137939 28.26742554 57.71594238 C22.4229073 57.61382527 22.4229073 57.61382527 20.19726562 55.38818359 C17.90336131 55.07766518 17.90336131 55.07766518 15.25976562 55.12255859 C14.28265625 55.11998047 13.30554687 55.11740234 12.29882812 55.11474609 C11.2753125 55.12248047 10.25179687 55.13021484 9.19726562 55.13818359 C8.17375 55.13044922 7.15023437 55.12271484 6.09570312 55.11474609 C5.11859375 55.11732422 4.14148438 55.11990234 3.13476562 55.12255859 C1.78705078 55.12594238 1.78705078 55.12594238 0.41210938 55.12939453 C-2.00815602 55.18009418 -2.00815602 55.18009418 -3.80273438 57.38818359 Z M-1.74023438 97.51318359 C-3.33263721 100.32330624 -3.25592763 102.21583083 -2.80273438 105.38818359 C-1.38606771 107.97151693 -1.38606771 107.97151693 1.19726562 109.38818359 C4.82376513 109.47734514 4.82376513 109.47734514 8.19726562 108.38818359 C10.5100915 104.91894479 10.62205148 103.46612784 10.19726562 99.38818359 C9.26129247 97.36867298 9.26129247 97.36867298 7.19726562 96.38818359 C2.53228053 95.88269765 2.53228053 95.88269765 -1.74023438 97.51318359 Z M19.38476562 97.57568359 C17.80865245 99.98133002 17.26618982 101.49336751 17.19726562 104.38818359 C18.62577172 107.31969489 18.62577172 107.31969489 21.19726562 109.38818359 C24.19726562 110.22151693 24.19726562 110.22151693 27.19726562 109.38818359 C29.76875953 107.31969489 29.76875953 107.31969489 31.19726562 104.38818359 C31.12834143 101.49336751 30.5858788 99.98133002 29.00976562 97.57568359 C25.8429124 95.50084872 22.55161885 95.50084872 19.38476562 97.57568359 Z M88.75976562 98.57568359 C86.97197285 101.23465698 86.97197285 101.23465698 87.25976562 104.01318359 C88.28988726 106.62282508 88.84671424 107.84816717 91.19726562 109.38818359 C94.15447191 110.05498727 94.15447191 110.05498727 97.19726562 109.38818359 C99.76875953 107.31969489 99.76875953 107.31969489 101.19726562 104.38818359 C101.12834143 101.49336751 100.5858788 99.98133002 99.00976562 97.57568359 C95.12545464 95.03079019 92.10651876 95.57218719 88.75976562 98.57568359 Z " fill="currentColor" transform="translate(33.802734375,-0.38818359375)"/>
<path d="M0 0 C12.43567482 -0.36937648 12.43567482 -0.36937648 14.71875 1.125 C17.67328435 5.44870881 19.72532491 10.29900482 22 15 C14.74 15 7.48 15 0 15 C0 10.05 0 5.1 0 0 Z " fill="currentColor" transform="translate(115,63)"/>
</svg>
