<?xml version="1.0" encoding="UTF-8"?>
<svg version="1.1" xmlns="http://www.w3.org/2000/svg" width="100%" height="100%" viewBox="0 0 164 165">
<path d="M0 0 C1.00074554 -0.0071553 2.00149109 -0.01431061 3.03256226 -0.02168274 C4.12455933 -0.02437164 5.2165564 -0.02706055 6.34164429 -0.02983093 C7.49659393 -0.03640213 8.65154358 -0.04297333 9.8414917 -0.04974365 C13.66755234 -0.06946986 17.49357372 -0.08113853 21.31967163 -0.09111023 C22.62742931 -0.09518576 23.935187 -0.09926128 25.2825737 -0.10346031 C31.49225212 -0.12250376 37.70191875 -0.1367345 43.91162074 -0.14507228 C51.06002473 -0.15483086 58.20811794 -0.18111743 65.35641253 -0.22157317 C70.89376119 -0.25182698 76.43102126 -0.26655003 81.9684509 -0.26985329 C85.26981287 -0.27219397 88.57076848 -0.28302679 91.87205887 -0.30631447 C95.56269113 -0.33072799 99.25251806 -0.32973605 102.94320679 -0.32279968 C104.56298431 -0.34201477 104.56298431 -0.34201477 106.21548462 -0.36161804 C115.94042193 -0.295262 124.07291254 2.18947443 131.03060913 9.14717102 C136.91687357 16.83201627 137.33141758 23.60462852 137.33700562 32.96064758 C137.34532913 34.14514999 137.35365265 35.3296524 137.36222839 36.55004883 C137.38215458 39.78789704 137.39296176 43.0255961 137.39805484 46.26349735 C137.40170833 48.2908215 137.40795355 50.31812129 137.41505623 52.3454361 C137.43952503 59.43088863 137.45259667 66.51626825 137.45614624 73.60176086 C137.45977771 80.1854419 137.48965124 86.7686557 137.53155082 93.35219407 C137.56635325 99.02123028 137.5816964 104.69011239 137.58239228 110.3592546 C137.58318184 113.73775345 137.59177039 117.11577595 137.62038994 120.49416351 C137.64734717 124.26855749 137.64246401 128.04167414 137.62997437 131.81611633 C137.6522258 133.47325905 137.6522258 133.47325905 137.67492676 135.16387939 C137.59446395 143.73472492 135.37169157 150.25686954 129.74935913 156.80342102 C129.01717163 157.41185852 128.28498413 158.02029602 127.53060913 158.64717102 C126.79842163 159.27623352 126.06623413 159.90529602 125.31185913 160.55342102 C117.9873243 165.67056179 109.62231003 165.29898129 101.04330444 165.30830383 C99.39822403 165.31575119 99.39822403 165.31575119 97.71990967 165.323349 C94.09951139 165.33792787 90.47915692 165.34476549 86.85873413 165.35029602 C84.33535766 165.35605094 81.8119812 165.36180863 79.28860474 165.36756897 C74.67468601 165.37672662 70.06078034 165.38303188 65.44685483 165.38606572 C58.67886639 165.39054183 51.91108036 165.40807643 45.14315343 165.43706632 C39.26026166 165.46138098 33.3774368 165.46901452 27.49449921 165.47074127 C25.00193937 165.47376007 22.50938023 165.48176236 20.01685333 165.49492645 C16.522912 165.51206252 13.02945874 165.510088 9.53549194 165.50361633 C8.51488678 165.51283112 7.49428162 165.5220459 6.44274902 165.53153992 C-3.30733484 165.47522932 -12.39490469 163.63947804 -19.55923462 156.58076477 C-26.52552288 148.96724191 -27.41584398 142.26251399 -27.38931274 132.22016907 C-27.39778229 131.03552063 -27.40625183 129.85087219 -27.41497803 128.63032532 C-27.43430697 125.39659769 -27.44012937 122.16322561 -27.43823051 118.92945075 C-27.43811035 116.22101159 -27.44669337 113.51262567 -27.45500803 110.80420142 C-27.47420952 104.40847833 -27.47713827 98.01288573 -27.47036743 91.61714172 C-27.46373287 85.04080239 -27.48657421 78.46502482 -27.52368116 71.88879937 C-27.55447402 66.22397266 -27.56572777 60.55932574 -27.56184435 54.89441711 C-27.55978623 51.51931012 -27.56510866 48.14464025 -27.58973694 44.76961327 C-27.61196153 41.00007947 -27.60220409 37.23188722 -27.58462524 33.46235657 C-27.59788849 32.3591658 -27.61115173 31.25597504 -27.62481689 30.11935425 C-27.53121592 21.44658926 -25.17777475 15.04925953 -19.65689087 8.33467102 C-13.39593713 3.23854588 -8.19128206 0.04031725 0 0 Z M-22.96939087 24.14717102 C-22.99465826 31.39203653 -23.01222267 38.63689076 -23.02432251 45.88179016 C-23.02936443 48.34859136 -23.03619777 50.81538954 -23.04483032 53.28218079 C-23.05690212 56.81921631 -23.06262043 60.35621247 -23.06704712 63.89326477 C-23.0722084 65.00366623 -23.07736969 66.11406769 -23.08268738 67.25811768 C-23.08276291 68.27910049 -23.08283844 69.30008331 -23.08291626 70.352005 C-23.08513687 71.25579391 -23.08735748 72.15958282 -23.08964539 73.09075928 C-23.19839549 75.13970683 -23.19839549 75.13970683 -21.96939087 76.14717102 C-18.93235466 76.38073014 -15.91379745 76.55232096 -12.87173462 76.68232727 C-11.93790955 76.72539505 -11.00408447 76.76846283 -10.04196167 76.81283569 C-6.9971619 76.95083893 -3.95209016 77.08080553 -0.90689087 77.20967102 C0.62951553 77.27695404 0.62951553 77.27695404 2.19696045 77.34559631 C17.15056789 77.99714204 32.06127827 78.43412305 47.03060913 78.14717102 C46.81404663 76.25998352 46.81404663 76.25998352 46.59310913 74.33467102 C46.51189819 73.62697571 46.43068726 72.9192804 46.34701538 72.19013977 C46.05890178 69.95320709 46.05890178 69.95320709 45.03060913 67.14717102 C45.03060913 62.80580393 47.26188698 61.02680352 50.17123413 57.97920227 C52.03060913 56.14717102 52.03060913 56.14717102 53.78451538 54.65498352 C55.4757717 52.96471203 55.4757717 52.96471203 54.71810913 49.20967102 C54.59822632 48.54064758 54.47834351 47.87162415 54.35482788 47.18232727 C54.03060913 45.14717102 54.03060913 45.14717102 54.03060913 41.14717102 C58.98060913 46.09717102 58.98060913 46.09717102 64.03060913 51.14717102 C62.46810913 53.88154602 60.90560913 56.61592102 59.34310913 59.35029602 C57.66324932 62.92999728 57.84849272 65.34834223 58.71810913 69.16279602 C60.33221495 73.14041394 61.74523435 75.34835895 65.03060913 78.14717102 C71.28939821 79.99189928 78.29943566 78.89762166 84.70394897 78.43525696 C90.82869281 78.00269954 96.96428934 77.79246396 103.09877014 77.54655457 C113.08003018 77.14000659 123.05121249 76.63397086 133.03060913 76.14717102 C133.03060913 58.98717102 133.03060913 41.82717102 133.03060913 24.14717102 C123.23841025 24.11762912 123.23841025 24.11762912 113.46859741 24.33076477 C111.80088791 24.39082703 111.80088791 24.39082703 110.0994873 24.45210266 C108.94496063 24.49585022 107.79043396 24.53959778 106.60092163 24.58467102 C104.06836972 24.67582163 101.53581763 24.76696731 99.00326538 24.85810852 C95.07827024 25.00222599 91.15331002 25.1472562 87.22836304 25.29267883 C64.36376853 26.13495308 41.83039467 26.02859428 18.96810913 25.14717102 C-1.99412455 24.28635955 -1.99412455 24.28635955 -22.96939087 24.14717102 Z M55.03060913 79.14717102 C39.71844914 100.93956016 39.71844914 100.93956016 36.03060913 126.14717102 C37.90975026 131.83954006 42.18347461 135.79578799 47.03060913 139.14717102 C52.52383863 140.97824752 58.93143767 141.27644428 64.42123413 139.27607727 C69.55385223 136.28858009 73.90887696 131.91040154 75.63607788 126.11592102 C78.50257563 111.81181344 67.263586 95.53603013 59.63998413 84.05244446 C58.4767904 82.38870975 57.25883982 80.7634885 56.03060913 79.14717102 C55.70060913 79.14717102 55.37060913 79.14717102 55.03060913 79.14717102 Z " fill="currentColor" transform="translate(26.969390869140625,-0.1471710205078125)"/>
</svg>
