<?xml version="1.0" encoding="UTF-8"?>
<svg version="1.1" xmlns="http://www.w3.org/2000/svg" width="100%" height="100%" viewBox="0 0 174 175">
<path d="M0 0 C1.04978531 -0.0071553 2.09957062 -0.01431061 3.1811676 -0.02168274 C4.32769806 -0.02437164 5.47422852 -0.02706055 6.65550232 -0.02983093 C7.8673671 -0.03640213 9.07923187 -0.04297333 10.32781982 -0.04974365 C14.34386951 -0.06947527 18.35987926 -0.08114529 22.3759613 -0.09111023 C23.76253211 -0.0951601 25.14910273 -0.09927709 26.53567314 -0.10346031 C33.05450274 -0.12250628 39.5733211 -0.13673579 46.09217316 -0.14507228 C53.5954338 -0.154828 61.09839812 -0.18110607 68.60155445 -0.22157317 C74.41407558 -0.25183628 80.22651229 -0.26655095 86.0391106 -0.26985329 C89.50424076 -0.27219314 92.96905419 -0.2810124 96.4340992 -0.30631447 C100.30877537 -0.33415034 104.18306913 -0.32973302 108.05784607 -0.32279968 C109.19020691 -0.33560974 110.32256775 -0.3484198 111.48924255 -0.36161804 C120.81593463 -0.30106509 130.29843671 1.53875676 137.25704384 8.21606636 C143.92924883 16.51534693 145.6915599 24.88968917 145.55418396 35.28437805 C145.56148529 36.53803162 145.56878662 37.79168518 145.5763092 39.08332825 C145.5896381 42.48482535 145.57645756 45.88409018 145.54964495 49.28536463 C145.52679701 52.86542806 145.53524742 56.44544294 145.53913879 60.02555847 C145.54089748 66.03227082 145.51889291 72.03852863 145.48191833 78.04512024 C145.43955474 84.96632415 145.43257556 91.88686403 145.44504225 98.80817139 C145.45647253 105.49953577 145.4450905 112.19066895 145.42269516 118.88199997 C145.41346363 121.71510517 145.41162887 124.54806758 145.41586685 127.38118362 C145.42037011 131.34395377 145.39127211 135.30610531 145.35887146 139.26875305 C145.36382629 140.42954376 145.36878113 141.59033447 145.37388611 142.78630066 C145.26675676 151.02909344 143.79441216 157.9159603 138.9853363 164.73310852 C129.14733529 174.17923947 119.4600517 175.29794297 106.25559998 175.29243469 C105.09875198 175.2957933 103.94190399 175.29915192 102.75 175.3026123 C98.92999698 175.31210229 95.11003788 175.31406446 91.2900238 175.31513977 C89.30238326 175.31754109 87.3147427 175.31994422 85.32710248 175.32260019 C79.0786557 175.33073028 72.83022332 175.33318577 66.58177185 175.33247375 C60.15388131 175.33187348 53.72607483 175.3424186 47.29820555 175.35821742 C41.76422776 175.37133035 36.23027731 175.37665607 30.69628412 175.37601835 C27.39790327 175.37576444 24.0996136 175.37948796 20.80124474 175.3891964 C17.11799065 175.39902252 13.43495146 175.39610769 9.75169373 175.39009094 C8.67138885 175.39571045 7.59108398 175.40132996 6.4780426 175.40711975 C-5.72240122 175.35662178 -14.13646496 173.06661812 -23.00294495 164.39717102 C-28.61666703 156.05678392 -29.77639466 148.40758981 -29.69215393 138.49653625 C-29.69755692 137.27082916 -29.7029599 136.04512207 -29.70852661 134.78227234 C-29.71882727 131.44935623 -29.7113878 128.1174473 -29.6948154 124.784621 C-29.68086278 121.28014745 -29.68743639 117.7757011 -29.69094849 114.27120972 C-29.69364225 108.38969097 -29.680246 102.50837728 -29.65699768 96.62690735 C-29.63038069 89.84668272 -29.62864784 83.0668004 -29.64038604 76.2865414 C-29.65119915 69.73724876 -29.64494996 63.1880788 -29.63083076 56.63879585 C-29.62510273 53.8634911 -29.62512833 51.08827708 -29.62989616 48.31297112 C-29.63559469 44.43132143 -29.6162635 40.55000842 -29.59449768 36.66841125 C-29.59899933 35.52893539 -29.60350098 34.38945953 -29.60813904 33.2154541 C-29.50619612 22.23837317 -27.22566609 15.31257398 -19.60450745 7.31904602 C-13.88116466 2.16988973 -7.61197998 0.03570006 0 0 Z M65.80955505 41.14717102 C64.60685974 42.00375305 64.60685974 42.00375305 63.37986755 42.87763977 C62.83739883 43.2626062 62.29493011 43.64757263 61.73602295 44.04420471 C60.53410461 44.90518876 59.33904253 45.77582462 58.15103149 46.65589905 C54.58647919 49.27340815 51.02865318 51.62636847 47.14231873 53.74116516 C38.41322521 58.67471636 38.41322521 58.67471636 32.78562927 66.65263367 C31.47462948 72.51080141 31.54365209 78.31773885 31.84739685 84.28681946 C31.99780319 87.41271959 31.9911131 90.51046345 31.96385193 93.63935852 C31.96316096 104.06530041 31.96316096 104.06530041 36.06980896 113.34468079 C38.86483094 115.67044229 41.62191869 117.40874788 44.80955505 119.14717102 C46.38580914 120.27268472 47.94954542 121.41604507 49.49705505 122.58076477 C50.93150807 123.58642707 52.36895277 124.58783745 53.80955505 125.58467102 C54.54560974 126.09965149 55.28166443 126.61463196 56.0400238 127.1452179 C58.94549185 129.17481169 61.86050626 131.18113849 64.80955505 133.14717102 C67.28455505 132.65217102 67.28455505 132.65217102 69.80955505 132.14717102 C69.80955505 102.77717102 69.80955505 73.40717102 69.80955505 43.14717102 C68.48955505 42.48717102 67.16955505 41.82717102 65.80955505 41.14717102 Z M-4.19044495 69.14717102 C-6.43378668 73.6338545 -5.50163869 80.14123509 -5.5405426 85.12251282 C-5.55708856 86.67539979 -5.58436136 88.22821102 -5.62257385 89.78071594 C-5.67748909 92.02436143 -5.69923632 94.26622427 -5.71388245 96.51045227 C-5.73655182 97.20020645 -5.75922119 97.88996063 -5.78257751 98.60061646 C-5.76561077 102.49310524 -5.29589025 104.01951826 -2.7827301 107.06196594 C0.83072371 109.96858762 2.47651676 110.26988002 7.03611755 110.24482727 C7.96504822 110.24232971 8.89397888 110.23983215 9.85105896 110.23725891 C11.03361267 110.22815491 12.21616638 110.2190509 13.43455505 110.20967102 C17.18830505 110.18904602 20.94205505 110.16842102 24.80955505 110.14717102 C24.80955505 95.29717102 24.80955505 80.44717102 24.80955505 65.14717102 C20.95268005 65.06467102 17.09580505 64.98217102 13.12205505 64.89717102 C11.91460632 64.860755 10.70715759 64.82433899 9.46311951 64.78681946 C1.76207949 64.60654214 1.76207949 64.60654214 -4.19044495 69.14717102 Z M84.05955505 69.33467102 C82.58444151 71.08928663 82.58444151 71.08928663 82.8837738 73.39717102 C84.14376773 77.1399378 86.55738289 79.32772414 89.37205505 81.95967102 C89.89219177 82.46176086 90.41232849 82.96385071 90.94822693 83.4811554 C92.22644076 84.71246229 93.51682652 85.93111172 94.80955505 87.14717102 C93.93455505 88.16800435 93.05955505 89.18883769 92.18455505 90.20967102 C91.64443787 90.8464679 91.10432068 91.48326477 90.5478363 92.13935852 C89.40490661 93.45950653 88.23587498 94.75757675 87.0400238 96.02998352 C86.48959412 96.6255304 85.93916443 97.22107727 85.37205505 97.83467102 C84.85771912 98.37478821 84.34338318 98.9149054 83.8134613 99.47138977 C82.58258544 101.13344684 82.58258544 101.13344684 83.0868988 103.29170227 C83.66042732 105.13213452 83.66042732 105.13213452 84.80955505 106.14717102 C87.60269844 106.69155766 87.60269844 106.69155766 90.80955505 106.14717102 C93.04146177 104.35232176 94.79176422 102.74055653 96.68455505 100.64717102 C97.18213318 100.12252258 97.6797113 99.59787415 98.19236755 99.05732727 C99.41219421 97.767126 100.61285755 96.4588537 101.80955505 95.14717102 C102.8744236 96.04018758 103.93630547 96.93676572 104.99705505 97.83467102 C105.63900818 98.37736633 106.2809613 98.92006165 106.94236755 99.47920227 C108.80955505 101.14717102 108.80955505 101.14717102 111.37205505 104.02217102 C113.6851543 106.4437036 113.6851543 106.4437036 117.05955505 106.52217102 C119.716006 106.4424145 119.716006 106.4424145 120.80955505 105.14717102 C121.3539417 102.35402763 121.3539417 102.35402763 120.80955505 99.14717102 C119.01470579 96.91526431 117.40294057 95.16496185 115.30955505 93.27217102 C114.78490662 92.7745929 114.26025818 92.27701477 113.7197113 91.76435852 C112.42951004 90.54453187 111.12123773 89.34386853 109.80955505 88.14717102 C110.70257162 87.08230247 111.59914975 86.02042061 112.49705505 84.95967102 C113.03975037 84.3177179 113.58244568 83.67576477 114.1415863 83.01435852 C115.80955505 81.14717102 115.80955505 81.14717102 118.68455505 78.58467102 C121.08864396 76.27692442 121.08864396 76.27692442 121.24705505 72.95967102 C121.07253942 70.016811 121.07253942 70.016811 118.80955505 68.14717102 C115.09063932 68.19213201 113.75426886 69.19499619 110.9150238 71.65107727 C109.93193753 72.66055512 108.95945648 73.68045401 107.99705505 74.70967102 C107.49496521 75.22980774 106.99287537 75.74994446 106.47557068 76.2858429 C105.24426378 77.56405672 104.02561435 78.85444249 102.80955505 80.14717102 C101.78872172 79.27217102 100.76788839 78.39717102 99.74705505 77.52217102 C99.11154724 76.98076477 98.47603943 76.43935852 97.8212738 75.88154602 C96.49796372 74.74067286 95.18751728 73.58467658 93.8915863 72.41279602 C93.28701599 71.87138977 92.68244568 71.32998352 92.05955505 70.77217102 C91.5078363 70.26943665 90.95611755 69.76670227 90.38768005 69.24873352 C87.99835569 67.5809378 86.43355859 67.72374005 84.05955505 69.33467102 Z " fill="currentColor" transform="translate(29.190444946289063,-0.1471710205078125)"/>
</svg>
