<?xml version="1.0" encoding="UTF-8"?>
<svg version="1.1" xmlns="http://www.w3.org/2000/svg" width="100%" height="100%" viewBox="0 0 164 165">
<path d="M0 0 C1.00074554 -0.0071553 2.00149109 -0.01431061 3.03256226 -0.02168274 C4.12455933 -0.02437164 5.2165564 -0.02706055 6.34164429 -0.02983093 C7.49659393 -0.03640213 8.65154358 -0.04297333 9.8414917 -0.04974365 C13.66755234 -0.06946986 17.49357372 -0.08113853 21.31967163 -0.09111023 C22.62742931 -0.09518576 23.935187 -0.09926128 25.2825737 -0.10346031 C31.49225212 -0.12250376 37.70191875 -0.1367345 43.91162074 -0.14507228 C51.06002473 -0.15483086 58.20811794 -0.18111743 65.35641253 -0.22157317 C70.89376119 -0.25182698 76.43102126 -0.26655003 81.9684509 -0.26985329 C85.26981287 -0.27219397 88.57076848 -0.28302679 91.87205887 -0.30631447 C95.56269113 -0.33072799 99.25251806 -0.32973605 102.94320679 -0.32279968 C104.56298431 -0.34201477 104.56298431 -0.34201477 106.21548462 -0.36161804 C115.94042193 -0.295262 124.07291254 2.18947443 131.03060913 9.14717102 C136.91687357 16.83201627 137.33141758 23.60462852 137.33700562 32.96064758 C137.34532913 34.14514999 137.35365265 35.3296524 137.36222839 36.55004883 C137.38215458 39.78789704 137.39296176 43.0255961 137.39805484 46.26349735 C137.40170833 48.2908215 137.40795355 50.31812129 137.41505623 52.3454361 C137.43952503 59.43088863 137.45259667 66.51626825 137.45614624 73.60176086 C137.45977771 80.1854419 137.48965124 86.7686557 137.53155082 93.35219407 C137.56635325 99.02123028 137.5816964 104.69011239 137.58239228 110.3592546 C137.58318184 113.73775345 137.59177039 117.11577595 137.62038994 120.49416351 C137.64734717 124.26855749 137.64246401 128.04167414 137.62997437 131.81611633 C137.6522258 133.47325905 137.6522258 133.47325905 137.67492676 135.16387939 C137.59446395 143.73472492 135.37169157 150.25686954 129.74935913 156.80342102 C129.01717163 157.41185852 128.28498413 158.02029602 127.53060913 158.64717102 C126.79842163 159.27623352 126.06623413 159.90529602 125.31185913 160.55342102 C117.97447881 165.67953604 109.60396553 165.29620847 101.01156616 165.29243469 C99.9116333 165.2957933 98.81170044 165.29915192 97.67843628 165.3026123 C94.04841986 165.31209816 90.41844967 165.31406418 86.78842163 165.31513977 C84.26025371 165.3183538 81.73208598 165.32171799 79.20391846 165.32522583 C73.90639744 165.33121105 68.60889359 165.33310923 63.31137085 165.33247375 C57.20269553 165.33187322 51.09410859 165.3424239 44.98545563 165.35821742 C39.09188288 165.37290762 33.19833693 165.37646078 27.30474472 165.37586403 C24.80495721 165.37704263 22.30516902 165.38145765 19.80539322 165.3891964 C16.30633497 165.39901517 12.80750321 165.3961107 9.30844116 165.39009094 C8.28064545 165.39571045 7.25284973 165.40132996 6.19390869 165.40711975 C-3.84457398 165.36332926 -12.2175475 163.58740211 -19.69985962 156.51045227 C-26.57096526 148.96071891 -27.41551184 142.13679748 -27.38931274 132.22016907 C-27.39778229 131.03552063 -27.40625183 129.85087219 -27.41497803 128.63032532 C-27.43430697 125.39659769 -27.44012937 122.16322561 -27.43823051 118.92945075 C-27.43811035 116.22101159 -27.44669337 113.51262567 -27.45500803 110.80420142 C-27.47420952 104.40847833 -27.47713827 98.01288573 -27.47036743 91.61714172 C-27.46373287 85.04080239 -27.48657421 78.46502482 -27.52368116 71.88879937 C-27.55447402 66.22397266 -27.56572777 60.55932574 -27.56184435 54.89441711 C-27.55978623 51.51931012 -27.56510866 48.14464025 -27.58973694 44.76961327 C-27.61196153 41.00007947 -27.60220409 37.23188722 -27.58462524 33.46235657 C-27.59788849 32.3591658 -27.61115173 31.25597504 -27.62481689 30.11935425 C-27.53121592 21.44658926 -25.17777475 15.04925953 -19.65689087 8.33467102 C-13.39593713 3.23854588 -8.19128206 0.04031725 0 0 Z M50.03060913 16.14717102 C49.79697032 17.99609048 49.61757278 19.85205134 49.46810913 21.70967102 C49.38432007 22.72158508 49.30053101 23.73349915 49.21420288 24.77607727 C49.12332397 25.94976868 49.12332397 25.94976868 49.03060913 27.14717102 C48.59103882 26.64572571 48.15146851 26.1442804 47.69857788 25.62763977 C47.14814819 25.13908508 46.59771851 24.6505304 46.03060913 24.14717102 C43.37594864 24.37760966 43.37594864 24.37760966 41.03060913 25.14717102 C41.40950099 27.65532839 41.63066064 28.83066502 43.65951538 30.43623352 C44.29760132 30.8770929 44.93568726 31.31795227 45.59310913 31.77217102 C48.59692605 34.53690863 49.26887674 36.64896732 49.49154663 40.60420227 C49.5449193 45.13146084 49.33169941 49.63081682 49.03060913 54.14717102 C36.28442079 48.50681228 36.28442079 48.50681228 33.21029663 42.72138977 C32.26842464 39.52949026 31.52207031 36.43695198 31.03060913 33.14717102 C29.38060913 33.14717102 27.73060913 33.14717102 26.03060913 33.14717102 C26.03060913 35.78717102 26.03060913 38.42717102 26.03060913 41.14717102 C25.12568726 40.57096008 25.12568726 40.57096008 24.20248413 39.98310852 C23.00365601 39.25994446 23.00365601 39.25994446 21.78060913 38.52217102 C20.99170288 38.0349054 20.20279663 37.54763977 19.38998413 37.04560852 C17.09044563 35.91308486 17.09044563 35.91308486 14.85873413 36.68623352 C12.52187332 38.55372485 11.91966025 40.33184246 11.03060913 43.14717102 C12.48799015 44.12775454 13.94654588 45.10659234 15.40560913 46.08467102 C16.21771851 46.62994446 17.02982788 47.1752179 17.86654663 47.73701477 C19.95780097 49.15810981 19.95780097 49.15810981 22.03060913 50.14717102 C19.72060913 51.13717102 17.41060913 52.12717102 15.03060913 53.14717102 C15.36060913 54.79717102 15.69060913 56.44717102 16.03060913 58.14717102 C17.44599976 57.70051086 17.44599976 57.70051086 18.88998413 57.24482727 C29.07129694 54.40684459 29.07129694 54.40684459 34.62826538 56.50654602 C37.53293135 58.27122766 40.26645172 60.17411829 43.03060913 62.14717102 C43.69060913 62.14717102 44.35060913 62.14717102 45.03060913 62.14717102 C45.03060913 62.80717102 45.03060913 63.46717102 45.03060913 64.14717102 C44.07154663 64.48748352 44.07154663 64.48748352 43.09310913 64.83467102 C40.12856423 65.99652966 40.12856423 65.99652966 38.04623413 67.46357727 C32.29578424 71.20544803 32.29578424 71.20544803 28.40170288 71.02607727 C25.78060913 70.45967102 25.78060913 70.45967102 23.38998413 69.76045227 C20.84967286 69.10013957 18.64396342 69.04986528 16.03060913 69.14717102 C15.53560913 71.62217102 15.53560913 71.62217102 15.03060913 74.14717102 C17.34060913 74.47717102 19.65060913 74.80717102 22.03060913 75.14717102 C19.83921934 77.50447045 17.5912894 79.167742 14.84310913 80.83467102 C14.12767944 81.27166321 13.41224976 81.7086554 12.67514038 82.15888977 C12.13244507 82.48502258 11.58974976 82.8111554 11.03060913 83.14717102 C12.42820818 86.69235986 12.42820818 86.69235986 14.03060913 90.14717102 C18.78542559 89.57082963 22.00109125 87.59648581 26.03060913 85.14717102 C26.03060913 87.78717102 26.03060913 90.42717102 26.03060913 93.14717102 C27.35060913 93.47717102 28.67060913 93.80717102 30.03060913 94.14717102 C30.48435913 93.13654602 30.93810913 92.12592102 31.40560913 91.08467102 C31.66084351 90.51619446 31.91607788 89.9477179 32.17904663 89.36201477 C33.16824315 86.98657531 33.16824315 86.98657531 33.68685913 83.67842102 C35.47929947 78.96805454 37.79407841 77.87316299 42.15560913 75.70967102 C42.81432007 75.35969055 43.47303101 75.00971008 44.15170288 74.64912415 C45.76726282 73.79451635 47.3975978 72.96794042 49.03060913 72.14717102 C50.26676332 88.21717545 50.26676332 88.21717545 47.21420288 92.98310852 C44.96810913 95.02217102 44.96810913 95.02217102 42.68295288 96.63935852 C42.13767944 97.13693665 41.59240601 97.63451477 41.03060913 98.14717102 C41.1811886 100.32541734 41.1811886 100.32541734 42.03060913 102.14717102 C45.90858575 102.58103194 45.90858575 102.58103194 47.78060913 100.64717102 C48.19310913 100.15217102 48.60560913 99.65717102 49.03060913 99.14717102 C49.12148804 100.32086243 49.12148804 100.32086243 49.21420288 101.51826477 C49.29799194 102.53017883 49.38178101 103.5420929 49.46810913 104.58467102 C49.54932007 105.59400696 49.63053101 106.6033429 49.71420288 107.64326477 C49.76272382 110.08357881 49.76272382 110.08357881 51.03060913 111.14717102 C53.70119764 111.28832263 56.35493151 111.18964209 59.03060913 111.14717102 C59.36060913 106.85717102 59.69060913 102.56717102 60.03060913 98.14717102 C61.68060913 99.79717102 63.33060913 101.44717102 65.03060913 103.14717102 C67.01060913 102.15717102 67.01060913 102.15717102 69.03060913 101.14717102 C68.66005568 98.47223832 68.33078506 97.39688634 66.21810913 95.63935852 C65.49623413 95.10568665 64.77435913 94.57201477 64.03060913 94.02217102 C60.07963836 90.33930184 59.46490619 87.33193588 59.11264038 82.1554718 C58.99242509 78.47960318 58.967742 74.82489834 59.03060913 71.14717102 C60.01803101 71.72467102 61.00545288 72.30217102 62.02279663 72.89717102 C63.31693648 73.64739702 64.6112145 74.3973847 65.90560913 75.14717102 C66.88207397 75.71951477 66.88207397 75.71951477 67.87826538 76.30342102 C71.23411114 78.42268258 71.23411114 78.42268258 75.03060913 79.14717102 C75.23557007 79.97861633 75.44053101 80.81006165 75.65170288 81.66670227 C75.92111694 82.75338196 76.19053101 83.84006165 76.46810913 84.95967102 C76.73494507 86.03861633 77.00178101 87.11756165 77.27670288 88.22920227 C77.79138325 90.22125532 78.37998088 92.19528626 79.03060913 94.14717102 C80.68060913 93.81717102 82.33060913 93.48717102 84.03060913 93.14717102 C83.53560913 89.18717102 83.53560913 89.18717102 83.03060913 85.14717102 C83.63389038 85.51971008 84.23717163 85.89224915 84.85873413 86.27607727 C85.65795288 86.74916321 86.45717163 87.22224915 87.28060913 87.70967102 C88.46396851 88.42316711 88.46396851 88.42316711 89.67123413 89.15107727 C91.9393103 90.31973286 91.9393103 90.31973286 94.20248413 89.98701477 C96.39067604 89.1752985 96.39067604 89.1752985 98.03060913 86.14717102 C98.03060913 84.82717102 98.03060913 83.50717102 98.03060913 82.14717102 C95.82585043 80.33806961 95.82585043 80.33806961 93.03060913 78.89717102 C92.10248413 78.37638977 91.17435913 77.85560852 90.21810913 77.31904602 C89.13529663 76.7389679 89.13529663 76.7389679 88.03060913 76.14717102 C90.34060913 75.48717102 92.65060913 74.82717102 95.03060913 74.14717102 C94.53560913 71.17717102 94.53560913 71.17717102 94.03060913 68.14717102 C93.22236694 68.37533508 92.41412476 68.60349915 91.58139038 68.83857727 C90.51275757 69.12603821 89.44412476 69.41349915 88.34310913 69.70967102 C86.75949585 70.14472961 86.75949585 70.14472961 85.14389038 70.58857727 C79.60114119 71.58307305 76.11017693 69.87898619 71.28060913 67.20967102 C70.31639038 66.68502258 69.35217163 66.16037415 68.35873413 65.61982727 C66.03060913 64.14717102 66.03060913 64.14717102 65.03060913 62.14717102 C65.66998413 61.92029602 66.30935913 61.69342102 66.96810913 61.45967102 C69.9329442 60.32539479 69.9329442 60.32539479 71.87435913 58.79560852 C75.68937792 56.13363645 77.91471392 55.03053111 82.65560913 55.52607727 C85.14781451 56.09550534 87.62775605 56.72242258 90.08920288 57.41279602 C92.94024965 58.46341496 92.94024965 58.46341496 95.03060913 57.14717102 C94.70060913 55.49717102 94.37060913 53.84717102 94.03060913 52.14717102 C92.05060913 51.48717102 90.07060913 50.82717102 88.03060913 50.14717102 C92.98060913 47.17717102 92.98060913 47.17717102 98.03060913 44.14717102 C97.38416252 39.26502215 97.38416252 39.26502215 95.03060913 36.14717102 C90.79631157 37.45778693 86.95653509 39.09073361 83.03060913 41.14717102 C83.36060913 38.83717102 83.69060913 36.52717102 84.03060913 34.14717102 C82.38060913 33.81717102 80.73060913 33.48717102 79.03060913 33.14717102 C78.92748413 33.98119446 78.82435913 34.8152179 78.71810913 35.67451477 C76.93358583 44.52615591 76.93358583 44.52615591 73.27084351 47.64619446 C68.76645643 50.62572528 63.94774525 52.93445977 59.03060913 55.14717102 C58.60117351 39.2236981 58.60117351 39.2236981 62.13607788 34.08857727 C64.65560913 31.77217102 64.65560913 31.77217102 67.19467163 29.87373352 C68.10346069 29.01908508 68.10346069 29.01908508 69.03060913 28.14717102 C68.92051776 25.94171388 68.92051776 25.94171388 68.03060913 24.14717102 C63.94988571 24.69862013 63.11730117 25.06047898 60.03060913 28.14717102 C59.70060913 23.85717102 59.37060913 19.56717102 59.03060913 15.14717102 C54.23090171 14.61883386 54.23090171 14.61883386 50.03060913 16.14717102 Z M29.03060913 115.14717102 C29.81693726 115.77623352 30.60326538 116.40529602 31.41342163 117.05342102 C35.90560913 120.64717102 35.90560913 120.64717102 37.03060913 122.14717102 C36.8218689 124.11152649 36.8218689 124.11152649 36.03060913 126.14717102 C34.47958374 127.3117218 34.47958374 127.3117218 32.49545288 128.21748352 C31.77212769 128.54780579 31.04880249 128.87812805 30.30355835 129.21846008 C26.7844458 130.65634452 23.20813951 131.85158584 19.59310913 133.02217102 C11.86467785 135.63330913 4.46037189 138.7938709 -0.96939087 145.14717102 C-2.79454484 152.44778692 -2.20258032 152.73908948 2.03060913 160.14717102 C7.64060913 160.14717102 13.25060913 160.14717102 19.03060913 160.14717102 C18.37060913 159.15717102 17.71060913 158.16717102 17.03060913 157.14717102 C16.37060913 157.14717102 15.71060913 157.14717102 15.03060913 157.14717102 C14.75312671 155.73563004 14.50967397 154.31737303 14.28060913 152.89717102 C14.14139038 152.10826477 14.00217163 151.31935852 13.85873413 150.50654602 C14.03060913 148.14717102 14.03060913 148.14717102 15.71029663 146.00263977 C21.61688577 141.27935721 29.13273227 139.08414748 36.21810913 136.70967102 C41.86396482 134.72431517 46.97229855 132.68971184 51.03060913 128.14717102 C52.59579847 125.18433456 52.59579847 125.18433456 52.03060913 122.14717102 C49.59815902 119.17417644 47.22147577 117.27441545 44.03060913 115.14717102 C41.42815415 115.00496037 38.93943229 114.9591417 36.34310913 115.02217102 C35.6412146 115.03119446 34.93932007 115.0402179 34.21615601 115.04951477 C32.48749388 115.07303398 30.75900768 115.10890389 29.03060913 115.14717102 Z M88.03060913 115.14717102 C90.07695003 116.70342187 92.08521043 118.18053848 94.28060913 119.52217102 C96.03060913 121.14717102 96.03060913 121.14717102 96.13998413 123.74873352 C96.10389038 124.5402179 96.06779663 125.33170227 96.03060913 126.14717102 C90.71559469 128.42215826 85.40760563 130.68409223 79.95248413 132.60420227 C67.32818061 136.98241702 67.32818061 136.98241702 57.96810913 146.14717102 C56.56182509 150.64727996 57.40512151 153.50013413 59.04232788 157.81123352 C60.73432552 160.27690377 60.73432552 160.27690377 62.86849976 160.54829407 C65.17037056 160.64058606 67.41775891 160.5823312 69.71810913 160.45967102 C70.51539429 160.43711243 71.31267944 160.41455383 72.13412476 160.39131165 C74.10042247 160.33244046 76.06575404 160.24275857 78.03060913 160.14717102 C77.18498413 159.13654602 76.33935913 158.12592102 75.46810913 157.08467102 C73.55332402 154.32381807 73.01104694 153.02327713 72.46810913 149.58467102 C75.3181003 143.31469045 81.91341535 141.71886757 88.06820679 139.36933899 C90.84445345 138.3302571 93.61914276 137.29353383 96.42147827 136.32661438 C100.76412984 134.79221446 104.29754622 132.8325501 108.03060913 130.14717102 C108.98967163 129.49748352 108.98967163 129.49748352 109.96810913 128.83467102 C111.31822106 127.0029663 111.31822106 127.0029663 111.15560913 123.77217102 C109.99391934 120.02894838 108.87205144 118.15436859 105.55014038 116.01435852 C100.01139141 114.10799841 93.80857535 114.81253977 88.03060913 115.14717102 Z " fill="currentColor" transform="translate(26.969390869140625,-0.1471710205078125)"/>
</svg>
