<?xml version="1.0" encoding="UTF-8"?>
<svg version="1.1" xmlns="http://www.w3.org/2000/svg" width="100%" height="100%" viewBox="0 0 164 164">
<path d="M0 0 C1.18625473 -0.00686325 2.37250946 -0.0137265 3.5947113 -0.02079773 C6.83251537 -0.03591501 10.06995652 -0.03757271 13.30778074 -0.03185534 C16.01879639 -0.02875359 18.72976054 -0.034867 21.44076884 -0.04089409 C27.84125318 -0.05491742 34.241604 -0.05339697 40.64208984 -0.04199219 C47.22633019 -0.0305186 53.81016283 -0.04457847 60.39434946 -0.07138866 C66.06425242 -0.09360428 71.73402796 -0.10016975 77.40397131 -0.09431225 C80.78288581 -0.09095473 84.16153918 -0.09327642 87.54041672 -0.11056328 C91.31240668 -0.12548482 95.08350613 -0.11478564 98.85546875 -0.09765625 C99.96225479 -0.10732422 101.06904083 -0.11699219 102.20936584 -0.12695312 C111.00711619 -0.04353763 118.67703077 2.0239546 125.05712891 8.40405273 C131.55109908 16.88597297 132.35674291 25.32600678 132.33178711 35.71020508 C132.33689804 36.81697098 132.34200897 37.92373688 132.34727478 39.06404114 C132.3611229 42.70607988 132.36021755 46.34792836 132.35791016 49.98999023 C132.36179973 52.53292918 132.36613494 55.07586747 132.37089539 57.61880493 C132.37834735 62.94307836 132.37821296 68.2672826 132.37280273 73.59155273 C132.36676644 79.72414024 132.37907197 85.85649811 132.4003728 91.98904645 C132.42018926 97.914662 132.42315351 103.84020712 132.41963768 109.7658577 C132.42014958 112.27515833 132.42536256 114.78446273 132.4354496 117.29374313 C132.44784705 120.80904353 132.44100194 124.32381873 132.42944336 127.83911133 C132.4370871 128.86592514 132.44473083 129.89273895 132.4526062 130.95066833 C132.38759668 139.93901583 130.86034152 148.27439152 125.05712891 155.40405273 C118.41961809 161.60868241 112.12555364 164.50545854 103.08810425 164.55122375 C102.11267166 164.55837906 101.13723907 164.56553436 100.13224792 164.57290649 C99.07346939 164.5755954 98.01469086 164.5782843 96.92382812 164.58105469 C95.23748512 164.59091148 95.23748512 164.59091148 93.51707458 164.60096741 C89.79865448 164.62066798 86.08027472 164.63235643 82.36181641 164.64233398 C81.08932163 164.64640951 79.81682686 164.65048504 78.50577164 164.65468407 C72.46321157 164.67338443 66.42067581 164.68795241 60.37809455 164.69629604 C53.42836835 164.70605344 46.47896191 164.73234018 39.52934825 164.77279693 C33.49000865 164.8067345 27.45082283 164.81845238 21.41138077 164.82250023 C18.85265053 164.82735906 16.29392354 164.8389528 13.7352562 164.85753822 C10.14551383 164.88199052 6.55659773 164.88095285 2.96679688 164.87402344 C1.39684715 164.89323853 1.39684715 164.89323853 -0.20481873 164.9128418 C-9.42364515 164.84833457 -18.62124661 162.77082576 -25.4566288 156.20489502 C-31.56422035 148.80448045 -32.67508713 141.37513806 -32.58984375 132.04467773 C-32.59860535 130.84983765 -32.60736694 129.65499756 -32.61639404 128.4239502 C-32.63451409 125.17569013 -32.63043186 121.92846432 -32.61449862 118.68022156 C-32.60173969 115.26294978 -32.6136072 111.8457416 -32.62142944 108.4284668 C-32.63049725 102.69234011 -32.61861418 96.95653649 -32.59472656 91.22045898 C-32.56752032 84.61164074 -32.57633656 78.00359404 -32.60385859 71.39479446 C-32.62663121 65.69590327 -32.62971025 59.99724282 -32.61666524 54.29832077 C-32.60891514 50.90541713 -32.60770497 47.51287479 -32.62434769 44.11999512 C-32.63710613 40.33394901 -32.61760551 36.54936546 -32.58984375 32.76342773 C-32.5999649 31.65559937 -32.61008606 30.547771 -32.62051392 29.40637207 C-32.50909764 21.16697943 -30.6558232 14.4143279 -24.95321083 8.25506592 C-17.24748282 0.94508572 -10.28298389 -0.04167171 0 0 Z M24.05712891 4.40405273 C24.69760246 8.24382957 25.82890112 11.56001987 27.34228516 15.14233398 C27.79023437 16.2090332 28.23818359 17.27573242 28.69970703 18.37475586 C29.40256836 20.02894531 29.40256836 20.02894531 30.11962891 21.71655273 C30.59207031 22.83868164 31.06451172 23.96081055 31.55126953 25.11694336 C32.71574214 27.8810955 33.88449162 30.64335673 35.05712891 33.40405273 C34.2252002 33.41807129 34.2252002 33.41807129 33.37646484 33.43237305 C30.8524641 33.48620995 28.33029077 33.56982527 25.80712891 33.65405273 C24.93443359 33.66823242 24.06173828 33.68241211 23.16259766 33.69702148 C21.89609375 33.74536133 21.89609375 33.74536133 20.60400391 33.79467773 C19.82895508 33.815625 19.05390625 33.83657227 18.25537109 33.8581543 C15.03546506 34.65776668 14.04014483 35.71843476 12.05712891 38.40405273 C11.45524129 41.59480418 11.52123509 44.75143477 11.55541992 47.99023438 C11.55001694 48.96135666 11.54461395 49.93247894 11.53904724 50.93302917 C11.52653747 54.14373222 11.54306516 57.35354261 11.56103516 60.56420898 C11.56088023 62.79333035 11.55939238 65.022452 11.55662537 67.25157166 C11.5552404 71.92304391 11.56781702 76.59420949 11.59057617 81.265625 C11.61897727 87.26049524 11.61622018 93.25485643 11.60348606 99.24976444 C11.59653954 103.85221219 11.60430617 108.45454175 11.61674309 113.05697441 C11.62126641 115.26782211 11.62158673 117.47868246 11.61767769 119.68953133 C11.61477516 122.77570852 11.63122632 125.86117777 11.65307617 128.94726562 C11.64857452 129.86526947 11.64407288 130.78327332 11.63943481 131.72909546 C11.64933945 132.56885422 11.65924408 133.40861298 11.66944885 134.27381897 C11.67187875 135.0032927 11.67430864 135.73276644 11.67681217 136.48434544 C12.17197926 138.98377759 13.0721675 139.84741729 15.05712891 141.40405273 C18.1944868 142.4498387 20.42500351 142.54321104 23.71850586 142.56518555 C25.46095329 142.57959686 25.46095329 142.57959686 27.23860168 142.59429932 C28.49484848 142.59854919 29.75109528 142.60279907 31.04541016 142.60717773 C32.98204781 142.61572784 32.98204781 142.61572784 34.95780945 142.62445068 C37.69233595 142.63495068 40.42683314 142.64079963 43.16137695 142.64428711 C46.65503678 142.64976466 50.14830546 142.67378049 53.64184284 142.70225906 C56.98469083 142.72543408 60.32748602 142.72733844 63.67041016 142.73217773 C65.54567131 142.75069794 65.54567131 142.75069794 67.45881653 142.76959229 C75.76260066 142.85011144 75.76260066 142.85011144 83.05712891 139.40405273 C84.77181567 135.9746792 84.23215727 132.03544552 84.25 128.26025391 C84.25817749 127.3121434 84.26635498 126.3640329 84.27478027 125.38719177 C84.29965237 122.24047482 84.31615433 119.09380302 84.33056641 115.94702148 C84.33855192 114.33734717 84.33855192 114.33734717 84.34669876 112.69515419 C84.37343733 107.016015 84.3928106 101.33689786 84.40722656 95.65771484 C84.42388249 89.78619417 84.46866659 83.9152339 84.51959801 78.04392529 C84.55322142 73.53407634 84.56479861 69.02436125 84.57045364 64.51439857 C84.57717892 62.34981309 84.59243389 60.1852368 84.61634445 58.02077293 C84.64789502 54.99205962 84.64804779 51.96486904 84.640625 48.93603516 C84.65703033 48.04078125 84.67343567 47.14552734 84.69033813 46.22314453 C84.64596495 41.8033119 84.48451759 39.96566596 81.72825623 36.34378052 C78.27690573 33.83746777 76.24319912 33.82562571 72.00634766 33.91577148 C71.34754105 33.92284622 70.68873444 33.92992096 70.00996399 33.93721008 C67.92032856 33.96504294 65.83344414 34.02774455 63.74462891 34.09155273 C62.32214177 34.11665069 60.89961232 34.13946125 59.47705078 34.15991211 C56.0028603 34.21482828 52.5302634 34.30101588 49.05712891 34.40405273 C48.88842285 33.79891846 48.7197168 33.19378418 48.54589844 32.5703125 C46.73837245 26.29589111 44.51130028 20.33600048 41.93212891 14.34155273 C41.57248047 13.48883789 41.21283203 12.63612305 40.84228516 11.75756836 C39.39094646 7.80298618 39.39094646 7.80298618 37.05712891 4.40405273 C34.87073437 4.33146327 32.68212502 4.32031491 30.49462891 4.34155273 C29.29708984 4.35057617 28.09955078 4.35959961 26.86572266 4.36889648 C25.47546875 4.38629883 25.47546875 4.38629883 24.05712891 4.40405273 Z M60.05712891 4.40405273 C57.29135765 9.77755118 54.64968699 15.17117596 52.24462891 20.71655273 C51.82568359 21.68206055 51.40673828 22.64756836 50.97509766 23.64233398 C50.0459734 26.4376142 49.79342987 28.48268104 50.05712891 31.40405273 C51.11691824 32.69017949 51.11691824 32.69017949 53.56103516 32.50170898 C54.57037109 32.49010742 55.57970703 32.47850586 56.61962891 32.46655273 C57.63154297 32.4575293 58.64345703 32.44850586 59.68603516 32.43920898 C60.46849609 32.42760742 61.25095703 32.41600586 62.05712891 32.40405273 C63.76846712 28.57819535 65.47740178 24.75127658 67.18408203 20.92333984 C67.76544717 19.62030807 68.34747705 18.31757267 68.93017578 17.01513672 C69.76589623 15.14684671 70.59924809 13.27751629 71.43212891 11.40795898 C71.93486328 10.28204346 72.43759766 9.15612793 72.95556641 7.99609375 C74.12231626 5.7200633 74.12231626 5.7200633 74.05712891 4.40405273 C69.43712891 4.40405273 64.81712891 4.40405273 60.05712891 4.40405273 Z " fill="currentColor" transform="translate(31.94287109375,-0.404052734375)"/>
<path d="M0 0 C7.21185045 5.0704006 12.644743 12.09853583 14.7265625 20.74609375 C14.9140625 24.24609375 14.9140625 24.24609375 14.7265625 26.74609375 C12.08010196 28.06932402 10.07881914 27.88047077 7.11523438 27.89135742 C5.94061646 27.89773727 4.76599854 27.90411713 3.55578613 27.91069031 C2.28182983 27.91180313 1.00787354 27.91291595 -0.3046875 27.9140625 C-1.60668091 27.9173909 -2.90867432 27.9207193 -4.25012207 27.92414856 C-7.00741403 27.93013938 -9.76467464 27.93198846 -12.52197266 27.93139648 C-16.05968594 27.93129475 -19.59719903 27.94495891 -23.13486481 27.96216869 C-26.50397571 27.97594088 -29.87304877 27.97537677 -33.2421875 27.9765625 C-34.5161438 27.98374802 -35.7901001 27.99093353 -37.10266113 27.99833679 C-38.27727905 27.99526016 -39.45189697 27.99218353 -40.66210938 27.98901367 C-42.21859192 27.9911512 -42.21859192 27.9911512 -43.80651855 27.99333191 C-46.2734375 27.74609375 -46.2734375 27.74609375 -48.2734375 25.74609375 C-48.01056134 17.42683634 -44.23291956 11.18549182 -38.9609375 5.05859375 C-27.60683368 -4.71121652 -13.64160462 -7.5239778 0 0 Z " fill="currentColor" transform="translate(96.2734375,109.25390625)"/>
<path d="M0 0 C4.39553002 4.23823471 5.35325925 7.5878456 5.9375 13.625 C5.76838674 19.51014139 3.28703973 24.06967924 -0.875 28.125 C-6.3848418 31.61904602 -10.9771968 32.46017517 -17.4375 31.75 C-22.87209397 29.93846868 -26.42393553 26.53461312 -29.4375 21.75 C-31.50889688 16.96044096 -31.81624278 13.00139865 -30.3125 8 C-28.33508107 3.04350016 -26.15764481 -0.22523288 -21.5 -3 C-13.51794652 -6.25798101 -6.77909632 -5.57118461 0 0 Z " fill="currentColor" transform="translate(92.4375,71.25)"/>
<path d="M0 0 C0 0.66 0 1.32 0 2 C5.94 2 11.88 2 18 2 C18 1.34 18 0.68 18 0 C22.875 0.875 22.875 0.875 24 2 C24.1875 4.9375 24.1875 4.9375 24 8 C20.79810287 11.20189713 17.09369853 10.29542548 12.72851562 10.32226562 C11.51873047 10.31904297 10.30894531 10.31582031 9.0625 10.3125 C7.25362305 10.33666992 7.25362305 10.33666992 5.40820312 10.36132812 C4.25384766 10.36197266 3.09949219 10.36261719 1.91015625 10.36328125 C0.84933838 10.36626221 -0.21147949 10.36924316 -1.30444336 10.37231445 C-4 10 -4 10 -5.88110352 8.67260742 C-7 7 -7 7 -6.8125 3.875 C-6.544375 2.92625 -6.27625 1.9775 -6 1 C-4 0 -4 0 0 0 Z " fill="currentColor" transform="translate(71,41)"/>
</svg>
