<?xml version="1.0" encoding="UTF-8"?>
<svg version="1.1" xmlns="http://www.w3.org/2000/svg" width="100%" height="100%" viewBox="0 0 165 164">
<path d="M0 0 C0.99377655 -0.00571014 1.9875531 -0.01142029 3.01144409 -0.01730347 C4.09566147 -0.01842133 5.17987885 -0.01953918 6.29695129 -0.02069092 C7.44375366 -0.02565582 8.59055603 -0.03062073 9.77210999 -0.03573608 C13.57051695 -0.05035467 17.36888213 -0.05715974 21.16731262 -0.06268311 C23.80804445 -0.06843542 26.44877626 -0.07419314 29.08950806 -0.07995605 C33.92202057 -0.08952388 38.75452408 -0.09542261 43.58704489 -0.09845281 C50.68333234 -0.1029277 57.77942661 -0.12045124 64.87565535 -0.1494534 C71.03512945 -0.17374666 77.19452432 -0.18140067 83.35404396 -0.18312836 C85.96744652 -0.18615085 88.58084835 -0.19416571 91.19421959 -0.20731354 C94.85621526 -0.22441973 98.51774408 -0.2224821 102.17976379 -0.21600342 C103.25386002 -0.2252182 104.32795624 -0.23443298 105.43460083 -0.243927 C115.52750223 -0.18815732 122.71602274 1.87718993 130.11262512 8.88653564 C135.31066628 14.89709626 137.17424951 22.21323739 137.20228577 30.04026794 C137.20799591 31.00031738 137.21370605 31.96036682 137.21958923 32.94950867 C137.22126602 34.51198082 137.22126602 34.51198082 137.22297668 36.10601807 C137.22794159 37.21234589 137.23290649 38.31867371 137.23802185 39.45852661 C137.25262054 43.11682764 137.25944211 46.77508528 137.26496887 50.43341064 C137.27072272 52.98063661 137.27648043 55.52786256 137.28224182 58.0750885 C137.29140396 62.73489657 137.29770655 67.39469168 137.30073857 72.05450648 C137.30521287 78.89155476 137.32273612 85.72840248 137.35173917 92.56538981 C137.3760536 98.50540281 137.38368743 104.44536647 137.38541412 110.38543129 C137.38843347 112.90311079 137.39643761 115.4207896 137.4095993 117.93843651 C137.42673419 121.46840802 137.42476098 124.99789636 137.41828918 128.52789307 C137.42750397 129.55942001 137.43671875 130.59094696 137.44621277 131.6537323 C137.38841974 141.76280962 135.38321659 150.78638448 128.06184387 158.14044189 C122.95180617 162.03103878 118.51882307 164.25439091 112.02288818 164.29434204 C110.46072571 164.30724274 110.46072571 164.30724274 108.86700439 164.32040405 C107.15348534 164.32679398 107.15348534 164.32679398 105.40534973 164.33331299 C103.59999252 164.34557922 103.59999252 164.34557922 101.75816345 164.35809326 C97.76434155 164.38295908 93.77055756 164.39962349 89.77668762 164.41387939 C88.39907386 164.41924115 87.02146015 164.42461866 85.64384651 164.43001175 C79.90912121 164.45164133 74.17439867 164.47037409 68.43964291 164.48163414 C60.23793858 164.49784646 52.03671001 164.53095634 43.83518499 164.58803499 C38.06006917 164.62684651 32.28507996 164.64628031 26.50983721 164.6515547 C23.06532124 164.65519445 19.62131298 164.66706578 16.17693901 164.69965744 C12.32585395 164.73557389 8.47535626 164.73133879 4.62409973 164.72393799 C3.49592331 164.74034332 2.36774689 164.75674866 1.2053833 164.77365112 C-6.93088215 164.7098718 -13.38003315 162.90456299 -19.73820591 157.65395164 C-27.19023913 149.90118019 -28.53573027 139.610381 -28.43986511 129.31011963 C-28.4452681 128.18340851 -28.45067108 127.05669739 -28.45623779 125.89584351 C-28.46865287 122.2049662 -28.45228229 118.51487994 -28.43424988 114.82403564 C-28.43440502 112.24054422 -28.43589654 109.65705257 -28.43865967 107.07356262 C-28.4400404 101.67297125 -28.42797953 96.27266667 -28.40470886 90.87213135 C-28.37809234 84.65254923 -28.37636032 78.43334033 -28.38809723 72.21372074 C-28.3989224 66.19781967 -28.39254774 60.18208768 -28.37854195 54.16618538 C-28.37404193 51.62061006 -28.3736779 49.07502382 -28.37760735 46.52944756 C-28.38053343 42.96652981 -28.36394537 39.40421143 -28.34220886 35.84136963 C-28.34671051 34.80056747 -28.35121216 33.75976532 -28.35585022 32.68742371 C-28.2524431 22.4318765 -26.32040187 14.54992824 -19.12956238 7.05450439 C-13.52722223 2.16119482 -7.37958641 0.02546107 0 0 Z M14.4588623 41.25611877 C12.33844263 44.11617826 12.66855188 47.03695865 12.7212677 50.45758057 C12.72082962 51.19929001 12.72039154 51.94099945 12.71994019 52.70518494 C12.72203005 55.15652806 12.74536968 57.60718703 12.76887512 60.05841064 C12.77447039 61.75805793 12.77874082 63.45771004 12.78173828 65.15736389 C12.79319253 69.6307613 12.8226646 74.10386648 12.85585022 78.57714844 C12.88653866 83.14182583 12.90024099 87.70655045 12.9153595 92.27130127 C12.94753382 101.22780987 12.99873713 110.18410158 13.06184387 119.14044189 C13.79789856 118.79110596 14.53395325 118.44177002 15.29231262 118.08184814 C16.26813293 117.62680908 17.24395325 117.17177002 18.24934387 116.70294189 C19.21227356 116.25048096 20.17520325 115.79802002 21.16731262 115.33184814 C30.9376185 111.31033223 38.67153778 113.29448694 48.06184387 117.14044189 C49.72817323 117.80795122 51.39479309 118.47473632 53.06184387 119.14044189 C53.29376695 109.33540738 53.4713337 99.53102717 53.57996559 89.72380638 C53.63211168 85.169478 53.70280069 80.61702852 53.8162384 76.06378174 C53.92507696 71.66751365 53.98471951 67.27304935 54.0106163 62.87553787 C54.02906366 61.1999737 54.06509264 59.52450609 54.11914444 57.84971237 C54.73695246 48.64316271 54.73695246 48.64316271 50.87452698 40.77941895 C48.29669621 39.19392211 45.93088236 38.08471367 43.06184387 37.14044189 C42.07184387 36.81044189 41.08184387 36.48044189 40.06184387 36.14044189 C30.73535062 35.40062904 22.32642472 35.78028694 14.4588623 41.25611877 Z M60.06184387 40.14044189 C59.37269897 40.50861526 58.68355408 40.87678864 57.973526 41.25611877 C55.62989473 43.5662092 55.591651 45.11940579 55.56416321 48.33676147 C55.57854431 49.03663177 55.59292542 49.73650208 55.60774231 50.45758057 C55.6071582 51.19929001 55.6065741 51.94099945 55.60597229 52.70518494 C55.60875901 55.15673633 55.63987681 57.60707169 55.67121887 60.05841064 C55.67867922 61.75805497 55.68437313 63.45770789 55.68836975 65.15736389 C55.70364245 69.63086699 55.74293802 74.1038506 55.78718567 78.57714844 C55.82810331 83.14179456 55.84637325 87.70652462 55.86653137 92.27130127 C55.90943095 101.22790972 55.97770184 110.18413261 56.06184387 119.14044189 C58.82242646 118.06325511 61.42929644 116.94906035 64.06184387 115.57794189 C71.93805494 111.80392409 79.48166662 112.68527222 87.56965637 115.19122314 C90.51088533 116.31147179 93.25562305 117.7190248 96.06184387 119.14044189 C96.27057671 109.33531034 96.43038789 99.53070891 96.52815342 89.72380638 C96.57508296 85.16966543 96.6387046 80.61704656 96.74079895 76.06378174 C96.83875286 71.66754904 96.89243338 67.27277774 96.91573906 62.87553787 C96.93234113 61.2000286 96.96476511 59.5245975 97.01341438 57.84971237 C97.59362241 48.76484607 97.59362241 48.76484607 94.13896179 40.77941895 C84.31168212 33.96333712 70.1351172 33.83937761 60.06184387 40.14044189 Z M16.06184387 124.14044189 C16.39184387 125.46044189 16.72184387 126.78044189 17.06184387 128.14044189 C18.05184387 127.24325439 18.05184387 127.24325439 19.06184387 126.32794189 C27.60378102 120.09944606 35.97348789 120.80987683 46.06184387 121.14044189 C42.70369854 117.78229657 38.98054115 117.94234418 34.37434387 117.82794189 C27.08663083 117.87248782 22.03138755 120.16074611 16.06184387 124.14044189 Z M63.06184387 120.14044189 C66.39081668 121.2500995 68.63321945 121.1069009 72.12434387 120.95294189 C80.36254198 120.87938655 86.6168628 123.03999202 93.06184387 128.14044189 C93.18999752 125.7551686 93.18999752 125.7551686 92.06184387 123.14044189 C83.64368934 117.40250696 72.47096113 115.958612 63.06184387 120.14044189 Z " fill="currentColor" transform="translate(27.938156127929688,-0.14044189453125)"/>
</svg>
