<?xml version="1.0" encoding="UTF-8"?>
<svg version="1.1" xmlns="http://www.w3.org/2000/svg" width="100%" height="100%" viewBox="0 0 165 164">
<path d="M0 0 C0.99377655 -0.00571014 1.9875531 -0.01142029 3.01144409 -0.01730347 C4.09566147 -0.01842133 5.17987885 -0.01953918 6.29695129 -0.02069092 C7.44375366 -0.02565582 8.59055603 -0.03062073 9.77210999 -0.03573608 C13.57051695 -0.05035467 17.36888213 -0.05715974 21.16731262 -0.06268311 C23.80804445 -0.06843542 26.44877626 -0.07419314 29.08950806 -0.07995605 C33.92202057 -0.08952388 38.75452408 -0.09542261 43.58704489 -0.09845281 C50.68333234 -0.1029277 57.77942661 -0.12045124 64.87565535 -0.1494534 C71.03512945 -0.17374666 77.19452432 -0.18140067 83.35404396 -0.18312836 C85.96744652 -0.18615085 88.58084835 -0.19416571 91.19421959 -0.20731354 C94.85621526 -0.22441973 98.51774408 -0.2224821 102.17976379 -0.21600342 C103.25386002 -0.2252182 104.32795624 -0.23443298 105.43460083 -0.243927 C115.52750223 -0.18815732 122.71602274 1.87718993 130.11262512 8.88653564 C135.31066628 14.89709626 137.17424951 22.21323739 137.20228577 30.04026794 C137.20799591 31.00031738 137.21370605 31.96036682 137.21958923 32.94950867 C137.22126602 34.51198082 137.22126602 34.51198082 137.22297668 36.10601807 C137.22794159 37.21234589 137.23290649 38.31867371 137.23802185 39.45852661 C137.25262054 43.11682764 137.25944211 46.77508528 137.26496887 50.43341064 C137.27072272 52.98063661 137.27648043 55.52786256 137.28224182 58.0750885 C137.29140396 62.73489657 137.29770655 67.39469168 137.30073857 72.05450648 C137.30521287 78.89155476 137.32273612 85.72840248 137.35173917 92.56538981 C137.3760536 98.50540281 137.38368743 104.44536647 137.38541412 110.38543129 C137.38843347 112.90311079 137.39643761 115.4207896 137.4095993 117.93843651 C137.42673419 121.46840802 137.42476098 124.99789636 137.41828918 128.52789307 C137.42750397 129.55942001 137.43671875 130.59094696 137.44621277 131.6537323 C137.38841974 141.76280962 135.38321659 150.78638448 128.06184387 158.14044189 C122.95180617 162.03103878 118.51882307 164.25439091 112.02288818 164.29434204 C110.46072571 164.30724274 110.46072571 164.30724274 108.86700439 164.32040405 C107.15348534 164.32679398 107.15348534 164.32679398 105.40534973 164.33331299 C103.59999252 164.34557922 103.59999252 164.34557922 101.75816345 164.35809326 C97.76434155 164.38295908 93.77055756 164.39962349 89.77668762 164.41387939 C88.39907386 164.41924115 87.02146015 164.42461866 85.64384651 164.43001175 C79.90912121 164.45164133 74.17439867 164.47037409 68.43964291 164.48163414 C60.23793858 164.49784646 52.03671001 164.53095634 43.83518499 164.58803499 C38.06006917 164.62684651 32.28507996 164.64628031 26.50983721 164.6515547 C23.06532124 164.65519445 19.62131298 164.66706578 16.17693901 164.69965744 C12.32585395 164.73557389 8.47535626 164.73133879 4.62409973 164.72393799 C3.49592331 164.74034332 2.36774689 164.75674866 1.2053833 164.77365112 C-6.93088215 164.7098718 -13.38003315 162.90456299 -19.73820591 157.65395164 C-27.19023913 149.90118019 -28.53573027 139.610381 -28.43986511 129.31011963 C-28.4452681 128.18340851 -28.45067108 127.05669739 -28.45623779 125.89584351 C-28.46865287 122.2049662 -28.45228229 118.51487994 -28.43424988 114.82403564 C-28.43440502 112.24054422 -28.43589654 109.65705257 -28.43865967 107.07356262 C-28.4400404 101.67297125 -28.42797953 96.27266667 -28.40470886 90.87213135 C-28.37809234 84.65254923 -28.37636032 78.43334033 -28.38809723 72.21372074 C-28.3989224 66.19781967 -28.39254774 60.18208768 -28.37854195 54.16618538 C-28.37404193 51.62061006 -28.3736779 49.07502382 -28.37760735 46.52944756 C-28.38053343 42.96652981 -28.36394537 39.40421143 -28.34220886 35.84136963 C-28.34671051 34.80056747 -28.35121216 33.75976532 -28.35585022 32.68742371 C-28.2524431 22.4318765 -26.32040187 14.54992824 -19.12956238 7.05450439 C-13.52722223 2.16119482 -7.37958641 0.02546107 0 0 Z M40.06184387 20.14044189 C40.06184387 23.44044189 40.06184387 26.74044189 40.06184387 30.14044189 C49.30184387 30.14044189 58.54184387 30.14044189 68.06184387 30.14044189 C68.06184387 26.84044189 68.06184387 23.54044189 68.06184387 20.14044189 C65.41356208 18.816301 63.39504276 19.01087148 60.43293762 19.00762939 C59.31596497 19.00634033 58.19899231 19.00505127 57.048172 19.00372314 C55.87705872 19.00759033 54.70594543 19.01145752 53.49934387 19.01544189 C51.73687317 19.00964111 51.73687317 19.00964111 49.938797 19.00372314 C48.8231134 19.00501221 47.70742981 19.00630127 46.55793762 19.00762939 C45.52854065 19.00875732 44.49914368 19.00988525 43.43855286 19.01104736 C41.10700279 18.87274255 41.10700279 18.87274255 40.06184387 20.14044189 Z M85.18684387 34.82794189 C83.70925577 37.86520633 83.99654711 38.94918333 85.06184387 42.14044189 C87.37922097 44.95006206 87.37922097 44.95006206 90.31184387 47.51544189 C91.26575012 48.41005127 92.21965637 49.30466064 93.20246887 50.22637939 C95.86927375 52.42271605 95.86927375 52.42271605 98.80403137 52.00762939 C101.33082913 51.03712922 102.59096223 50.42848 104.06184387 48.14044189 C103.90207314 44.55789038 103.11548419 43.20209226 100.73371887 40.46466064 C99.76950012 39.59454346 98.80528137 38.72442627 97.81184387 37.82794189 C96.85793762 36.94493408 95.90403137 36.06192627 94.92121887 35.15216064 C92.26076488 32.95848457 92.26076488 32.95848457 89.31965637 32.74200439 C86.93184049 32.95788324 86.93184049 32.95788324 85.18684387 34.82794189 Z M17.06184387 54.14044189 C7.75557021 65.1549417 4.03694178 77.84771642 5.06184387 92.14044189 C7.53948095 107.25988075 14.62325133 118.83408275 26.93684387 128.01544189 C37.75462915 135.15989821 50.31755178 137.73724847 63.08918762 135.64434814 C77.95076503 132.25889229 89.15303522 124.55315171 97.59309387 111.75372314 C101.19634362 105.34262187 103.51736031 98.49096995 104.06184387 91.14044189 C104.13918762 90.16591064 104.13918762 90.16591064 104.21809387 89.17169189 C104.80112082 75.76207207 100.07132163 63.51053484 91.43684387 53.45294189 C81.32943413 42.83490521 69.53127022 37.36997305 54.93684387 36.89044189 C39.78638125 37.07545433 27.37194812 43.27584464 17.06184387 54.14044189 Z " fill="currentColor" transform="translate(27.938156127929688,-0.14044189453125)"/>
<path d="M0 0 C9.95802267 6.13575134 15.59195835 14.51698013 19.18359375 25.56640625 C21.36866576 37.50705229 19.12966293 48.18992205 12.8203125 58.4296875 C6.1588994 67.78579284 -2.40456793 72.94666735 -13.4296875 75.6796875 C-25.13278542 76.78935279 -35.70237683 75.4728974 -45.3046875 68.3671875 C-54.49750554 60.55412334 -60.60067885 51.42283684 -61.765625 39.13671875 C-61.9048045 26.15127117 -59.4609702 16.26351703 -50.4296875 6.6796875 C-36.76023607 -7.14439573 -16.90583266 -9.1867708 0 0 Z M-48.4296875 15.6796875 C-48.4296875 20.40122968 -47.71784943 21.01434923 -44.7421875 24.4921875 C-43.9275 25.44480469 -43.1128125 26.39742187 -42.2734375 27.37890625 C-41.82097656 27.9001709 -41.36851563 28.42143555 -40.90234375 28.95849609 C-39.28613743 30.84746402 -37.71720794 32.77070987 -36.1484375 34.69921875 C-35.01379313 36.06834873 -33.87838182 37.4368435 -32.7421875 38.8046875 C-32.20827393 39.46831299 -31.67436035 40.13193848 -31.12426758 40.81567383 C-28.53794283 43.87717635 -27.10775054 45.46871631 -23.203125 46.68359375 C-18.84377033 46.67745381 -16.64806636 44.8168411 -13.5546875 41.9296875 C-11.85022059 38.52075368 -12.46119427 36.29539556 -13.4296875 32.6796875 C-16.43868319 28.98442964 -19.77868122 27.3582812 -24.09375 25.4453125 C-24.72703217 25.16242371 -25.36031433 24.87953491 -26.01278687 24.58807373 C-27.34383892 23.99561489 -28.6768629 23.40756853 -30.01171875 22.82373047 C-32.05928643 21.92767492 -34.10026351 21.01779762 -36.140625 20.10546875 C-42.08471079 17.03051176 -42.08471079 17.03051176 -48.4296875 15.6796875 Z " fill="currentColor" transform="translate(103.4296875,51.3203125)"/>
</svg>
