<?xml version="1.0" encoding="UTF-8"?>
<svg version="1.1" xmlns="http://www.w3.org/2000/svg" width="100%" height="100%" viewBox="0 0 164 164">
<path d="M0 0 C1.79204109 -0.01292336 1.79204109 -0.01292336 3.62028503 -0.02610779 C6.8725942 -0.04482142 10.12425493 -0.04569683 13.37658763 -0.03678632 C16.10253471 -0.03164662 18.8283921 -0.038993 21.55432993 -0.04625839 C27.99040256 -0.06321124 34.42623783 -0.05973858 40.86230469 -0.04296875 C47.47846717 -0.02605142 54.09396964 -0.04188634 60.71006006 -0.07419163 C66.41316 -0.1009729 72.11605557 -0.10814068 77.81921202 -0.09967655 C81.21550471 -0.09477207 84.61140065 -0.0968267 88.00764275 -0.11746407 C91.79854806 -0.13495383 95.58805619 -0.12032729 99.37890625 -0.09765625 C101.04300537 -0.11519455 101.04300537 -0.11519455 102.74072266 -0.13308716 C110.99364643 -0.03306547 117.6994043 1.83437551 123.90307522 7.49387264 C131.32314698 15.17737783 132.20268886 23.20063325 132.18994141 33.45043945 C132.20001724 34.62226776 132.21009308 35.79409607 132.22047424 37.00143433 C132.24888453 40.86116169 132.25482758 44.72049695 132.25805664 48.58032227 C132.2623315 49.9173525 132.26712022 51.25438119 132.27241325 52.59140778 C132.30011567 59.59491325 132.31242549 66.59824819 132.31005859 73.60180664 C132.30825864 80.1003935 132.33988005 86.59823139 132.38728958 93.0966289 C132.4266954 98.70036367 132.44260281 104.30385546 132.44069237 109.90772748 C132.43993245 113.24400022 132.45101767 116.57907954 132.48022652 119.91530609 C132.50981244 123.64378468 132.50092283 127.37036399 132.48291016 131.09887695 C132.50819794 132.7264946 132.50819794 132.7264946 132.53399658 134.38699341 C132.42814308 143.06376157 129.98038406 151.26811947 123.72965336 157.5766716 C115.89442319 164.00944946 107.77724741 164.9783895 97.98901367 164.9375 C96.83347992 164.94436325 95.67794617 164.9512265 94.48739624 164.95829773 C90.68295869 164.97653823 86.87893463 164.97273168 83.07446289 164.96704102 C81.0910383 164.97044999 79.10761352 164.97386746 77.12419116 164.97839409 C70.89288886 164.99240809 64.66172374 164.99090477 58.43041992 164.97949219 C52.02510603 164.96801934 45.62021126 164.98207933 39.21495259 165.00888866 C33.69448105 165.03112033 28.17414035 165.03766618 22.65362728 165.03181225 C19.36578056 165.02845854 16.07825971 165.03248448 12.79043961 165.04806328 C9.11933848 165.06300727 5.44914955 165.05226936 1.77807617 165.03515625 C0.70450867 165.04482422 -0.36905884 165.05449219 -1.47515869 165.06445312 C-9.86488708 164.98291636 -18.51024675 163.17270325 -24.87864113 157.24671745 C-31.23390847 149.28283322 -33.13107803 141.08122616 -32.99047852 131.13061523 C-32.99777985 129.95499023 -33.00508118 128.77936523 -33.01260376 127.56811523 C-33.02868659 123.72001578 -33.00170833 119.87363501 -32.97241211 116.02563477 C-32.96844674 113.33146459 -32.97231053 110.63731573 -32.97543335 107.94314575 C-32.97719137 102.31304805 -32.95520162 96.6834356 -32.91821289 91.0534668 C-32.87584759 84.56850291 -32.86887101 78.08424774 -32.88133681 71.59917343 C-32.89277146 65.32640903 -32.88138018 59.0538911 -32.85898972 52.78116226 C-32.8497639 50.12661542 -32.84897589 47.47247552 -32.85216141 44.81786728 C-32.85290678 41.10400195 -32.82755261 37.39119571 -32.79516602 33.67749023 C-32.80012085 32.59150543 -32.80507568 31.50552063 -32.81018066 30.3866272 C-32.67673619 20.75301757 -30.39396184 13.03458314 -23.51538086 6.10375977 C-15.94523888 0.86589905 -9.06408768 -0.05322105 0 0 Z M2.75415039 31.53344727 C2.75415039 40.11344727 2.75415039 48.69344727 2.75415039 57.53344727 C0.44415039 57.53344727 -1.86584961 57.53344727 -4.24584961 57.53344727 C-4.24584961 55.22344727 -4.24584961 52.91344727 -4.24584961 50.53344727 C-6.13764164 49.85196497 -6.13764164 49.85196497 -8.24584961 49.53344727 C-10.41592573 51.29543652 -10.41592573 51.29543652 -10.49194527 53.46621895 C-10.49010168 54.2608045 -10.48825809 55.05539005 -10.48635864 55.87405396 C-10.48910797 56.78553192 -10.4918573 57.69700989 -10.49468994 58.6361084 C-10.48749939 59.63879761 -10.48030884 60.64148682 -10.47290039 61.67456055 C-10.47319244 62.72823822 -10.4734845 63.78191589 -10.4737854 64.86752319 C-10.47238799 68.3630181 -10.45680737 71.85830193 -10.44116211 75.35375977 C-10.43743344 77.77228682 -10.43458578 80.19081538 -10.43258667 82.60934448 C-10.42493869 88.98476306 -10.4052802 95.36009096 -10.38317871 101.73547363 C-10.36274534 108.23712945 -10.35359033 114.73879987 -10.34350586 121.24047852 C-10.32203542 134.00484019 -10.28826817 146.76913891 -10.24584961 159.53344727 C-8.26584961 159.86344727 -6.28584961 160.19344727 -4.24584961 160.53344727 C-4.24584961 127.86344727 -4.24584961 95.19344727 -4.24584961 61.53344727 C-1.93584961 61.53344727 0.37415039 61.53344727 2.75415039 61.53344727 C2.75415039 70.11344727 2.75415039 78.69344727 2.75415039 87.53344727 C14.37242465 86.8154269 25.81134607 85.24778454 37.33227539 83.62719727 C39.39635092 83.33933134 41.46045875 83.0516969 43.52459717 82.76428223 C47.82137451 82.16504778 52.11773523 81.56293093 56.41381836 80.95874023 C61.93125863 80.18303755 67.44971286 79.41482944 72.96849442 78.64873505 C77.21694183 78.05813045 81.46482585 77.46355343 85.7125473 76.86775208 C87.74903638 76.58261504 89.78570376 76.29874851 91.82254791 76.01615906 C94.65222452 75.6229852 97.48109623 75.22446531 100.30981445 74.82446289 C101.15541428 74.70806961 102.0010141 74.59167633 102.87223816 74.47175598 C106.62645667 74.23863449 106.62645667 74.23863449 109.75415039 72.53344727 C109.85386825 70.61886445 109.88495628 68.70062409 109.88696289 66.78344727 C109.88825195 65.61813477 109.88954102 64.45282227 109.89086914 63.25219727 C109.88700195 62.02500977 109.88313477 60.79782227 109.87915039 59.53344727 C109.88301758 58.30625977 109.88688477 57.07907227 109.89086914 55.81469727 C109.88958008 54.64938477 109.88829102 53.48407227 109.88696289 52.28344727 C109.885271 50.66696289 109.885271 50.66696289 109.88354492 49.01782227 C110.0350741 46.5912473 110.0350741 46.5912473 108.75415039 45.53344727 C105.7256045 45.01829319 102.70545145 44.55978235 99.66381836 44.13476562 C98.7093129 43.99806961 97.75480743 43.8613736 96.77137756 43.72053528 C93.59695919 43.26715829 90.42169792 42.82002171 87.24633789 42.37329102 C85.04489964 42.06106518 82.8434942 41.74860797 80.64212036 41.43592834 C76.01709218 40.78002127 71.3916354 40.12724323 66.76586914 39.4765625 C60.84343398 38.64318931 54.92218742 37.80169056 49.00124931 36.95775509 C44.44978263 36.31001878 39.89767718 35.66686579 35.34537125 35.02505684 C33.16273455 34.71673086 30.98030546 34.40693153 28.79809189 34.09562492 C25.73965003 33.65997549 22.68039347 33.23056636 19.62084961 32.80273438 C18.72186447 32.67339508 17.82287933 32.54405579 16.89665222 32.41079712 C16.05547348 32.29444412 15.21429474 32.17809113 14.34762573 32.05821228 C13.62531706 31.95627028 12.90300838 31.85432829 12.15881157 31.74929714 C9.03565598 31.46895297 5.88986302 31.53344727 2.75415039 31.53344727 Z " fill="currentColor" transform="translate(32.245849609375,-0.533447265625)"/>
<path d="M0 0 C13 1 13 1 19 2 C19 15.2 19 28.4 19 42 C5 44 5 44 0 44 C0 29.48 0 14.96 0 0 Z " fill="currentColor" transform="translate(57,37)"/>
<path d="M0 0 C14 1 14 1 20 3 C20 11.58 20 20.16 20 29 C13 31 13 31 0 32 C0 21.44 0 10.88 0 0 Z " fill="currentColor" transform="translate(99,43)"/>
</svg>
